<svg width="36" height="36" viewBox="0 0 36 36" fill="none" xmlns="http://www.w3.org/2000/svg">
<g clip-path="url(#clip0)">
<path d="M4.5 22.5C4.10218 22.5 3.72064 22.342 3.43934 22.0607C3.15804 21.7794 3 21.3978 3 21V12C3 11.8011 3.07902 11.6103 3.21967 11.4697C3.36032 11.329 3.55109 11.25 3.75 11.25H29.25C29.4489 11.25 29.6397 11.329 29.7803 11.4697C29.921 11.6103 30 11.8011 30 12V13.7265C30.0001 14.0222 30.0893 14.3111 30.256 14.5554C30.4227 14.7997 30.6591 14.9881 30.9345 15.096L30.966 15.108C31.1904 15.1992 31.4338 15.2339 31.6747 15.2089C31.9157 15.184 32.1468 15.1002 32.3477 14.9649C32.5486 14.8296 32.7132 14.647 32.827 14.4331C32.9407 14.2193 33.0001 13.9807 33 13.7385V4.5C33 3.30653 32.5259 2.16193 31.682 1.31802C30.8381 0.474106 29.6935 0 28.5 0L4.5 0C3.30653 0 2.16193 0.474106 1.31802 1.31802C0.474106 2.16193 0 3.30653 0 4.5L0 21C0 22.1935 0.474106 23.3381 1.31802 24.182C2.16193 25.0259 3.30653 25.5 4.5 25.5H17.55C17.867 25.4918 18.1721 25.3777 18.4167 25.176C18.6613 24.9743 18.8315 24.6966 18.9 24.387L18.9225 24.3C18.9876 24.0941 19.0036 23.8758 18.9692 23.6627C18.9349 23.4495 18.851 23.2473 18.7245 23.0723C18.5979 22.8974 18.4321 22.7545 18.2404 22.6551C18.0487 22.5557 17.8364 22.5026 17.6205 22.5H4.5ZM3 4.5C3 4.10218 3.15804 3.72064 3.43934 3.43934C3.72064 3.15804 4.10218 3 4.5 3H28.5C28.8978 3 29.2794 3.15804 29.5607 3.43934C29.842 3.72064 30 4.10218 30 4.5V6C30 6.19891 29.921 6.38968 29.7803 6.53033C29.6397 6.67098 29.4489 6.75 29.25 6.75H3.75C3.55109 6.75 3.36032 6.67098 3.21967 6.53033C3.07902 6.38968 3 6.19891 3 6V4.5Z" fill="white" fill-opacity="0.5"/>
<path d="M12 16.5H7.5C7.10218 16.5 6.72064 16.658 6.43934 16.9393C6.15804 17.2206 6 17.6022 6 18C6 18.3978 6.15804 18.7794 6.43934 19.0607C6.72064 19.342 7.10218 19.5 7.5 19.5H12C12.3978 19.5 12.7794 19.342 13.0607 19.0607C13.342 18.7794 13.5 18.3978 13.5 18C13.5 17.6022 13.342 17.2206 13.0607 16.9393C12.7794 16.658 12.3978 16.5 12 16.5Z" fill="white" fill-opacity="0.5"/>
<path d="M34.071 23.2725C33.9818 23.2598 33.9002 23.2154 33.8412 23.1473C33.7822 23.0792 33.7498 22.9921 33.75 22.902V21.375C33.75 19.9826 33.1969 18.6473 32.2123 17.6627C31.2277 16.6781 29.8924 16.125 28.5 16.125C27.1076 16.125 25.7723 16.6781 24.7877 17.6627C23.8031 18.6473 23.25 19.9826 23.25 21.375V22.902C23.2502 22.9921 23.2178 23.0792 23.1588 23.1473C23.0998 23.2154 23.0182 23.2598 22.929 23.2725C22.3933 23.3497 21.9034 23.6174 21.5491 24.0265C21.1948 24.4357 20.9999 24.9588 21 25.5V33.75C21 34.3467 21.2371 34.919 21.659 35.341C22.081 35.7629 22.6533 36 23.25 36H33.75C34.3467 36 34.919 35.7629 35.341 35.341C35.7629 34.919 36 34.3467 36 33.75V25.5C36.0001 24.9588 35.8052 24.4357 35.4509 24.0265C35.0966 23.6174 34.6067 23.3497 34.071 23.2725ZM26.25 21.375C26.25 20.7783 26.4871 20.206 26.909 19.784C27.331 19.3621 27.9033 19.125 28.5 19.125C29.0967 19.125 29.669 19.3621 30.091 19.784C30.5129 20.206 30.75 20.7783 30.75 21.375V22.875C30.75 22.9745 30.7105 23.0698 30.6402 23.1402C30.5698 23.2105 30.4745 23.25 30.375 23.25H26.625C26.5255 23.25 26.4302 23.2105 26.3598 23.1402C26.2895 23.0698 26.25 22.9745 26.25 22.875V21.375ZM28.5 28.875C28.7967 28.875 29.0867 28.963 29.3334 29.1278C29.58 29.2926 29.7723 29.5269 29.8858 29.801C29.9994 30.0751 30.0291 30.3767 29.9712 30.6676C29.9133 30.9586 29.7704 31.2259 29.5607 31.4357C29.3509 31.6454 29.0836 31.7883 28.7926 31.8462C28.5017 31.9041 28.2001 31.8744 27.926 31.7608C27.6519 31.6473 27.4176 31.455 27.2528 31.2084C27.088 30.9617 27 30.6717 27 30.375C27 29.9772 27.158 29.5956 27.4393 29.3143C27.7206 29.033 28.1022 28.875 28.5 28.875Z" fill="white"/>
</g>
<defs>
<clipPath id="clip0">
<rect width="36" height="36" fill="white"/>
</clipPath>
</defs>
</svg>
