<svg width="36" height="36" viewBox="0 0 36 36" fill="none" xmlns="http://www.w3.org/2000/svg">
<path d="M20.625 10.866C20.625 10.1698 20.3484 9.50209 19.8562 9.00981C19.3639 8.51753 18.6962 8.24097 18 8.24097C17.3038 8.24097 16.6361 8.51753 16.1438 9.00981C15.6516 9.50209 15.375 10.1698 15.375 10.866V13.116C15.375 13.2154 15.4145 13.3108 15.4848 13.3811C15.5552 13.4515 15.6505 13.491 15.75 13.491H20.25C20.3495 13.491 20.4448 13.4515 20.5152 13.3811C20.5855 13.3108 20.625 13.2154 20.625 13.116V10.866Z" fill="white"/>
<path d="M36 2.92953C35.9952 2.15384 35.684 1.41149 35.1341 0.864383C34.5841 0.31728 33.8402 0.0098106 33.0645 0.0090332H2.9385C2.16216 0.0133946 1.41913 0.324958 0.871857 0.875604C0.324583 1.42625 0.0175912 2.17118 0.018 2.94753L0 13.959C0.0393623 19.0986 1.8204 24.0729 5.05218 28.0695C8.28395 32.066 12.7755 34.8485 17.793 35.9625C17.8888 35.9817 17.9863 35.9913 18.084 35.991C18.1848 35.9906 18.2853 35.9801 18.384 35.9595C23.3915 34.8013 27.8582 31.9792 31.0545 27.9544C34.2509 23.9295 35.988 18.9397 35.982 13.8L36 2.92953ZM11.25 23.241V14.991C11.25 14.5932 11.408 14.2117 11.6893 13.9304C11.9706 13.6491 12.3522 13.491 12.75 13.491H13.125V10.866C13.125 9.5731 13.6386 8.33313 14.5529 7.41889C15.4671 6.50465 16.7071 5.99103 18 5.99103C19.2929 5.99103 20.5329 6.50465 21.4471 7.41889C22.3614 8.33313 22.875 9.5731 22.875 10.866V13.491H23.25C23.6478 13.491 24.0294 13.6491 24.3107 13.9304C24.592 14.2117 24.75 14.5932 24.75 14.991V23.241C24.75 23.6389 24.592 24.0204 24.3107 24.3017C24.0294 24.583 23.6478 24.741 23.25 24.741H12.75C12.3522 24.741 11.9706 24.583 11.6893 24.3017C11.408 24.0204 11.25 23.6389 11.25 23.241Z" fill="white"/>
<path d="M18 21.741C19.0355 21.741 19.875 20.9015 19.875 19.866C19.875 18.8304 19.0355 17.991 18 17.991C16.9645 17.991 16.125 18.8304 16.125 19.866C16.125 20.9015 16.9645 21.741 18 21.741Z" fill="white"/>
</svg>
