<svg width="426" height="460" viewBox="0 0 426 460" fill="none" xmlns="http://www.w3.org/2000/svg">
<rect width="426" height="460" fill="#07CAAC"/>
<mask id="mask0" mask-type="alpha" maskUnits="userSpaceOnUse" x="0" y="0" width="426" height="460">
<rect width="426" height="460" fill="white"/>
</mask>
<g mask="url(#mask0)">
<path fill-rule="evenodd" clip-rule="evenodd" d="M121.5 128C142.763 128 160 110.763 160 89.5C160 68.237 142.763 51 121.5 51C100.237 51 83 68.237 83 89.5C83 110.763 100.237 128 121.5 128Z" stroke="white" stroke-opacity="0.3" stroke-width="10"/>
<path fill-rule="evenodd" clip-rule="evenodd" d="M324 352C351.614 352 374 329.614 374 302C374 274.386 351.614 252 324 252C296.386 252 274 274.386 274 302C274 329.614 296.386 352 324 352Z" stroke="white" stroke-opacity="0.3" stroke-width="22"/>
<path fill-rule="evenodd" clip-rule="evenodd" d="M422 72C433.046 72 442 63.0457 442 52C442 40.9543 433.046 32 422 32C410.954 32 402 40.9543 402 52C402 63.0457 410.954 72 422 72Z" stroke="white" stroke-opacity="0.3" stroke-width="12"/>
<path fill-rule="evenodd" clip-rule="evenodd" d="M342 152C358.569 152 372 138.569 372 122C372 105.431 358.569 92 342 92C325.431 92 312 105.431 312 122C312 138.569 325.431 152 342 152Z" stroke="white" stroke-opacity="0.3" stroke-width="6"/>
<rect x="150.534" y="-25.6571" width="210.656" height="315.983" rx="9" transform="rotate(6 150.534 -25.6571)" fill="#EEF0F8"/>
<rect x="150.534" y="-25.6571" width="210.656" height="315.983" rx="9" transform="rotate(6 150.534 -25.6571)" fill="url(#paint0_linear)" fill-opacity="0.1"/>
<path d="M226.396 34.3785L223.876 29.7717L222.876 30.7145L222.533 33.9725L219.86 33.6915L221.44 18.6588L224.114 18.9399L223.227 27.3822L223.375 27.3978L227.049 23.8899L230.169 24.2179L225.839 28.2558L229.295 34.6832L226.397 34.3786L226.396 34.3785Z" fill="#09D9B9"/>
<path fill-rule="evenodd" clip-rule="evenodd" d="M222.445 21.2349C219.028 20.8757 216.575 17.7727 216.933 14.3661C217.103 12.7318 217.918 11.2328 219.196 10.2008C220.475 9.16891 222.112 8.68918 223.746 8.86784C225.38 9.03313 226.881 9.84295 227.917 11.1181C228.953 12.3932 229.438 14.0286 229.265 15.6623C228.981 19.0767 225.863 21.5942 222.445 21.2349ZM284.79 40.5159L282.19 40.2426L282.322 38.9823L282.174 38.9667C281.986 39.3216 281.658 39.5867 281.181 39.8361C280.704 40.0846 280.168 40.1785 279.426 40.1005C278.608 40.0146 277.963 39.7223 277.408 39.2902C276.812 38.7424 276.368 38.051 276.116 37.2821C275.831 36.4286 275.783 35.4499 275.908 34.2648C276.032 33.0806 276.356 32.1409 276.813 31.3655C277.27 30.59 277.853 30.0521 278.486 29.744C279.193 29.4446 279.885 29.2929 280.628 29.371C281.297 29.4413 281.876 29.6514 282.29 29.9946C282.705 30.3377 282.971 30.6652 283.081 31.0514L283.155 31.0592L283.653 26.3198L286.253 26.5931L284.79 40.515L284.79 40.5159ZM233.885 35.3149C232.845 35.2056 231.977 34.8899 231.281 34.3679C230.574 33.8465 230.025 33.141 229.692 32.3286C229.332 31.4672 229.277 30.5628 229.394 29.452C229.503 28.4155 229.827 27.4758 230.284 26.7004C230.728 25.9376 231.395 25.3286 232.195 24.9547C233.053 24.5523 234.005 24.3935 234.947 24.4955C235.839 24.5892 236.633 24.8971 237.262 25.3379C237.966 25.7857 238.424 26.4329 238.792 27.2199C239.16 28.0079 239.207 28.9857 239.091 30.0965L238.974 31.2073L231.916 30.4655C231.913 31.2144 232.14 31.9116 232.464 32.3955C232.864 32.8863 233.36 33.1638 234.177 33.2497C234.772 33.3122 235.307 33.2183 235.636 32.9532C235.964 32.6891 236.218 32.4153 236.413 31.987L238.72 32.9028C238.525 33.332 238.248 33.8269 237.83 34.2318C237.411 34.6376 236.927 34.9604 236.227 35.1864C235.459 35.3572 234.668 35.4007 233.885 35.3149ZM234.639 26.7093C234.045 26.6468 233.502 26.8141 233.091 27.1457C232.681 27.4763 232.329 27.9633 232.103 28.6888L236.634 29.165C236.696 28.5725 236.528 28.0308 236.203 27.5469C235.804 27.0561 235.307 26.7795 234.639 26.7092L234.639 26.7093ZM242.377 35.9821L242.099 36.4778C241.814 37.0469 241.47 37.4596 241.232 37.5848C240.911 37.7755 240.466 37.7287 239.813 37.5098L239 39.5212C239.071 39.5534 239.134 39.5848 239.197 39.6162L239.197 39.6162C239.325 39.6798 239.452 39.7433 239.646 39.8135C239.935 39.919 240.158 39.9424 240.455 39.9736L240.455 39.9736C241.124 40.0439 241.734 39.9578 242.203 39.7827C242.672 39.6076 243.082 39.276 243.418 38.9376C243.754 38.5983 244.024 38.1777 244.211 37.8228L249.93 26.2947L247.181 26.0058L244.154 32.6504L244.006 32.6348L242.426 25.506L239.678 25.2171L242.377 35.9821ZM258.866 30.6031L256.375 30.7151C256.281 30.1812 256.097 29.7881 255.831 29.4606C255.565 29.1331 255.135 28.9377 254.541 28.8752C253.724 28.7893 253.172 29.0309 252.664 29.5766C252.231 30.1301 251.93 30.8478 251.829 31.81C251.728 32.7731 251.865 33.611 252.174 34.2426C252.483 34.8733 253.046 35.232 253.864 35.3179C254.384 35.3726 254.845 35.2717 255.173 35.0067C255.502 34.7417 255.838 34.4023 255.959 33.9662L258.371 34.5944C258.047 35.5332 257.442 36.2931 256.629 36.8818C255.702 37.4267 254.623 37.6548 253.556 37.5317C252.516 37.4224 251.722 37.1145 251.026 36.5924C250.329 36.0695 249.879 35.3489 249.519 34.4876C249.216 33.5609 249.114 32.5802 249.221 31.611C249.318 30.6408 249.621 29.7027 250.111 28.8594C250.568 28.0839 251.225 27.5538 252.014 27.1871C252.804 26.8212 253.644 26.6851 254.684 26.7944C255.873 26.9193 256.808 27.3162 257.555 28.0689C258.4 28.6075 258.826 29.551 258.866 30.6031ZM265.153 37.2538L265.029 38.438L265.013 38.5866L267.613 38.8598L268.353 31.8246C268.438 31.0101 268.293 30.2464 267.976 29.6883C267.612 29.1468 267.115 28.7079 266.533 28.4135C265.888 28.1212 265.235 27.9033 264.566 27.833C263.452 27.7159 262.463 27.8355 261.591 28.2687C260.719 28.7011 260.121 29.3875 259.797 30.3263L262.21 30.9545C262.397 30.6005 262.577 30.3189 262.972 30.136C263.367 29.9531 263.754 29.8435 264.274 29.8982C264.676 29.938 265.054 30.1094 265.349 30.3859C265.615 30.7134 265.725 31.0995 265.678 31.5435L265.663 31.6921C265.647 31.8398 265.483 31.9718 265.327 32.0305C265.096 32.0814 264.865 32.1322 264.568 32.101C264.419 32.0854 264.269 32.0881 264.118 32.0909C263.968 32.0936 263.817 32.0963 263.669 32.0807C262.316 32.0887 261.245 32.2748 260.447 32.7159C259.65 33.156 259.201 33.8572 259.092 34.8946C259.022 35.5605 259.108 36.1687 259.358 36.6447C259.683 37.1277 260.016 37.5373 260.512 37.814C261.027 38.1067 261.594 38.2937 262.182 38.3641C262.925 38.4422 263.535 38.3561 264.012 38.1067C264.489 37.8573 264.825 37.5179 265.005 37.2382L265.153 37.2538ZM265.246 34.9423L265.394 33.5353C265.313 33.6002 265.162 33.6569 265.01 33.7142L264.999 33.7182C264.884 33.7436 264.77 33.7505 264.657 33.7574C264.543 33.7642 264.43 33.7711 264.315 33.7965C264.116 33.8325 263.913 33.8362 263.713 33.8074C263.111 33.8193 262.575 33.9123 262.254 34.1039C261.934 34.2947 261.746 34.6496 261.7 35.0936C261.661 35.4641 261.778 35.776 261.978 36.0214C262.252 36.2746 262.541 36.3793 262.987 36.4261C263.581 36.4886 264.042 36.3877 264.527 36.0649C265.012 35.7412 265.199 35.3863 265.246 34.9423ZM275.667 31.5454L276.725 29.3354C276.592 29.1721 276.377 29.0744 276.088 28.9689C275.798 28.8643 275.576 28.8409 275.278 28.8096C274.75 28.7527 274.217 28.8529 273.746 29.0974C273.277 29.2725 272.933 29.6853 272.73 30.1888L272.581 30.1732L272.737 28.6918L270.137 28.4185L269.039 38.8604L271.714 39.1415L272.336 33.217C272.375 32.8474 272.562 32.4941 272.749 32.1401L272.75 32.1375C272.93 31.8569 273.258 31.5927 273.579 31.4002C273.899 31.2103 274.279 31.1751 274.724 31.2219C274.947 31.2454 275.17 31.2688 275.311 31.3587C275.373 31.3983 275.437 31.4235 275.494 31.4463C275.567 31.4751 275.63 31.5 275.667 31.5454ZM278.704 36.956C278.395 36.3244 278.258 35.4864 278.359 34.5242C278.46 33.5612 278.761 32.8444 279.269 32.2987C279.777 31.7521 280.328 31.5114 281.145 31.5973C281.963 31.6832 282.452 32.0341 282.761 32.6657C283.07 33.2972 283.133 34.1274 283.039 35.0162C282.977 35.6087 282.849 36.1182 282.645 36.6218C282.442 37.1244 282.106 37.4637 281.778 37.7288C281.375 37.986 280.914 38.0868 280.394 38.0322C279.577 37.9463 279.014 37.5875 278.704 36.956ZM219.384 14.6238C219.608 12.5788 221.442 11.0987 223.488 11.3113C225.568 11.5299 227.098 13.4128 226.813 15.4046C226.589 17.4496 224.756 18.9297 222.71 18.7171C220.705 18.5064 219.166 16.6977 219.384 14.6238Z" fill="#09D9B9"/>
<path opacity="0.3" d="M245.731 224.16C245.329 223.66 244.665 223.453 244.051 223.636C243.436 223.819 242.994 224.356 242.93 224.994C242.887 225.411 243.011 225.828 243.275 226.154C245.084 228.389 245.37 231.494 243.999 234.022C243.553 234.842 242.95 235.567 242.224 236.155C241.898 236.418 241.69 236.801 241.646 237.218C241.602 237.635 241.725 238.052 241.988 238.379C242.537 239.058 243.532 239.163 244.212 238.615C246.329 236.901 247.679 234.416 247.964 231.707C248.248 228.998 247.445 226.287 245.73 224.17L245.731 224.16V224.16Z" fill="#0E1C36"/>
<path opacity="0.3" d="M248.35 223.322C252.461 228.407 251.678 235.86 246.6 239.978C246.265 240.238 246.05 240.622 246.003 241.044C245.953 241.465 246.075 241.889 246.342 242.219C246.609 242.549 246.999 242.757 247.421 242.795C247.843 242.836 248.263 242.706 248.588 242.433C255.029 237.216 256.022 227.765 250.807 221.323C250.402 220.827 249.738 220.623 249.125 220.807C248.512 220.99 248.069 221.524 248.003 222.161C247.96 222.579 248.085 222.997 248.35 223.322V223.322Z" fill="#0E1C36"/>
<rect x="190.815" y="202.395" width="42.1308" height="44.2917" rx="4.5" transform="rotate(6 190.815 202.395)" fill="#EEC458"/>
<rect x="190.815" y="202.395" width="42.1308" height="44.2917" rx="4.5" transform="rotate(6 190.815 202.395)" fill="url(#paint1_linear)" fill-opacity="0.6"/>
<mask id="mask1" mask-type="alpha" maskUnits="userSpaceOnUse" x="186" y="202" width="47" height="49">
<rect x="190.815" y="202.395" width="42.1308" height="44.2917" rx="4.5" transform="rotate(6 190.815 202.395)" fill="white"/>
</mask>
<g mask="url(#mask1)">
<path d="M170.991 213.418L171.179 211.628L169.389 211.44L169.201 213.23L170.991 213.418ZM205.121 217.005L206.911 217.193L207.099 215.403L205.309 215.215L205.121 217.005ZM200.506 260.912L200.318 262.702L202.108 262.89L202.296 261.1L200.506 260.912ZM166.376 257.325L164.586 257.137L164.398 258.927L166.188 259.115L166.376 257.325ZM222.702 198.377L222.89 196.587L221.1 196.399L220.912 198.189L222.702 198.377ZM256.832 201.965L258.622 202.153L258.81 200.363L257.02 200.175L256.832 201.965ZM250.969 257.744L250.781 259.534L252.571 259.722L252.76 257.932L250.969 257.744ZM216.84 254.156L215.049 253.968L214.861 255.758L216.651 255.947L216.84 254.156ZM170.803 215.208L204.933 218.795L205.309 215.215L171.179 211.628L170.803 215.208ZM203.331 216.817L198.716 260.724L202.296 261.1L206.911 217.193L203.331 216.817ZM200.694 259.122L166.565 255.535L166.188 259.115L200.318 262.702L200.694 259.122ZM168.167 257.513L172.781 213.606L169.201 213.23L164.586 257.137L168.167 257.513ZM222.514 200.168L256.644 203.755L257.02 200.175L222.89 196.587L222.514 200.168ZM255.042 201.777L249.179 257.555L252.76 257.932L258.622 202.153L255.042 201.777ZM251.158 255.953L217.028 252.366L216.651 255.947L250.781 259.534L251.158 255.953ZM218.63 254.345L224.492 198.566L220.912 198.189L215.049 253.968L218.63 254.345Z" fill="#C4A145"/>
<path d="M220.221 218.195L232.093 219.443L231.8 222.236L219.927 220.989L220.221 218.195Z" fill="#C4A145"/>
<path d="M220.221 218.195L232.093 219.443L231.8 222.236L219.927 220.989L220.221 218.195Z" fill="#C4A145"/>
<path d="M220.221 218.195L232.093 219.443L231.8 222.236L219.927 220.989L220.221 218.195Z" fill="#C4A145"/>
<path fill-rule="evenodd" clip-rule="evenodd" d="M232.093 219.443L220.221 218.195L219.927 220.989L231.8 222.236L232.093 219.443ZM230.479 234.806L218.606 233.558L218.313 236.352L230.185 237.599L230.479 234.806Z" fill="#C4A145"/>
<path d="M218.606 233.558L230.479 234.806L230.185 237.599L218.313 236.351L218.606 233.558Z" fill="#C4A145"/>
<path d="M218.606 233.558L230.479 234.806L230.185 237.599L218.313 236.351L218.606 233.558Z" fill="#C4A145"/>
<path fill-rule="evenodd" clip-rule="evenodd" d="M204.602 225.731L184.35 223.603L184.057 226.396L204.309 228.525L204.602 225.731ZM230.479 234.806L218.606 233.558L218.313 236.351L230.185 237.599L230.479 234.806Z" fill="#C4A145"/>
<path d="M184.35 223.603L204.602 225.731L204.309 228.525L184.057 226.396L184.35 223.603Z" fill="#C4A145"/>
<path d="M184.35 223.603L204.602 225.731L204.309 228.525L184.057 226.396L184.35 223.603Z" fill="#C4A145"/>
<path fill-rule="evenodd" clip-rule="evenodd" d="M204.602 225.731L184.35 223.603L184.057 226.396L204.309 228.525L204.602 225.731ZM203.428 236.905L183.176 234.777L182.882 237.57L203.134 239.699L203.428 236.905Z" fill="#C4A145"/>
<path d="M183.176 234.777L203.428 236.905L203.134 239.699L182.882 237.57L183.176 234.777Z" fill="#C4A145"/>
<path d="M183.176 234.777L203.428 236.905L203.134 239.699L182.882 237.57L183.176 234.777Z" fill="#C4A145"/>
<path d="M183.176 234.777L203.428 236.905L203.134 239.699L182.882 237.57L183.176 234.777Z" fill="#C4A145"/>
</g>
<mask id="mask2" mask-type="alpha" maskUnits="userSpaceOnUse" x="186" y="202" width="47" height="49">
<rect x="190.815" y="202.395" width="42.1308" height="44.2917" rx="4.5" transform="rotate(6 190.815 202.395)" fill="white"/>
</mask>
<g mask="url(#mask2)">
</g>
</g>
<defs>
<linearGradient id="paint0_linear" x1="219.616" y1="-52.2628" x2="27.8829" y2="36.8565" gradientUnits="userSpaceOnUse">
<stop stop-color="white"/>
<stop offset="1" stop-color="white" stop-opacity="0.01"/>
</linearGradient>
<linearGradient id="paint1_linear" x1="240.247" y1="156.626" x2="180.298" y2="182.337" gradientUnits="userSpaceOnUse">
<stop stop-color="white"/>
<stop offset="1" stop-color="white" stop-opacity="0.01"/>
</linearGradient>
</defs>
</svg>
