<svg width="426" height="460" viewBox="0 0 426 460" fill="none" xmlns="http://www.w3.org/2000/svg">
<rect width="426" height="460" fill="#DC8600"/>
<mask id="mask0" mask-type="alpha" maskUnits="userSpaceOnUse" x="0" y="0" width="426" height="460">
<rect width="426" height="460" fill="white"/>
</mask>
<g mask="url(#mask0)">
<path opacity="0.6" fill-rule="evenodd" clip-rule="evenodd" d="M313.178 267.82C337.288 265.655 356 245.448 356 220.912C356 195.113 334.949 174.005 309.04 174.005H308.32C308.5 171.66 308.68 169.134 308.68 166.789C308.68 126.015 275.754 93 235.091 93C205.044 93 179.134 111.222 167.799 137.201C161.682 131.969 153.765 128.902 145.129 128.902C125.697 128.902 110.044 144.598 110.044 164.082C110.044 165.165 110.044 166.247 110.223 167.33C87.733 172.562 71 192.768 71 216.943C71 245.088 93.8504 268 121.919 268H309.04C310.479 268 311.919 268 313.178 267.82ZM102.127 216.943C102.127 227.948 110.943 236.789 121.919 236.789V248.515C104.466 248.515 90.4318 234.263 90.4318 216.943H102.127ZM309.04 193.49V205.216C317.676 205.216 324.873 212.253 324.873 220.912H336.568C336.568 205.758 324.153 193.49 309.04 193.49ZM235.091 112.665C264.958 112.665 289.248 137.021 289.248 166.969C289.248 168.593 289.068 170.397 288.888 172.021L277.373 170.938C277.553 169.675 277.553 168.412 277.553 166.969C277.553 143.515 258.481 124.392 235.091 124.392V112.665Z" fill="white"/>
</g>
</svg>
