<svg width="426" height="460" viewBox="0 0 426 460" fill="none" xmlns="http://www.w3.org/2000/svg">
<rect width="426" height="460" fill="#7223C1"/>
<mask id="mask0" mask-type="alpha" maskUnits="userSpaceOnUse" x="0" y="0" width="426" height="460">
<rect width="426" height="460" fill="white"/>
</mask>
<g mask="url(#mask0)">
<g opacity="0.6">
<path d="M311.383 255.315C291.724 260.963 262.647 260.748 222.323 250.946C213.223 248.733 204.052 254.317 201.839 263.417C199.627 272.518 205.211 281.688 214.311 283.901C257.358 294.366 293.055 295.868 320.749 287.911C349.424 279.673 368.908 261.369 377.638 235.199C380.048 227.977 381.588 220.314 382.338 212.282L334.302 133.363C337.333 141.338 339.898 149.024 341.992 156.394C350.343 185.766 350.79 208.506 345.466 224.466C340.51 239.322 330.062 249.948 311.383 255.315Z" fill="url(#paint0_linear)"/>
<path d="M114.735 282.826C119.001 262.822 132.87 237.265 160.492 206.295C166.726 199.306 166.114 188.586 159.124 182.352C152.134 176.118 141.415 176.731 135.182 183.721C105.694 216.782 87.5736 247.574 81.5656 275.755C75.3448 304.934 82.3288 330.738 101.314 350.755C104.96 354.598 108.991 358.17 113.374 361.484L208.026 359.956C200.867 358.962 194.061 357.768 187.623 356.377C157.776 349.927 137.5 339.623 125.922 327.416C115.143 316.053 110.683 301.834 114.735 282.826Z" fill="url(#paint1_linear)"/>
<path d="M195.519 98.6736C209.226 111.896 223.207 136.108 234.746 175.478C238.27 187.498 250.87 194.386 262.89 190.863C274.91 187.34 281.798 174.74 278.275 162.72C265.682 119.754 248.764 87.012 227.012 66.028C204.276 44.096 176.798 35.7016 147.798 41.6288C143.503 42.5056 139.102 43.6088 134.873 45.0664L75.6568 152.979C84.5752 140.857 93.8872 130.501 102.626 121.491C123.491 99.9824 141.983 89.1136 156.88 86.0696C170.254 83.336 182.795 86.3992 195.519 98.6736Z" fill="url(#paint2_linear)"/>
</g>
</g>
<defs>
<linearGradient id="paint0_linear" x1="255.172" y1="334.529" x2="399.059" y2="231.695" gradientUnits="userSpaceOnUse">
<stop stop-color="white"/>
<stop offset="1" stop-color="white" stop-opacity="0.01"/>
</linearGradient>
<linearGradient id="paint1_linear" x1="93.5904" y1="166.451" x2="45.3225" y2="331.281" gradientUnits="userSpaceOnUse">
<stop stop-color="white"/>
<stop offset="1" stop-color="white" stop-opacity="0.01"/>
</linearGradient>
<linearGradient id="paint2_linear" x1="325.359" y1="130.599" x2="196.669" y2="5.63874" gradientUnits="userSpaceOnUse">
<stop stop-color="white"/>
<stop offset="1" stop-color="white" stop-opacity="0.01"/>
</linearGradient>
</defs>
</svg>
