<svg width="32" height="32" viewBox="0 0 32 32" fill="none" xmlns="http://www.w3.org/2000/svg">
<path d="M16 32C24.8365 32 32 24.8365 32 16C32 7.16344 24.8365 0 16 0C7.16344 0 0 7.16344 0 16C0 24.8365 7.16344 32 16 32Z" fill="#F5AC37"/>
<path fill-rule="evenodd" clip-rule="evenodd" d="M16.5926 8.59253C19.7436 8.59253 22.435 10.5599 23.5055 13.3333L25.4815 13.3332V15.111L23.9472 15.1112C23.9821 15.4026 24 15.6991 24 15.9999C24 16.3008 23.9821 16.5974 23.9472 16.8889L25.4815 16.8888V18.6666L23.5054 18.6668C22.4348 21.44 19.7434 23.4073 16.5926 23.4073H10.2222V18.6666H8V16.8888H10.2222V15.111H8V13.3332H10.2222V8.59253H16.5926ZM21.5155 18.6669L11.7775 18.6666L11.7778 21.9258H16.2222C18.5357 21.9258 20.5396 20.6001 21.5155 18.6669ZM22.0819 15.111H11.7775V16.8888L22.0819 16.8891C22.1255 16.599 22.1481 16.3021 22.1481 15.9999C22.1481 15.6978 22.1255 15.401 22.0819 15.111ZM16.2222 10.074H11.7778L11.7775 13.3332H21.5157C20.5398 11.3998 18.5358 10.074 16.2222 10.074Z" fill="white"/>
</svg>
