<svg width="26" height="26" class="text-black rounded w-10 h-10 bg-gray-light fill-current" viewBox="0 0 26 26" fill="none" xmlns="http://www.w3.org/2000/svg">
    <g opacity="0.5" class="hover:opacity-100">
    <rect width="26" height="26" rx="2" fill="white"></rect>
    <path style="fill: black" d="M13.0679 5.14282C8.68929 5.14282 5 8.66068 5 13.0035C5 13.1428 5.00357 21.1428 5.00357 21.1428L13.0679 21.1357C17.45 21.1357 21 17.4821 21 13.1393C21 8.79639 17.45 5.14282 13.0679 5.14282ZM13 17.7143C12.3071 17.7143 11.6464 17.5607 11.0571 17.2821L8.16071 18L8.97857 15.3214C8.62857 14.675 8.42857 13.9321 8.42857 13.1428C8.42857 10.6178 10.475 8.57139 13 8.57139C15.525 8.57139 17.5714 10.6178 17.5714 13.1428C17.5714 15.6678 15.525 17.7143 13 17.7143Z" fill="#090909"/>
    </g>
</svg>