<svg width="26" height="26" class="text-black rounded w-10 h-10 bg-gray-light fill-current" viewBox="0 0 26 26" fill="none" xmlns="http://www.w3.org/2000/svg">
    <g opacity="0.5" class="hover:opacity-100">
    <rect width="26" height="26" rx="2" fill="white"></rect>
    <path style="fill: black" fill-rule="evenodd" clip-rule="evenodd" d="M5 13.334C4.99977 16.9216 7.29547 20.1067 10.699 21.241C11.116 21.317 11.268 21.06 11.268 20.839C11.268 20.641 11.261 20.117 11.257 19.422C8.939 19.925 8.45 18.305 8.45 18.305C8.07 17.342 7.524 17.085 7.524 17.085C6.767 16.569 7.581 16.579 7.581 16.579C8.418 16.638 8.858 17.438 8.858 17.438C9.601 18.711 10.808 18.343 11.283 18.13C11.359 17.592 11.574 17.225 11.813 17.016C9.962 16.806 8.016 16.091 8.016 12.898C8.016 11.988 8.341 11.244 8.874 10.662C8.788 10.451 8.502 9.60299 8.956 8.45599C8.956 8.45599 9.656 8.23199 11.247 9.31099C11.9272 9.12556 12.629 9.03107 13.334 9.02999C14.0386 9.03093 14.7401 9.12508 15.42 9.30999C17.01 8.23199 17.71 8.45599 17.71 8.45599C18.164 9.60299 17.878 10.451 17.792 10.662C18.327 11.244 18.649 11.988 18.649 12.898C18.649 16.099 16.7 16.804 14.844 17.01C15.143 17.267 15.41 17.776 15.41 18.553C15.41 19.667 15.4 20.566 15.4 20.839C15.4 21.062 15.55 21.321 15.972 21.24C20.0101 19.8925 22.3836 15.7182 21.4767 11.559C20.5697 7.39967 16.6739 4.59249 12.4413 5.04846C8.20881 5.50443 5.00027 9.07696 5 13.334H5Z" />
    </g>
</svg>