<svg width="59" height="67" viewBox="0 0 59 67" fill="none" xmlns="http://www.w3.org/2000/svg">
<path fill-rule="evenodd" clip-rule="evenodd" d="M0.0395508 62.9657H3.18202C3.18202 63.4244 3.33211 63.7536 3.63227 63.9534C3.93277 64.1532 4.31827 64.2533 4.78911 64.2533C5.17827 64.2533 5.49703 64.1879 5.7464 64.0565C5.99543 63.925 6.11995 63.7097 6.11995 63.4099C6.11995 63.2329 6.06682 63.0876 5.96123 62.9747C5.85531 62.8617 5.69327 62.7607 5.47479 62.6722C5.20013 62.5637 4.92133 62.4659 4.63903 62.379L3.40714 61.9893C2.99836 61.8585 2.59384 61.7149 2.19419 61.5587C1.81566 61.4101 1.48295 61.2245 1.19639 61.0029C0.914036 60.7869 0.684697 60.51 0.525665 60.1929C0.365288 59.8746 0.285265 59.48 0.285265 59.0094C0.285265 58.4692 0.391188 58.0023 0.602368 57.6073C0.813287 57.2135 1.11944 56.878 1.49324 56.6312C1.87509 56.375 2.33265 56.1828 2.86458 56.055C3.39718 55.9269 3.98391 55.8628 4.62542 55.8628C5.41037 55.8628 6.08574 55.9526 6.65221 56.1326C7.21835 56.3129 7.68255 56.5586 8.04448 56.87C8.40574 57.1817 8.6737 57.5486 8.84802 57.9709C9.02201 58.3933 9.10901 58.8466 9.10901 59.3314H5.94595C5.94595 58.9087 5.83837 58.5802 5.62321 58.3447C5.40837 58.1093 5.08264 57.9914 4.646 57.9914C4.31163 57.9914 4.02508 58.066 3.78601 58.2149C3.54694 58.3635 3.42773 58.5871 3.42773 58.8846C3.42773 59.0844 3.48418 59.2446 3.59708 59.3647C3.70997 59.4849 3.87566 59.5936 4.09414 59.6897C4.31329 59.7861 4.58291 59.8862 4.90433 59.9892L6.00871 60.3445C6.45863 60.4621 6.87834 60.5922 7.26716 60.7358C7.65565 60.8794 7.99866 61.0541 8.29517 61.2595C8.58728 61.4596 8.82898 61.724 9.00143 62.0322C9.17542 62.342 9.26241 62.7353 9.26241 63.2111C9.26241 63.8395 9.13956 64.3744 8.89385 64.8163C8.65605 65.2493 8.3173 65.6192 7.90601 65.8951C7.49328 66.1725 7.01381 66.3716 6.46793 66.4921C5.92205 66.6126 5.34894 66.6727 4.74827 66.6727C3.25407 66.6727 2.09524 66.3561 1.27309 65.7227C0.45062 65.0894 0.0395508 64.17 0.0395508 62.9654V62.9657ZM9.5918 58.6931V56.2789H11.1524V53.2426H14.3248V56.2789H16.5949V58.6934H14.3248V62.3307C14.3248 62.7085 14.3586 63.009 14.426 63.2322C14.4934 63.4555 14.5897 63.6308 14.7149 63.7576C14.8384 63.884 14.9974 63.9702 15.1711 64.0049C15.3696 64.0446 15.5717 64.0635 15.7741 64.0614C15.9089 64.0614 16.0816 64.0564 16.2911 64.0459C16.5003 64.036 16.6829 64.0168 16.8383 63.9891V66.5053C16.5442 66.5547 16.2484 66.5931 15.9514 66.6206C15.5968 66.6556 15.1794 66.6731 14.6996 66.6731C14.3055 66.6714 13.912 66.6439 13.5215 66.5905C13.1098 66.5357 12.7165 66.3865 12.3727 66.1546C12.02 65.9202 11.7285 65.5589 11.4984 65.0722C11.2676 64.5851 11.1524 63.9164 11.1524 63.0668V58.6931H9.5918ZM20.7893 61.5901C20.7893 61.9444 20.8508 62.2832 20.9733 62.6065C21.0955 62.9294 21.2638 63.2075 21.477 63.4403C21.6947 63.6762 21.9568 63.8674 22.2483 64.0033C22.5492 64.1459 22.8852 64.2169 23.2561 64.2169C23.6267 64.2169 23.9647 64.1459 24.2688 64.0033C24.5736 63.8606 24.8323 63.6731 25.0458 63.4403C25.2593 63.2078 25.427 62.9317 25.5495 62.6114C25.6733 62.2851 25.7356 61.9389 25.7335 61.5901C25.7357 61.248 25.6733 60.9086 25.5495 60.5895C25.4318 60.2844 25.2613 60.0021 25.0458 59.7554C24.8323 59.5122 24.5694 59.3169 24.2745 59.1821C23.9733 59.0434 23.6336 58.9738 23.2561 58.9738C22.8852 58.9738 22.5492 59.0431 22.2483 59.1818C21.9534 59.3167 21.6905 59.5122 21.477 59.7554C21.2615 60.0022 21.0911 60.2844 20.9733 60.5895C20.8495 60.9086 20.7871 61.248 20.7893 61.5901ZM17.4971 61.5901C17.4971 60.8187 17.622 60.1028 17.872 59.4427C18.1217 58.7822 18.4697 58.2143 18.9169 57.7384C19.3611 57.2644 19.8933 56.8803 20.4842 56.6074C21.0825 56.3294 21.73 56.1904 22.427 56.1904C23.2036 56.1904 23.8773 56.3538 24.4475 56.6801C25.0179 57.007 25.4466 57.4204 25.7335 57.9207V56.4509H29.0257V66.7398H25.7335V65.2905C25.4745 65.7627 25.0578 66.1659 24.4843 66.4994C23.9106 66.8329 23.2245 67 22.427 67C21.7373 67 21.0915 66.861 20.4898 66.5829C19.8956 66.3105 19.3612 65.9244 18.9169 65.4467C18.47 64.9672 18.1217 64.3976 17.872 63.7371C17.622 63.077 17.4971 62.3611 17.4971 61.5897V61.5901ZM29.9009 58.6928V56.2789H31.4615V53.2426H34.6339V56.2789H36.904V58.6934H34.6339V62.3307C34.6339 62.7085 34.6677 63.009 34.7351 63.2322C34.8025 63.4555 34.8988 63.6308 35.024 63.7576C35.1475 63.884 35.3065 63.9702 35.4802 64.0049C35.6787 64.0447 35.8808 64.0636 36.0832 64.0614C36.218 64.0614 36.3907 64.0564 36.6002 64.0459C36.8094 64.036 36.992 64.0168 37.1474 63.9891V66.5053C36.8533 66.5547 36.5575 66.5931 36.2605 66.6206C35.9059 66.6556 35.4885 66.6731 35.0087 66.6731C34.6146 66.6714 34.2211 66.6439 33.8306 66.5905C33.4189 66.5357 33.0256 66.3865 32.6818 66.1546C32.3291 65.9202 32.0376 65.5589 31.8075 65.0722C31.5767 64.5851 31.4615 63.9164 31.4615 63.0668V58.6931H29.9009V58.6928ZM38.2486 62.5288V56.4594H41.477V61.7006C41.477 62.4327 41.6072 63.028 41.8678 63.4874C42.1282 63.9464 42.5943 64.1762 43.2664 64.1762C43.9385 64.1762 44.4342 63.9431 44.753 63.4768C45.0717 63.0109 45.2311 62.3808 45.2311 61.5867V56.4594H48.4596V66.6829H45.2311V65.2223C44.9502 65.7609 44.5215 66.1823 43.9454 66.4861C43.3697 66.7899 42.6804 66.9418 41.8781 66.9418C41.1729 66.9418 40.5941 66.8311 40.1412 66.6102C39.6883 66.3893 39.3201 66.1099 39.0365 65.7715C38.7118 65.3775 38.4992 64.9218 38.399 64.4044C38.2987 63.8859 38.2486 63.2612 38.2486 62.5291V62.5288ZM49.7771 62.9657H52.9196C52.9196 63.4244 53.0697 63.7536 53.3699 63.9534C53.67 64.1532 54.0559 64.2533 54.5267 64.2533C54.9159 64.2533 55.2346 64.1879 55.4837 64.0565C55.7327 63.925 55.8575 63.7097 55.8575 63.4099C55.8575 63.2329 55.8044 63.0876 55.6988 62.9747C55.5929 62.8617 55.4309 62.7607 55.2124 62.6722C54.9377 62.5637 54.6589 62.4659 54.3766 62.379L53.1447 61.9893C52.736 61.8585 52.3314 61.7149 51.9318 61.5587C51.5532 61.4101 51.2202 61.2245 50.934 61.0029C50.6516 60.7869 50.4223 60.51 50.2633 60.1929C50.1029 59.8746 50.0229 59.48 50.0229 59.0094C50.0229 58.4692 50.1284 58.0023 50.34 57.6073C50.5509 57.2135 50.857 56.878 51.2308 56.6312C51.6127 56.375 52.0702 56.1828 52.6022 56.055C53.1344 55.9269 53.7212 55.8628 54.363 55.8628C55.1476 55.8628 55.8233 55.9526 56.3898 56.1326C56.9559 56.3129 57.4201 56.5586 57.7821 56.87C58.1433 57.1817 58.4113 57.5486 58.5856 57.9709C58.7593 58.3933 58.8466 58.8466 58.8466 59.3314H55.6835C55.6835 58.9087 55.576 58.5802 55.3608 58.3447C55.146 58.1093 54.8199 57.9914 54.3833 57.9914C54.0489 57.9914 53.7623 58.066 53.5233 58.2149C53.2845 58.3635 53.1653 58.5871 53.1653 58.8846C53.1653 59.0844 53.2218 59.2446 53.3347 59.3647C53.4476 59.4849 53.6129 59.5936 53.8317 59.6897C54.0509 59.7861 54.3202 59.8862 54.6416 59.9892L55.7463 60.3445C56.172 60.4543 56.592 60.5849 57.0047 60.7358C57.3932 60.8794 57.7362 61.0541 58.0328 61.2595C58.3248 61.4596 58.5665 61.724 58.739 62.0322C58.913 62.342 59 62.7353 59 63.2111C59 63.8395 58.8771 64.3744 58.6314 64.8163C58.3937 65.2493 58.0549 65.6193 57.6436 65.8951C57.2309 66.1725 56.7514 66.3716 56.2055 66.4921C55.6593 66.6126 55.0865 66.6727 54.4859 66.6727C52.9917 66.6727 51.8328 66.3561 51.0107 65.7227C50.1882 65.0894 49.7771 64.17 49.7771 62.9654" fill="black"/>
<circle cx="30.8302" cy="21.797" r="20.9637" fill="white"/>
<path fill-rule="evenodd" clip-rule="evenodd" d="M34.3663 21.6033C31.8537 21.7481 30.279 21.1628 27.7661 21.308C27.1428 21.343 26.5239 21.4333 25.9165 21.5779C26.2875 16.9308 29.5764 12.8655 34.0488 12.6071C36.7933 12.4488 39.5365 14.1433 39.6853 16.8941C39.8317 19.5978 37.7702 21.4067 34.3666 21.603L34.3663 21.6033ZM27.619 31.1089C24.9897 31.2574 22.3622 29.6711 22.2195 27.0969C22.0792 24.5665 24.0545 22.8736 27.315 22.6898C29.7218 22.5542 31.2305 23.1022 33.6373 22.9662C34.234 22.9335 34.8268 22.849 35.409 22.7136C35.0544 27.0627 31.9037 30.8675 27.619 31.1089ZM30.8302 0.833591C19.2521 0.833252 9.86646 10.2188 9.86646 21.797C9.86646 33.3752 19.2521 42.7607 30.8302 42.7607C42.4082 42.7607 51.7939 33.3748 51.7939 21.797C51.7939 10.2191 42.4082 0.833252 30.8302 0.833252" fill="#4360DF"/>
</svg>
