<svg width="68" height="90" viewBox="0 0 68 90" fill="none" xmlns="http://www.w3.org/2000/svg">
<g filter="url(#filter0_d)">
<rect x="16.7642" y="14.9243" width="34.2453" height="57.0755" rx="5" fill="white"/>
</g>
<rect x="19.8774" y="22.3613" width="28.0189" height="39.434" rx="4" fill="#ECEFFC"/>
<path d="M38.4351 35.5506C38.73 35.2605 39.2046 35.2605 39.4994 35.5506C40.3931 36.4302 41.0869 37.4578 41.5591 38.6037C42.0149 39.71 42.2462 40.8797 42.2462 42.0783C42.2462 43.2769 42.0149 44.4466 41.5591 45.5529C41.0869 46.6988 40.3931 47.7265 39.4994 48.606C39.2046 48.8961 38.73 48.8961 38.4352 48.6061C38.2867 48.4599 38.2106 48.2653 38.2106 48.0707C38.2106 47.8762 38.2865 47.6817 38.4351 47.5353C39.9185 46.0756 40.7327 44.1391 40.7327 42.0783C40.7327 40.0176 39.9185 38.0811 38.4351 36.6213C38.1359 36.3266 38.1357 35.8454 38.4351 35.5506Z" fill="#4360DF"/>
<path d="M25.753 38.6037C26.2253 37.4578 26.919 36.4302 27.8127 35.5506C28.1075 35.2605 28.5821 35.2605 28.8769 35.5506C29.0254 35.6968 29.1016 35.8913 29.1016 36.086C29.1016 36.2805 29.0256 36.475 28.877 36.6213C27.3936 38.081 26.5794 40.0175 26.5794 42.0783C26.5794 44.1391 27.3936 46.0756 28.877 47.5353C29.1763 47.83 29.1764 48.3112 28.877 48.606C28.5822 48.8961 28.1075 48.8961 27.8127 48.606C26.919 47.7265 26.2253 46.6988 25.753 45.5529C25.2972 44.4466 25.0659 43.2769 25.0659 42.0783C25.0659 40.8797 25.2972 39.71 25.753 38.6037Z" fill="#4360DF"/>
<path d="M30.264 44.924C29.517 44.198 29.1016 43.227 29.1016 42.1936C29.1016 41.1603 29.5169 40.1892 30.264 39.4632C30.5519 39.1834 31.0128 39.1834 31.3007 39.4632C31.5969 39.7511 31.597 40.2242 31.3007 40.5121C30.8351 40.9646 30.5827 41.5603 30.5827 42.1936C30.5827 42.8269 30.8352 43.4227 31.3008 43.8752C31.4468 44.0172 31.523 44.2076 31.523 44.3996C31.523 44.5915 31.447 44.7819 31.3008 44.924C31.0128 45.2038 30.552 45.2038 30.264 44.924Z" fill="#4360DF"/>
<path d="M37.0481 39.4633C37.7951 40.1893 38.2105 41.1604 38.2105 42.1937C38.2105 43.227 37.7952 44.1981 37.0481 44.9241C36.7602 45.2039 36.2993 45.2039 36.0114 44.9241C35.7152 44.6362 35.7151 44.1631 36.0114 43.8752C36.477 43.4227 36.7294 42.827 36.7294 42.1937C36.7294 41.5604 36.4769 40.9646 36.0113 40.5122C35.8653 40.3701 35.7891 40.1797 35.7891 39.9877C35.7891 39.7958 35.8651 39.6054 36.0113 39.4633C36.2993 39.1835 36.7601 39.1835 37.0481 39.4633Z" fill="#4360DF"/>
<path d="M33.656 43.289C32.988 43.289 32.4453 42.7463 32.4453 42.0783C32.4453 41.4102 32.988 40.8676 33.656 40.8676C34.3241 40.8676 34.8667 41.4102 34.8667 42.0783C34.8667 42.7463 34.3241 43.289 33.656 43.289Z" fill="#4360DF"/>
<circle cx="33.8868" cy="66.8111" r="2.59434" fill="#ECEFFC"/>
<rect x="29.7358" y="18.0376" width="8.30189" height="2.07547" rx="1.03774" fill="#ECEFFC"/>
<defs>
<filter id="filter0_d" x="0.76416" y="0.924316" width="66.2453" height="89.0755" filterUnits="userSpaceOnUse" color-interpolation-filters="sRGB">
<feFlood flood-opacity="0" result="BackgroundImageFix"/>
<feColorMatrix in="SourceAlpha" type="matrix" values="0 0 0 0 0 0 0 0 0 0 0 0 0 0 0 0 0 0 127 0"/>
<feOffset dy="2"/>
<feGaussianBlur stdDeviation="8"/>
<feColorMatrix type="matrix" values="0 0 0 0 0 0 0 0 0 0.0333333 0 0 0 0 0.1 0 0 0 0.1 0"/>
<feBlend mode="normal" in2="BackgroundImageFix" result="effect1_dropShadow"/>
<feBlend mode="normal" in="SourceGraphic" in2="effect1_dropShadow" result="shape"/>
</filter>
</defs>
</svg>
