<svg xmlns="http://www.w3.org/2000/svg" width="136" height="50" viewBox="0 0 136 50"><g><g clip-path="url(#clip-3A3D2D67-335D-4159-B914-F7C10246F66B)"><path fill="#140027" d="M8.61 36.26l-3.071-1.872c-7.399-4.287-7.382-14.976.03-19.24L25.124 3.783l.001-.002 3.67-2.285c7.412-4.264 16.66 1.095 16.647 9.646l-.006 21.118-.02 5.724c-.03 8.597-9.431 14.14-16.845 9.843L8.61 36.26zm7.324-12.573c1.422 1.411 3.929 2.763 7.854 3.821a1.661 1.661 0 1 1-.865 3.208c-4.19-1.13-7.326-2.683-9.33-4.671-2.074-2.059-2.885-4.549-2.401-7.208.133-.732.361-1.461.674-2.185L7.785 19c-4.447 2.558-4.458 8.972-.018 11.544l8.886 5.158-1.222.085 1.221-.085 3.283 1.863c.642.243 1.264.454 1.864.633 2.867.852 5.094.923 6.664.42 1.46-.468 2.514-1.479 3.062-3.302.576-1.919.59-4.767-.323-8.728a1.661 1.661 0 1 1 3.237-.746c.974 4.228 1.08 7.727.267 10.43-.84 2.799-2.656 4.686-5.23 5.51-.48.154-.98.268-1.497.346l2.93 1.663c4.449 2.577 10.032-.648 10.05-5.806l.04-11.754 4.308 5.854-4.308-5.855v-1.358 1.135a29.685 29.685 0 0 0-.832-3.975c-.778-2.83-1.854-4.635-2.99-5.599-1.02-.865-2.241-1.193-3.912-.738-1.8.49-4.142 1.91-6.988 4.747a2.222 2.222 0 0 1-3.137-3.147c3.106-3.096 6.102-5.11 8.959-5.888 2.986-.812 5.74-.238 7.952 1.638.327.277.653.58.947.903v-2.813c.008-5.13-5.54-8.346-9.988-5.788l-9.048 5.498-2.267 1.304a27.593 27.593 0 0 0-1.728 1.6c-2.102 2.13-3.212 4.061-3.506 5.683-.275 1.509.122 2.914 1.473 4.255zm99.643 4.671c0 1.899.419 3.596 1.255 5.093.873 1.46 2 2.629 3.384 3.505 1.418.84 2.928 1.26 4.528 1.26 1.819 0 3.402-.475 4.748-1.424 1.346-.95 2.437-1.935 3.274-2.957l3.11 3.833c-.691.986-1.637 1.917-2.837 2.793-1.201.84-2.565 1.533-4.093 2.08a15.031 15.031 0 0 1-4.802.767c-2.62 0-4.983-.657-7.093-1.971-2.11-1.314-3.784-3.103-5.02-5.367-1.201-2.263-1.801-4.8-1.801-7.612 0-2.847.6-5.384 1.8-7.611 1.237-2.264 2.91-4.053 5.02-5.367 2.11-1.314 4.475-1.971 7.094-1.971 2.656 0 5.02.547 7.094 1.642 2.073 1.059 3.619 2.446 4.638 4.162l-3.11 3.834c-.837-1.242-2.037-2.3-3.602-3.177-1.528-.912-3.02-1.369-4.474-1.369-1.71 0-3.256.438-4.638 1.315-1.383.84-2.474 2.008-3.274 3.504-.8 1.46-1.201 3.14-1.201 5.038zm-8.265-14.347v28.75h-5.675v-4.436c-.873 1.205-2.165 2.337-3.874 3.395-1.71 1.059-3.693 1.588-5.948 1.588-2.401 0-4.602-.639-6.603-1.916-1.964-1.278-3.528-3.049-4.692-5.312-1.165-2.264-1.747-4.856-1.747-7.776 0-2.921.6-5.495 1.801-7.722 1.2-2.263 2.856-4.016 4.966-5.257 2.11-1.278 4.51-1.917 7.202-1.917 2.001 0 3.747.439 5.239 1.315 1.528.876 2.746 1.898 3.656 3.066v-3.778zM93.124 38.106c1.746 0 3.275-.42 4.584-1.26 1.31-.876 2.328-2.044 3.056-3.504.727-1.497 1.09-3.176 1.09-5.038 0-1.826-.363-3.469-1.09-4.929-.728-1.46-1.746-2.61-3.056-3.45-1.31-.876-2.838-1.314-4.584-1.314-1.673 0-3.165.42-4.474 1.26-1.31.839-2.328 1.989-3.056 3.45-.727 1.46-1.091 3.12-1.091 4.983 0 1.862.364 3.54 1.091 5.038.728 1.46 1.746 2.628 3.056 3.504 1.31.84 2.8 1.26 4.474 1.26zM59.388 14.011v21.448l8.103-11.18L75.05 14.01h6.238l-9.994 14.375-10.45 14.375h-6.766V14.01z"/></g></g></svg>