<svg xmlns="http://www.w3.org/2000/svg" width="231" height="36" viewBox="0 0 231 36"><g><g clip-path="url(#clip-2F69E47F-9ECB-43A4-80D3-1F82B066579D)"><path fill="#5a2000" d="M226.523 16.918c-.454-3.076-3.174-4.443-6.292-4.557-3.23-.114-5.667 1.367-5.667 3.474 0 1.71 1.303 2.678 3.684 3.361 1.247.399 2.777.798 4.987 1.367 4.818 1.253 7.765 3.133 7.765 7.348 0 5.24-4.307 8.089-10.145 8.089-5.781 0-10.315-2.335-11.392-7.747l4.364-.74c.793 3.246 3.854 4.614 7.198 4.614 3.06 0 5.554-1.368 5.554-3.988 0-2.392-1.87-3.133-4.477-3.873a474.307 474.307 0 0 1-5.555-1.595c-3.57-1.025-6.29-2.905-6.29-6.665 0-4.955 4.76-7.462 9.861-7.462 5.781 0 10.202 2.905 10.769 7.576zm-22.331-7.633v25.918h-3.854v-3.361a9.557 9.557 0 0 1-1.02 1.196c-1.7 1.823-4.195 2.677-6.519 2.791-2.663.171-5.384-.285-7.65-2.221-3.402-2.735-3.798-7.292-3.742-11.792V9.285h4.308v12.474c0 3.646.453 6.893 2.72 8.716 1.247 1.025 2.89 1.48 4.761 1.367 1.587-.057 3.004-.57 4.138-1.538 1.133-.969 1.927-2.45 2.267-4.158.226-1.026.283-2.336.283-3.589V9.285zm-27.489 12.93c0 7.804-4.364 13.728-11.562 13.728-3.514 0-6.235-1.367-8.105-3.646v2.906h-3.854V.627h4.308V11.62c1.87-1.993 4.42-3.076 7.594-3.076 7.198 0 11.62 5.867 11.62 13.671zm-4.534 0c0-5.468-2.437-9.74-7.708-9.74-5.044 0-7.425 4.044-7.425 9.74 0 5.696 2.324 9.798 7.538 9.798 5.101 0 7.595-4.272 7.595-9.798zm-25.165-2.962l-.056 15.95h-4.251l.056-15.722c0-2.62-.17-4.158-1.927-5.696-.963-.912-2.323-1.424-3.627-1.424-1.7 0-3.287.74-4.364 1.993-1.077 1.368-1.304 2.735-1.304 4.33v.57l-.056 15.949h-4.251l.057-15.722c0-2.62-.17-4.158-1.927-5.696-.964-.912-2.324-1.424-3.628-1.424-1.7 0-3.287.74-4.364 1.993-1.077 1.368-1.304 2.735-1.304 4.33v16.519h-4.307V9.285h3.854v2.791c1.7-2.222 4.42-3.475 7.198-3.475 1.984 0 4.308.57 5.894 1.994a9.414 9.414 0 0 1 1.814 2.278l.17-.341c1.7-2.507 4.534-3.93 7.538-3.93 1.984 0 4.308.569 5.895 1.993 2.777 2.392 2.89 5.013 2.89 8.658zM104.61 0v4.443h-4.251V0zm-4.251 9.285h4.25v25.918h-4.25zM93.67 22.614v12.589h-4.308V22.785c0-3.703-.396-6.893-2.663-8.715-1.247-1.026-2.89-1.481-4.761-1.424-1.53.113-2.948.57-4.081 1.538-1.19 1.025-1.984 2.506-2.267 4.158-.34 1.538-.34 3.531-.34 5.468v11.393H71V9.285h3.797v3.418c.284-.456.68-.798 1.077-1.254 1.7-1.822 4.138-2.677 6.518-2.79 2.607-.172 5.384.284 7.652 2.22 3.287 2.735 3.684 7.292 3.627 11.735z"/></g><g clip-path="url(#clip-2F69E47F-9ECB-43A4-80D3-1F82B066579D)"><path fill="#5a2000" d="M44.334 16.256l-2.312-.212c.036-.249.036-.497.036-.78 0-4.61-3.83-8.37-8.527-8.37V4.59c5.998 0 10.875 4.787 10.875 10.674 0 .319-.036.673-.072.992zm10.041 9.882h-2.31c0-1.703-1.422-3.087-3.127-3.087v-2.307c2.985 0 5.437 2.413 5.437 5.394zM9.969 32.41c-3.516 0-6.344-2.836-6.344-6.282h2.356c0 2.19 1.777 3.949 3.988 3.949zm38.474-15.209h-.146c.036-.469.073-.974.073-1.443C48.37 7.603 41.67 1 33.394 1c-6.115 0-11.388 3.644-13.695 8.84a7.134 7.134 0 0 0-4.613-1.66c-3.955 0-7.14 3.14-7.14 7.036 0 .217 0 .433.036.65C3.405 16.912 0 20.954 0 25.789 0 31.418 4.65 36 10.362 36h38.081c.293 0 .586 0 .842-.036C54.192 35.53 58 31.49 58 26.582c0-5.16-4.284-9.381-9.557-9.381z"/></g></g></svg>