<svg xmlns="http://www.w3.org/2000/svg" width="204" height="73" viewBox="0 0 204 73"><g><g clip-path="url(#clip-1151B27F-1315-48B4-AD05-5BADE37E9844)"><g><path fill="#0b476d" d="M11.1 20.15L1.8 36.2c-2.4 4.2-2.4 9.45 0 13.65l9.3 16.05c2.4 4.2 6.9 6.75 11.85 6.75H41.4c4.95 0 9.45-2.55 11.85-6.9L62.4 49.7c2.4-4.2 2.4-9.45 0-13.65L53.1 20c-2.4-4.2-6.9-6.75-11.85-6.75H22.8c-4.8 0-9.3 2.7-11.7 6.9z"/></g><g><path fill="#fab266" d="M20.995 29.15s-4.2 7.05-3.9 9.6c.6 4.8 3.9 18.45 3.9 18.45h1.05l2.85-12.3c-.15 0-2.85-5.4-3.9-15.75z"/></g><g><path fill="#f1645d" d="M44.25 29.3s4.2 7.05 3.9 9.6c-.6 4.8-3.9 18.45-3.9 18.45H43.2l-2.85-12.3c.15 0 3-5.4 3.9-15.75z"/></g><g><path fill="#398689" d="M32.7.2c23.55 27.15 4.2 52.05 4.2 52.05h-4.2z"/></g><g><path fill="#78be97" d="M32.699.05c-23.55 27.15-4.2 52.05-4.2 52.05h4.2z"/></g><g><path fill="#fff" d="M76.35 59.9V33.65h16.2v3.75h-12.3v7.2h7.95v3.75h-7.95v7.95h13.2v3.75h-17.1z"/></g><g><path fill="#fff" d="M121.05 59.9V48.35c0-3-1.2-4.5-3.45-4.5-1.05 0-1.95.45-2.7 1.2-.75.75-1.05 1.95-1.05 3.45v11.25h-3.9V48.2c0-3-1.2-4.5-3.45-4.5-1.05 0-1.95.45-2.7 1.2-.75.75-1.05 1.95-1.05 3.45V59.6h-3.9V40.7h3.9v1.8c1.05-1.5 2.7-2.25 4.8-2.25 2.4 0 4.05.9 5.1 2.7 1.2-1.8 3-2.7 5.7-2.7 2.1 0 3.75.6 4.95 1.8 1.2 1.2 1.95 3 1.95 5.4v12.3h-4.2z"/></g><g><path fill="#fff" d="M134.55 54.5v-8.4c.45-.6.9-1.05 1.65-1.5.75-.45 1.5-.6 2.4-.6 1.35 0 2.55.6 3.3 1.65.75 1.05 1.2 2.55 1.2 4.65 0 1.95-.45 3.45-1.2 4.65-.75 1.05-1.8 1.65-3.3 1.65-1.8 0-3.15-.75-4.05-2.1zm10.35 3.15c1.35-1.8 2.1-4.35 2.1-7.5 0-3.15-.75-5.55-2.25-7.35-1.35-1.8-3.3-2.7-5.7-2.7-1.8 0-3.3.6-4.5 1.95v-9.3l-3.9 1.8V59.9h3.9v-1.5c1.2 1.35 2.7 1.95 4.5 1.95 2.4 0 4.35-.9 5.85-2.7z"/></g><g><path fill="#fff" d="M155.55 56c-.75-.45-1.05-1.2-1.05-2.1 0-1.05.45-1.8 1.2-2.25.75-.45 1.8-.75 3-.75 1.5 0 2.85.3 4.05.9v3c-1.2 1.35-2.7 2.1-4.5 2.1-1.2 0-2.1-.3-2.7-.9zm7.2 4.05h3.45V47.6c0-1.5-.15-2.7-.6-3.75-.45-1.05-1.05-1.8-1.8-2.25-.75-.45-1.5-.75-2.25-.9-.75-.15-1.65-.3-2.55-.3-2.85 0-5.25.6-7.2 1.95l1.2 3.15c1.65-1.2 3.45-1.8 5.55-1.8 1.5 0 2.55.3 3.15.9.6.6.9 1.65.9 3v1.05c-1.2-.9-2.85-1.2-4.65-1.2-2.1 0-3.9.45-5.25 1.65s-2.1 2.7-2.1 4.8c0 2.1.75 3.75 1.95 4.8 1.35 1.05 3 1.65 4.95 1.65 2.1 0 3.9-.75 5.25-2.1z"/></g><g><path fill="#fff" d="M172.05 59.9V40.7h3.9v2.4c.9-1.8 2.25-2.85 4.35-2.85 1.2 0 2.25.45 3.15 1.2l-.6 3.6c-.9-.6-1.95-.9-3-.9s-1.95.45-2.7 1.2c-.75.75-1.2 2.1-1.2 3.9v10.8h-3.9z"/></g><g><path fill="#fff" d="M203.25 59.9h-4.2l-5.7-10.95-2.55 2.4v8.55h-3.9V34.7l3.9-1.8v13.8l5.7-6h4.8l-5.25 5.4z"/></g><g><path fill="#9bdcd9" d="M51.45 68c-.15-.15-.3-.45-.45-.6-.6-.45-1.2-.6-1.95-.3-.3-.9-1.05-1.8-2.1-1.8-.75 0-1.35.3-1.8.75-.75-1.05-2.1-1.95-3.6-1.95h-.3c-.3-1.35-1.2-2.4-2.25-3.15-2.1-2.25-2.1-8.85-2.1-8.85h-8.7s-.15 6.6-2.25 8.85c-.9.6-1.5 1.5-1.8 2.4-.6-.3-1.2-.45-1.95-.6-2.1-.15-4.05 1.2-4.8 3.15-.3-.15-.6-.15-.9-.15-.9 0-1.8.45-2.25 1.2-.15-.15-.45-.15-.75-.15-.6 0-1.2.3-1.5.75.9 1.05 1.8 1.8 2.85 2.55.6.45 1.2.75 1.8 1.05.6.3 1.2.45 1.65.75.15 0 .15 0 .3.15.45.15 1.05.3 1.65.3h.3c.6.15 1.35.15 1.95.15h18.45c.6 0 1.2 0 1.95-.15h.15c1.8-.3 3.6-.9 5.1-1.95 1.5-.6 2.4-1.35 3.3-2.4z"/></g><g><path fill="#d7f1f0" d="M22.95 72.65H41.4c1.5 0 3-.3 4.35-.75-.6-1.2-3.3-3-4.35-3.45-3.3-1.2-1.95-4.95-5.25-4.95-2.1 0-3-6.15-3-6.15H32.1s-.75 6-2.85 5.85c-4.2-.15-1.5 4.2-6.45 5.55-3.15.9-4.2 2.1-4.35 3 1.35.45 2.85.9 4.5.9z"/></g><g><path fill="#fab266" d="M32.698 27.35s-5.25 6-4.65 8.85c.9 4.8 4.2 21 4.2 21h.45z"/></g><g><path fill="#f1645d" d="M32.7 27.5s5.25 6 4.65 8.85c-.9 4.8-4.2 21-4.2 21h-.45z"/></g></g></g></svg>