<svg width="56" height="56" viewBox="0 0 56 56" fill="none" xmlns="http://www.w3.org/2000/svg">
<path d="M4 28C4 18.6112 11.6112 11 21 11H35C44.9411 11 53 19.0589 53 29V43C53 44.1046 52.1046 45 51 45H21C11.6112 45 4 37.3888 4 28Z" fill="black"/>
<path d="M35.981 26.4104H34.7054V22.5835C34.7054 19.7771 32.4092 17.481 29.6028 17.481C26.7964 17.481 24.5003 19.7771 24.5003 22.5835V26.4104H23.2246C22.5868 26.4104 21.949 27.0483 21.949 27.6861V36.6156C21.949 37.2534 22.5868 37.8912 23.2246 37.8912H35.981C36.6188 37.8912 37.2567 37.2534 37.2567 36.6156V27.6861C37.2567 27.0483 36.6188 26.4104 35.981 26.4104ZM30.8785 35.3399H28.3272L28.8374 32.5335C28.1996 32.2784 27.6894 31.513 27.6894 30.8752C27.6894 29.8547 28.5823 28.9617 29.6028 28.9617C30.6233 28.9617 31.5163 29.8547 31.5163 30.8752C31.5163 31.6406 31.1336 32.2784 30.3682 32.5335L30.8785 35.3399ZM32.1541 26.4104H27.0515V22.5835C27.0515 21.1803 28.1996 20.0322 29.6028 20.0322C31.006 20.0322 32.1541 21.1803 32.1541 22.5835V26.4104Z" fill="white"/>
</svg>
