<svg width="56" height="56" viewBox="0 0 56 56" fill="none" xmlns="http://www.w3.org/2000/svg">
<g clip-path="url(#clip0)">
<path d="M39.9998 35.9999H38.6292C38.5478 35.6679 38.3078 35.3906 37.9718 35.2839C35.4092 34.4666 32.5918 34.4666 30.0292 35.2839C29.6932 35.3906 29.4532 35.6679 29.3718 35.9999H26.6292C26.5478 35.6679 26.3078 35.3906 25.9718 35.2839C23.4092 34.4666 20.5918 34.4666 18.0292 35.2839C17.6918 35.3906 17.4532 35.6679 17.3718 35.9999H15.9998C15.2625 35.9999 14.6665 36.5972 14.6665 37.3332C14.6665 38.0692 15.2625 38.6666 15.9998 38.6666H17.3332V38.9346C17.3332 40.5786 18.5465 41.9639 20.2185 42.2319L22.6625 42.6212C22.8505 42.6519 23.0385 42.6666 23.2265 42.6666C24.0572 42.6666 24.8625 42.3746 25.4972 41.8332C26.2412 41.1986 26.6665 40.2852 26.6665 39.3252V38.6666H29.3332V39.3252C29.3332 40.2852 29.7585 41.1986 30.5025 41.8332C31.1385 42.3746 31.9425 42.6666 32.7732 42.6666C32.9612 42.6666 33.1492 42.6519 33.3372 42.6212L35.7812 42.2319C37.4532 41.9652 38.6665 40.5786 38.6665 38.9346V38.6666H39.9998C40.7372 38.6666 41.3332 38.0692 41.3332 37.3332C41.3332 36.5972 40.7372 35.9999 39.9998 35.9999Z" fill="black"/>
<path d="M34.6667 21.8225V19.9132C34.6667 18.6425 34.0267 17.4812 32.9533 16.8038C31.8787 16.1265 30.5573 16.0505 29.4133 16.6012L29 16.7198C29 15.5878 28.08 14.6665 26.9493 14.6665H25C22.9773 14.6665 21.3333 16.3145 21.3333 18.3398V21.8225C15.8293 22.6665 12 24.5145 12 26.6665C12 29.6118 19.164 31.9998 28 31.9998C36.836 31.9998 44 29.6118 44 26.6665C44 24.5145 40.1707 22.6665 34.6667 21.8225Z" fill="black"/>
</g>
<defs>
<clipPath id="clip0">
<rect width="32" height="32" fill="white" transform="translate(12 12)"/>
</clipPath>
</defs>
</svg>
