<svg width="24" height="36" viewBox="0 0 24 36" fill="none" xmlns="http://www.w3.org/2000/svg">
<path d="M19.5 0.0510254H4.5C3.30653 0.0510254 2.16193 0.525131 1.31802 1.36905C0.474106 2.21296 0 3.35755 0 4.55103V31.449C0 32.6425 0.474106 33.7871 1.31802 34.631C2.16193 35.4749 3.30653 35.949 4.5 35.949H19.5C20.6935 35.949 21.8381 35.4749 22.682 34.631C23.5259 33.7871 24 32.6425 24 31.449V4.55103C24 3.35755 23.5259 2.21296 22.682 1.36905C21.8381 0.525131 20.6935 0.0510254 19.5 0.0510254ZM12 33.699C11.7033 33.699 11.4133 33.6111 11.1666 33.4462C10.92 33.2814 10.7277 33.0471 10.6142 32.7731C10.5006 32.499 10.4709 32.1974 10.5288 31.9064C10.5867 31.6154 10.7296 31.3481 10.9393 31.1384C11.1491 30.9286 11.4164 30.7857 11.7074 30.7278C11.9983 30.67 12.2999 30.6997 12.574 30.8132C12.8481 30.9267 13.0824 31.119 13.2472 31.3657C13.412 31.6123 13.5 31.9024 13.5 32.199C13.5 32.5969 13.342 32.9784 13.0607 33.2597C12.7794 33.541 12.3978 33.699 12 33.699ZM21 26.949C21 27.3469 20.842 27.7284 20.5607 28.0097C20.2794 28.291 19.8978 28.449 19.5 28.449H4.5C4.10217 28.449 3.72064 28.291 3.43934 28.0097C3.15804 27.7284 3 27.3469 3 26.949V5.30103C3 4.9032 3.15804 4.52167 3.43934 4.24037C3.72064 3.95906 4.10217 3.80103 4.5 3.80103H19.5C19.8978 3.80103 20.2794 3.95906 20.5607 4.24037C20.842 4.52167 21 4.9032 21 5.30103V26.949Z" fill="white"/>
</svg>
