<svg width="50" height="50" viewBox="0 0 50 50" fill="none" xmlns="http://www.w3.org/2000/svg">
<path fill-rule="evenodd" clip-rule="evenodd" d="M25 50C38.8071 50 50 38.8071 50 25C50 11.1929 38.8071 0 25 0C11.1929 0 0 11.1929 0 25C0 38.8071 11.1929 50 25 50Z" fill="black"/>
<path d="M39 18.1656V32.1645C39 33.3539 38.0358 34.3182 36.8464 34.3182H13.156C11.9666 34.3182 11.0023 33.3539 11.0023 32.1645V18.1656" stroke="white" stroke-width="2" stroke-linecap="round" stroke-linejoin="round"/>
<path fill-rule="evenodd" clip-rule="evenodd" d="M39 18.1657V17.0889C39 15.8994 38.0358 14.9352 36.8464 14.9352H13.156C11.9666 14.9352 11.0023 15.8994 11.0023 17.0889V18.1657L23.289 25.1716C24.3366 25.8263 25.6658 25.8263 26.7133 25.1716L39 18.1657Z" stroke="white" stroke-width="2" stroke-linecap="round" stroke-linejoin="round"/>
<path d="M39.3571 9.28188C39.7329 8.90604 40.3423 8.90604 40.7181 9.28188C41.0776 9.64138 41.0933 10.2145 40.765 10.5926L40.7181 10.6429L10.6429 40.7181C10.2671 41.094 9.65772 41.094 9.28188 40.7181C8.92238 40.3586 8.90675 39.7855 9.23499 39.4074L9.28188 39.3571L39.3571 9.28188Z" fill="white"/>
</svg>
