<svg width="50" height="50" viewBox="0 0 50 50" fill="none" xmlns="http://www.w3.org/2000/svg">
<path fill-rule="evenodd" clip-rule="evenodd" d="M25 50C38.8071 50 50 38.8071 50 25C50 11.1929 38.8071 0 25 0C11.1929 0 0 11.1929 0 25C0 38.8071 11.1929 50 25 50Z" fill="black"/>
<path d="M22.6084 21.2028C22.0383 20.5312 21.4871 19.8537 20.9548 19.1703L22.0402 18.0496C23.2307 16.9324 23.3268 15.0309 22.2554 13.7914L19.3296 10.7709C18.1315 9.66105 16.2914 9.7614 15.2128 10.9955L13.4309 12.8366C11.9043 14.3093 11.5573 16.6746 12.5928 18.5495C14.1962 21.1753 15.9968 23.6665 17.9781 26" stroke="white" stroke-width="2" stroke-linecap="round" stroke-linejoin="round"/>
<path d="M24 32.0207C26.3324 34.0032 28.8233 35.8042 31.4494 37.4069C33.3242 38.4423 35.6892 38.0961 37.1629 36.5706L39.0043 34.7884C40.2387 33.7089 40.339 31.8679 39.2288 30.669L36.2022 27.7446C34.9631 26.6732 33.0621 26.7693 31.9454 27.9598L30.8246 29.0435C30.1411 28.5149 29.4629 27.9636 28.7899 27.3897" stroke="white" stroke-width="2" stroke-linecap="round" stroke-linejoin="round"/>
<path d="M39.3571 9.28188C39.7329 8.90604 40.3423 8.90604 40.7181 9.28188C41.0776 9.64138 41.0933 10.2145 40.765 10.5926L40.7181 10.6429L10.6429 40.7181C10.2671 41.094 9.65772 41.094 9.28188 40.7181C8.92238 40.3586 8.90675 39.7855 9.23499 39.4074L9.28188 39.3571L39.3571 9.28188Z" fill="white"/>
</svg>
