<svg width="30" height="30" viewBox="0 0 30 30" fill="none" xmlns="http://www.w3.org/2000/svg">
<path d="M22.5 13.5H21C21 13.5 21.3 13.5 18 13.5C14.7 13.5 9 13.5 9 13.5H7.5C6.75 13.5 6 14.25 6 15V25.5C6 26.25 6.75 27 7.5 27H22.5C23.25 27 24 26.25 24 25.5V15C24 14.25 23.25 13.5 22.5 13.5ZM16.5 24H13.5L14.1 20.7C13.35 20.4 12.75 19.5 12.75 18.75C12.75 17.55 13.8 16.5 15 16.5C16.2 16.5 17.25 17.55 17.25 18.75C17.25 19.65 16.8 20.4 15.9 20.7L16.5 24ZM18 13.5L12 13.5C13.65 13.5 18 13.5 18 13.5Z" fill="white"/>
</svg>
