<svg width="41" height="41" viewBox="0 0 41 41" fill="none" xmlns="http://www.w3.org/2000/svg">
<g clip-path="url(#clip0)">
<path d="M41 20.5C41 9.17816 31.8218 -1.39098e-06 20.5 -8.96083e-07C9.17816 -4.0119e-07 -1.39098e-06 9.17816 -8.96083e-07 20.5C-4.0119e-07 31.8218 9.17816 41 20.5 41C31.8218 41 41 31.8218 41 20.5Z" fill="#4360DF"/>
<path fill-rule="evenodd" clip-rule="evenodd" d="M17.5004 16.503L17.5252 18.3897C14.8483 19.578 12.9978 22.2707 13.0375 25.387C13.0937 29.5646 16.5248 32.9134 20.7017 32.8672C24.8785 32.821 28.22 29.3973 28.1647 25.2206C28.1235 22.1336 26.234 19.5082 23.5663 18.362L23.427 7.87771L20.3663 4.89052L17.3855 7.94472L17.4197 10.4626L19.12 12.122L17.7959 13.4787L19.1563 14.8065L17.5004 16.503ZM19.7189 26.4533C20.2963 26.9063 21.1334 26.8593 21.6571 26.3227C22.2175 25.743 22.2055 24.8237 21.6312 24.2632C21.0549 23.7007 20.1305 23.7128 19.5702 24.2924L19.4661 24.4113C19.016 24.9857 19.0615 25.8237 19.5994 26.3486L19.7189 26.4533Z" fill="white"/>
</g>
<defs>
<clipPath id="clip0">
<rect width="41" height="41" fill="white" transform="translate(0 41) rotate(-90)"/>
</clipPath>
</defs>
</svg>
