<svg width="26" height="26" class="text-black rounded w-10 h-10 bg-gray-light fill-current" viewBox="0 0 26 26" fill="none" xmlns="http://www.w3.org/2000/svg">
    <g opacity="0.5" class="hover:opacity-100">
    <rect width="26" height="26" rx="2" fill="white"></rect>
    <path style="fill: black" d="M21.9998 13.2212C21.9859 12.836 21.8622 12.4631 21.6438 12.1474C21.4253 11.8318 21.1214 11.5868 20.7686 11.4422C20.4158 11.2975 20.0292 11.2593 19.6554 11.3321C19.2817 11.405 18.9367 11.5857 18.6621 11.8527C17.1249 10.7944 15.3179 10.2097 13.4596 10.1693L14.338 5.89943L17.2297 6.51528C17.2641 6.83891 17.4113 7.13955 17.6448 7.36321C17.8783 7.58688 18.1829 7.71892 18.5038 7.73565C18.8248 7.75237 19.1412 7.65268 19.3961 7.45447C19.651 7.25626 19.8279 6.9725 19.8949 6.65414C19.9619 6.33579 19.9146 6.00367 19.7616 5.71741C19.6086 5.43115 19.3599 5.20949 19.0601 5.09222C18.7603 4.97496 18.429 4.96976 18.1257 5.07757C17.8225 5.18538 17.5671 5.39913 17.4054 5.68045L14.0947 5.00985C14.0406 4.99782 13.9846 4.9968 13.9301 5.00683C13.8755 5.01687 13.8235 5.03777 13.777 5.06832C13.7305 5.09887 13.6904 5.13847 13.6592 5.18482C13.6279 5.23116 13.606 5.28334 13.5948 5.33831L12.5948 10.0872C10.7137 10.1159 8.88184 10.7011 7.32479 11.7706C7.11648 11.5721 6.86805 11.4218 6.5967 11.3302C6.32535 11.2386 6.03758 11.2079 5.75333 11.2401C5.46908 11.2723 5.19515 11.3668 4.95053 11.5169C4.7059 11.667 4.49643 11.8692 4.33663 12.1094C4.17683 12.3497 4.07052 12.6223 4.02507 12.9083C3.97962 13.1943 3.99611 13.4869 4.07341 13.7658C4.15071 14.0447 4.28696 14.3032 4.47273 14.5235C4.65849 14.7438 4.88933 14.9205 5.14923 15.0415C5.13402 15.2419 5.13402 15.4432 5.14923 15.6436C5.14923 18.7092 8.67608 21.2 13.0272 21.2C17.3784 21.2 20.9052 18.7092 20.9052 15.6436C20.9204 15.4432 20.9204 15.2419 20.9052 15.0415C21.2387 14.8736 21.5184 14.6136 21.7121 14.2915C21.9058 13.9694 22.0055 13.5983 21.9998 13.2212ZM8.4869 14.5898C8.4869 14.3191 8.56615 14.0545 8.71463 13.8295C8.86311 13.6044 9.07416 13.429 9.32107 13.3254C9.56799 13.2218 9.83968 13.1947 10.1018 13.2475C10.3639 13.3003 10.6047 13.4307 10.7937 13.6221C10.9827 13.8135 11.1114 14.0573 11.1635 14.3228C11.2156 14.5883 11.1889 14.8635 11.0866 15.1136C10.9843 15.3636 10.8111 15.5774 10.5889 15.7277C10.3667 15.8781 10.1054 15.9584 9.83819 15.9584C9.66073 15.9584 9.48502 15.923 9.32107 15.8542C9.15713 15.7854 9.00816 15.6846 8.88268 15.5575C8.7572 15.4305 8.65767 15.2796 8.58976 15.1136C8.52185 14.9475 8.4869 14.7695 8.4869 14.5898ZM16.3379 18.3534C15.3792 19.0851 14.1996 19.4575 13.0002 19.4072C11.8008 19.4575 10.6212 19.0851 9.66252 18.3534C9.60506 18.2825 9.57569 18.1925 9.58013 18.1008C9.58458 18.0092 9.62251 17.9225 9.68656 17.8577C9.7506 17.7928 9.83618 17.7544 9.92665 17.7499C10.0171 17.7454 10.106 17.7751 10.176 17.8333C10.9884 18.4369 11.9801 18.7411 12.9867 18.6955C13.9945 18.751 14.9908 18.4565 15.8109 17.8607C15.8826 17.7899 15.9791 17.7509 16.0792 17.7522C16.1287 17.7528 16.1777 17.7633 16.2232 17.7831C16.2688 17.8029 16.31 17.8316 16.3446 17.8675C16.3792 17.9035 16.4065 17.946 16.4249 17.9926C16.4433 18.0392 16.4524 18.0891 16.4518 18.1393C16.4512 18.1894 16.4408 18.239 16.4212 18.2852C16.4017 18.3313 16.3734 18.3731 16.3379 18.4081V18.3534ZM16.0946 16.0131C15.8274 16.0131 15.5661 15.9329 15.3439 15.7825C15.1217 15.6321 14.9485 15.4184 14.8462 15.1683C14.7439 14.9182 14.7172 14.643 14.7693 14.3776C14.8215 14.1121 14.9502 13.8682 15.1391 13.6768C15.3281 13.4854 15.5689 13.3551 15.831 13.3023C16.0931 13.2495 16.3648 13.2766 16.6118 13.3802C16.8587 13.4837 17.0697 13.6592 17.2182 13.8842C17.3667 14.1093 17.4459 14.3739 17.4459 14.6446C17.4533 14.83 17.4233 15.015 17.3578 15.1883C17.2924 15.3617 17.1928 15.5197 17.0651 15.6528C16.9375 15.786 16.7844 15.8914 16.6152 15.9628C16.4461 16.0341 16.2644 16.0699 16.0811 16.0679L16.0946 16.0131Z" />
    </g>
</svg>