<svg width="26" height="26" class="text-black rounded w-10 h-10 bg-gray-light fill-current" viewBox="0 0 26 26" fill="none" xmlns="http://www.w3.org/2000/svg">
    <g opacity="0.5" class="hover:opacity-100">
    <rect width="26" height="26" rx="2" fill="white"></rect>
    <path style="fill: black" fill-rule="evenodd" clip-rule="evenodd" d="M19.232 9.056C19.8854 8.63145 20.3656 7.9874 20.586 7.24C19.987 7.62 19.325 7.89 18.631 8.036C18.0671 7.38246 17.2482 7.00471 16.385 7C14.685 7 13.307 8.469 13.307 10.282C13.307 10.533 13.334 10.784 13.388 11.029C10.83 10.893 8.562 9.587 7.044 7.601C6.76882 8.10728 6.62574 8.67477 6.628 9.251C6.628 10.389 7.17 11.394 7.996 11.982C7.50422 11.9649 7.02473 11.8239 6.602 11.572V11.613C6.602 13.203 7.664 14.53 9.072 14.831C8.62003 14.9617 8.14316 14.9813 7.682 14.888C8.073 16.192 9.21 17.14 10.557 17.167C9.2938 18.2353 7.64202 18.7279 6 18.526C7.38681 19.4836 9.03169 19.9976 10.717 20C16.377 20 19.473 15 19.473 10.662C19.473 10.52 19.47 10.378 19.464 10.238C20.0725 9.76702 20.5926 9.19176 21 8.539C20.4416 8.80337 19.8449 8.97785 19.232 9.056Z" />
    </g>
</svg>