<svg width="589" height="408" viewBox="0 0 589 408" fill="none" xmlns="http://www.w3.org/2000/svg">
<g clip-path="url(#clip0)">
<rect x="6" width="311" height="408" rx="11.6748" fill="white"/>
<g clip-path="url(#clip1)">
<rect width="310.023" height="152.118" transform="translate(6.21143 -31)" fill="white"/>
<path d="M28.9745 65.0464H25.6582L20.8763 68.1185V71.3126L25.3764 68.4379H25.4891V84.2866H28.9745V65.0464ZM40.3824 84.5497C44.4973 84.5497 47.4941 82.1916 47.4848 78.9411C47.4941 76.5361 45.991 74.8074 43.2947 74.4223V74.2719C45.3804 73.821 46.7802 72.2709 46.7708 70.1101C46.7802 67.179 44.2812 64.7834 40.4388 64.7834C36.6997 64.7834 33.8062 67.0099 33.731 70.2323H37.0849C37.1413 68.6164 38.6444 67.6112 40.42 67.6112C42.2144 67.6112 43.4075 68.7009 43.3981 70.3168C43.4075 71.9984 42.0171 73.1164 40.0254 73.1164H38.325V75.8033H40.0254C42.4586 75.8033 43.9054 77.0246 43.896 78.7626C43.9054 80.463 42.4304 81.6279 40.373 81.6279C38.4377 81.6279 36.944 80.6227 36.8594 79.0538H33.327C33.421 82.3044 36.3239 84.5497 40.3824 84.5497ZM49.9795 80.7167H59.158V84.2866H62.4837V80.7167H64.9451V77.8513H62.4837V65.0464H58.1434L49.9795 77.9452V80.7167ZM59.1956 77.8513H53.5495V77.701L59.0453 68.9922H59.1956V77.8513ZM68.269 84.2866H71.8859L80.0592 68.0245V65.0464H66.9537V67.9588H76.4517V68.0903L68.269 84.2866ZM81.5346 84.4933C82.6432 84.4933 83.5921 83.5726 83.6015 82.4265C83.5921 81.2991 82.6432 80.3785 81.5346 80.3785C80.3885 80.3785 79.4584 81.2991 79.4678 82.4265C79.4584 83.5726 80.3885 84.4933 81.5346 84.4933ZM92.6278 84.5497C96.7896 84.5497 99.7677 82.2574 99.7771 79.129C99.7677 76.7239 97.9922 74.7135 95.7562 74.3377V74.2062C97.7009 73.774 99.0537 72.0266 99.0631 69.941C99.0537 66.9817 96.3293 64.7834 92.6278 64.7834C88.8981 64.7834 86.1737 66.9723 86.1831 69.941C86.1737 72.0266 87.5077 73.774 89.49 74.2062V74.3377C87.2165 74.7135 85.4597 76.7239 85.4691 79.129C85.4597 82.2574 88.4284 84.5497 92.6278 84.5497ZM92.6278 81.8628C90.4483 81.8628 89.0391 80.6603 89.0579 78.8847C89.0391 77.0434 90.5516 75.7375 92.6278 75.7375C94.6758 75.7375 96.179 77.0528 96.1978 78.8847C96.179 80.6603 94.7792 81.8628 92.6278 81.8628ZM92.6278 73.0976C90.8428 73.0976 89.5652 71.9421 89.584 70.2698C89.5652 68.6164 90.8053 67.5078 92.6278 67.5078C94.4222 67.5078 95.6529 68.6164 95.6717 70.2698C95.6529 71.9515 94.3846 73.0976 92.6278 73.0976ZM103.188 84.2866H106.805L114.978 68.0245V65.0464H101.873V67.9588H111.371V68.0903L103.188 84.2866Z" fill="black"/>
<path d="M136.594 65.0464V77.7292C136.594 80.4254 134.442 81.938 131.849 81.938C129.275 81.938 127.115 80.4254 127.115 77.7292V65.0464H124.212V77.7761C124.212 82.1165 127.594 84.606 131.849 84.606C136.105 84.606 139.497 82.1165 139.497 77.7761V65.0464H136.594ZM153.829 70.1007H156.628C156.544 67.0193 153.819 64.7834 149.911 64.7834C146.05 64.7834 143.091 66.9911 143.091 70.3074C143.091 72.9849 145.007 74.5538 148.098 75.3899L150.371 76.01C152.429 76.5548 154.017 77.2313 154.017 78.9411C154.017 80.82 152.222 82.0601 149.751 82.0601C147.515 82.0601 145.655 81.0643 145.486 78.9693H142.574C142.762 82.4547 145.458 84.606 149.77 84.606C154.289 84.606 156.891 82.2292 156.891 78.9693C156.891 75.5026 153.8 74.1592 151.358 73.558L149.479 73.0694C147.976 72.6843 145.975 71.9797 145.984 70.1383C145.984 68.5036 147.478 67.2917 149.845 67.2917C152.053 67.2917 153.622 68.3251 153.829 70.1007ZM166.207 84.2866C172.069 84.2866 175.46 80.6509 175.46 74.6383C175.46 68.654 172.069 65.0464 166.404 65.0464H159.978V84.2866H166.207ZM162.881 81.7501V67.583H166.225C170.434 67.583 172.604 70.1007 172.604 74.6383C172.604 79.1947 170.434 81.7501 166.047 81.7501H162.881Z" fill="#939BA1"/>
<path d="M20.0379 95.6521H22.8739V103.702H23.966V95.6521H26.802V94.6833H20.0379V95.6521ZM30.1136 103.843C31.9456 103.843 33.1786 102.451 33.1786 100.355C33.1786 98.2415 31.9456 96.8499 30.1136 96.8499C28.2817 96.8499 27.0486 98.2415 27.0486 100.355C27.0486 102.451 28.2817 103.843 30.1136 103.843ZM30.1136 102.909C28.722 102.909 28.0879 101.712 28.0879 100.355C28.0879 98.999 28.722 97.7835 30.1136 97.7835C31.5052 97.7835 32.1393 98.999 32.1393 100.355C32.1393 101.712 31.5052 102.909 30.1136 102.909ZM37.7067 96.938H36.2623V95.3174H35.223V96.938H34.2014V97.8188H35.223V102.046C35.223 103.227 36.1742 103.79 37.055 103.79C37.4425 103.79 37.6891 103.72 37.8301 103.667L37.6187 102.733C37.5306 102.751 37.3897 102.786 37.1607 102.786C36.7027 102.786 36.2623 102.645 36.2623 101.765V97.8188H37.7067V96.938ZM41.2606 103.861C42.4408 103.861 43.0573 103.227 43.2687 102.786H43.3215V103.702H44.3608V99.2456C44.3608 97.0965 42.7226 96.8499 41.8595 96.8499C40.8378 96.8499 39.6752 97.2022 39.1468 98.4353L40.1332 98.7876C40.3622 98.2944 40.9039 97.7659 41.8947 97.7659C42.8503 97.7659 43.3215 98.2723 43.3215 99.1399V99.1751C43.3215 99.6771 42.8107 99.6331 41.5776 99.7916C40.3226 99.9546 38.953 100.232 38.953 101.782C38.953 103.103 39.9747 103.861 41.2606 103.861ZM41.4191 102.927C40.5912 102.927 39.9923 102.557 39.9923 101.835C39.9923 101.042 40.7145 100.796 41.5248 100.69C41.9652 100.637 43.1454 100.514 43.3215 100.302V101.254C43.3215 102.099 42.6521 102.927 41.4191 102.927ZM47.297 94.6833H46.2577V103.702H47.297V94.6833ZM58.2193 96.938H57.092L55.2248 102.328H55.1543L53.2872 96.938H52.1598L54.6611 103.702H55.718L58.2193 96.938ZM61.3757 103.861C62.5559 103.861 63.1724 103.227 63.3838 102.786H63.4367V103.702H64.4759V99.2456C64.4759 97.0965 62.8377 96.8499 61.9746 96.8499C60.9529 96.8499 59.7904 97.2022 59.2619 98.4353L60.2484 98.7876C60.4773 98.2944 61.019 97.7659 62.0098 97.7659C62.9655 97.7659 63.4367 98.2723 63.4367 99.1399V99.1751C63.4367 99.6771 62.9258 99.6331 61.6928 99.7916C60.4377 99.9546 59.0682 100.232 59.0682 101.782C59.0682 103.103 60.0898 103.861 61.3757 103.861ZM61.5342 102.927C60.7063 102.927 60.1074 102.557 60.1074 101.835C60.1074 101.042 60.8296 100.796 61.6399 100.69C62.0803 100.637 63.2605 100.514 63.4367 100.302V101.254C63.4367 102.099 62.7673 102.927 61.5342 102.927ZM67.4121 94.6833H66.3728V103.702H67.4121V94.6833ZM73.5784 100.937C73.5784 102.205 72.6096 102.786 71.8346 102.786C70.9714 102.786 70.3549 102.152 70.3549 101.166V96.938H69.3156V101.236C69.3156 102.962 70.2316 103.79 71.4999 103.79C72.5216 103.79 73.1909 103.244 73.508 102.557H73.5784V103.702H74.6177V96.938H73.5784V100.937ZM79.3572 103.843C80.7312 103.843 81.7353 103.156 82.0523 102.134L81.0483 101.853C80.7841 102.557 80.1719 102.909 79.3572 102.909C78.1374 102.909 77.2963 102.121 77.2479 100.672H82.158V100.232C82.158 97.7131 80.6608 96.8499 79.2516 96.8499C77.4196 96.8499 76.2042 98.2944 76.2042 100.373C76.2042 102.451 77.402 103.843 79.3572 103.843ZM77.2479 99.774C77.3183 98.7215 78.0626 97.7835 79.2516 97.7835C80.3789 97.7835 81.1011 98.629 81.1011 99.774H77.2479Z" fill="#939BA1"/>
<path d="M289.141 28.3756C289.141 29.2888 288.401 30.0291 287.488 30.0291C286.575 30.0291 285.834 29.2888 285.834 28.3756C285.834 27.4624 286.575 26.7222 287.488 26.7222C288.401 26.7222 289.141 27.4624 289.141 28.3756Z" fill="black"/>
<path d="M294.928 28.3756C294.928 29.2888 294.188 30.0291 293.275 30.0291C292.362 30.0291 291.622 29.2888 291.622 28.3756C291.622 27.4624 292.362 26.7222 293.275 26.7222C294.188 26.7222 294.928 27.4624 294.928 28.3756Z" fill="black"/>
<path d="M299.062 30.0291C299.975 30.0291 300.716 29.2888 300.716 28.3756C300.716 27.4624 299.975 26.7222 299.062 26.7222C298.149 26.7222 297.409 27.4624 297.409 28.3756C297.409 29.2888 298.149 30.0291 299.062 30.0291Z" fill="black"/>
<path fill-rule="evenodd" clip-rule="evenodd" d="M250.285 20.1084C249.372 20.1084 248.632 20.8487 248.632 21.7619V25.8955C248.632 26.8087 249.372 27.5489 250.285 27.5489H254.419C255.332 27.5489 256.072 26.8087 256.072 25.8955V21.7619C256.072 20.8487 255.332 20.1084 254.419 20.1084H250.285ZM254.419 21.3485H250.285C250.057 21.3485 249.872 21.5336 249.872 21.7619V25.8955C249.872 26.1238 250.057 26.3089 250.285 26.3089H254.419C254.647 26.3089 254.832 26.1238 254.832 25.8955V21.7619C254.832 21.5336 254.647 21.3485 254.419 21.3485Z" fill="black"/>
<path d="M252.352 31.6826C251.667 31.6826 251.112 32.2378 251.112 32.9227C251.112 33.6076 251.667 34.1628 252.352 34.1628C253.037 34.1628 253.592 33.6076 253.592 32.9227C253.592 32.2378 253.037 31.6826 252.352 31.6826Z" fill="black"/>
<path fill-rule="evenodd" clip-rule="evenodd" d="M252.352 29.2024C250.297 29.2024 248.632 30.868 248.632 32.9227C248.632 34.9773 250.297 36.6429 252.352 36.6429C254.407 36.6429 256.072 34.9773 256.072 32.9227C256.072 30.868 254.407 29.2024 252.352 29.2024ZM249.872 32.9227C249.872 34.2924 250.982 35.4029 252.352 35.4029C253.722 35.4029 254.832 34.2924 254.832 32.9227C254.832 31.5529 253.722 30.4425 252.352 30.4425C250.982 30.4425 249.872 31.5529 249.872 32.9227Z" fill="black"/>
<path d="M258.553 29.2024C258.096 29.2024 257.726 29.5725 257.726 30.0291V31.2692C257.726 31.7258 258.096 32.0959 258.553 32.0959H259.793C260.249 32.0959 260.619 31.7258 260.619 31.2692V30.0291C260.619 29.5725 260.249 29.2024 259.793 29.2024H258.553Z" fill="black"/>
<path d="M262.273 30.0291C262.273 29.5725 262.643 29.2024 263.1 29.2024H264.34C264.796 29.2024 265.166 29.5725 265.166 30.0291V31.2692C265.166 31.7258 264.796 32.0959 264.34 32.0959H263.1C262.643 32.0959 262.273 31.7258 262.273 31.2692V30.0291Z" fill="black"/>
<path d="M263.1 33.7494C262.643 33.7494 262.273 34.1195 262.273 34.5761V35.8162C262.273 36.2728 262.643 36.6429 263.1 36.6429H264.34C264.796 36.6429 265.166 36.2728 265.166 35.8162V34.5761C265.166 34.1195 264.796 33.7494 264.34 33.7494H263.1Z" fill="black"/>
<path d="M257.726 34.5761C257.726 34.1195 258.096 33.7494 258.553 33.7494H259.793C260.249 33.7494 260.619 34.1195 260.619 34.5761V35.8162C260.619 36.2728 260.249 36.6429 259.793 36.6429H258.553C258.096 36.6429 257.726 36.2728 257.726 35.8162V34.5761Z" fill="black"/>
<path d="M260.206 23.4153C260.206 22.9587 260.576 22.5886 261.033 22.5886H261.859C262.316 22.5886 262.686 22.9587 262.686 23.4153V24.242C262.686 24.6986 262.316 25.0688 261.859 25.0688H261.033C260.576 25.0688 260.206 24.6986 260.206 24.242V23.4153Z" fill="black"/>
<path fill-rule="evenodd" clip-rule="evenodd" d="M257.726 21.7619C257.726 20.8487 258.466 20.1084 259.379 20.1084H263.513C264.426 20.1084 265.166 20.8487 265.166 21.7619V25.8955C265.166 26.8087 264.426 27.5489 263.513 27.5489H259.379C258.466 27.5489 257.726 26.8087 257.726 25.8955V21.7619ZM259.379 21.3485H263.513C263.741 21.3485 263.926 21.5336 263.926 21.7619V25.8955C263.926 26.1238 263.741 26.3089 263.513 26.3089H259.379C259.151 26.3089 258.966 26.1238 258.966 25.8955V21.7619C258.966 21.5336 259.151 21.3485 259.379 21.3485Z" fill="black"/>
</g>
<g clip-path="url(#clip2)">
<rect width="310.023" height="52.9105" transform="translate(6.21143 296.384)" fill="white"/>
<g clip-path="url(#clip3)">
<path d="M35.9735 339.419C45.1053 339.419 52.5081 332.016 52.5081 322.884C52.5081 313.752 45.1053 306.35 35.9735 306.35C26.8417 306.35 19.439 313.752 19.439 322.884C19.439 332.016 26.8417 339.419 35.9735 339.419Z" fill="#F5AC37"/>
<path fill-rule="evenodd" clip-rule="evenodd" d="M36.586 315.229C39.8422 315.229 42.6236 317.262 43.7298 320.128L45.7718 320.128V321.965L44.1863 321.965C44.2223 322.267 44.2408 322.573 44.2408 322.884C44.2408 323.195 44.2223 323.501 44.1863 323.803L45.7718 323.802V325.64L43.7297 325.64C42.6234 328.506 39.842 330.539 36.586 330.539H30.0027V325.64H27.7063V323.802H30.0027V321.965H27.7063V320.128H30.0027V315.229H36.586ZM41.6733 325.64L31.61 325.64L31.6103 329.008H36.2032C38.594 329.008 40.6648 327.638 41.6733 325.64ZM42.2587 321.965H31.61V323.802L42.2587 323.803C42.3037 323.503 42.3271 323.196 42.3271 322.884C42.3271 322.572 42.3037 322.265 42.2587 321.965ZM36.2032 316.76H31.6103L31.61 320.128H41.6735C40.665 318.13 38.5941 316.76 36.2032 316.76Z" fill="white"/>
<g clip-path="url(#clip4)">
<g clip-path="url(#clip5)">
<path d="M66.6031 317.884H72.5394V316.717H68.4791V316.651L70.2714 314.775C71.9228 313.106 72.394 312.309 72.394 311.301C72.394 309.852 71.2138 308.742 69.514 308.742C67.8274 308.742 66.5943 309.834 66.5943 311.481H67.8934C67.889 310.512 68.5144 309.878 69.4876 309.878C70.4036 309.878 71.0993 310.442 71.0993 311.34C71.0993 312.137 70.6237 312.71 69.6549 313.736L66.6031 316.898V317.884ZM74.5122 317.884H75.9346L79.8584 310.072V308.865H73.8957V310.032H78.4492V310.098L74.5122 317.884ZM80.4738 316.123H84.7498V317.884H86.0489V316.123H87.2423V314.969H86.0489V308.865H84.3711L80.4738 315.022V316.123ZM84.7586 314.969H81.9006V314.899L84.6882 310.486H84.7586V314.969ZM95.1019 317.884C97.8498 317.884 99.4396 316.18 99.4396 313.362C99.4396 310.556 97.8498 308.865 95.1944 308.865H92.1822V317.884H95.1019ZM93.543 316.695V310.054H95.1107C97.0836 310.054 98.1008 311.235 98.1008 313.362C98.1008 315.497 97.0836 316.695 95.027 316.695H93.543ZM101.47 317.884L102.298 315.497H105.821L106.644 317.884H108.088L104.843 308.865H103.271L100.025 317.884H101.47ZM102.694 314.352L104.024 310.504H104.094L105.424 314.352H102.694ZM110.752 308.865H109.391V317.884H110.752V308.865Z" fill="black"/>
</g>
<path d="M66.6692 336.884H72.3588V335.915H68.1665V335.845L70.1922 333.678C71.7423 332.018 72.2003 331.243 72.2003 330.243C72.2003 328.852 71.0729 327.742 69.4876 327.742C67.9066 327.742 66.7044 328.817 66.7044 330.402H67.7437C67.7437 329.376 68.4087 328.693 69.4523 328.693C70.43 328.693 71.1786 329.292 71.1786 330.243C71.1786 331.076 70.6898 331.692 69.6461 332.833L66.6692 336.092V336.884ZM74.4594 336.884H75.6044L79.6206 328.887V327.865H73.8429V328.834H78.4932V328.905L74.4594 336.884ZM84.0628 337.008C85.886 337.03 87.075 335.656 87.075 333.978C87.075 332.234 85.7847 330.983 84.239 330.983C83.3098 330.983 82.5127 331.437 82.0195 332.181H81.949C81.9534 329.966 82.8078 328.693 84.2037 328.693C85.155 328.693 85.7274 329.292 85.93 330.12H87.0045C86.7843 328.702 85.7186 327.725 84.2037 327.725C82.1736 327.725 80.9274 329.521 80.9274 332.727C80.9274 336.061 82.5832 336.99 84.0628 337.008ZM84.0628 336.039C82.9311 336.039 82.1032 335.074 82.1076 333.995C82.112 332.917 82.9795 331.952 84.0981 331.952C85.2034 331.952 86.0181 332.859 86.0181 333.978C86.0181 335.123 85.1682 336.039 84.0628 336.039ZM89.1579 336.955C89.5939 336.955 89.9506 336.598 89.9506 336.162C89.9506 335.726 89.5939 335.369 89.1579 335.369C88.722 335.369 88.3653 335.726 88.3653 336.162C88.3653 336.598 88.722 336.955 89.1579 336.955ZM92.0798 336.884H93.2248L97.241 328.887V327.865H91.4633V328.834H96.1136V328.905L92.0798 336.884ZM97.9445 335.035H102.19V336.884H103.229V335.035H104.462V334.066H103.229V327.865H101.908L97.9445 334.136V335.035ZM102.19 334.066H99.1247V333.995L102.119 329.257H102.19V334.066ZM115.677 327.865V333.837C115.677 335.246 114.55 336.021 113.264 336.021C111.978 336.021 110.851 335.246 110.851 333.837V327.865H109.759V333.837C109.759 335.863 111.362 337.043 113.264 337.043C115.166 337.043 116.769 335.863 116.769 333.837V327.865H115.677ZM123.882 330.12H124.939C124.891 328.759 123.636 327.742 121.892 327.742C120.166 327.742 118.809 328.746 118.809 330.261C118.809 331.476 119.69 332.199 121.099 332.604L122.209 332.921C123.16 333.185 124.006 333.52 124.006 334.418C124.006 335.405 123.055 336.056 121.804 336.056C120.729 336.056 119.778 335.581 119.69 334.559H118.563C118.668 336.039 119.866 337.043 121.804 337.043C123.882 337.043 125.063 335.898 125.063 334.436C125.063 332.745 123.46 332.199 122.526 331.952L121.61 331.705C120.941 331.529 119.866 331.177 119.866 330.208C119.866 329.345 120.659 328.711 121.857 328.711C122.949 328.711 123.777 329.231 123.882 330.12ZM129.641 336.884C132.389 336.884 133.94 335.176 133.94 332.357C133.94 329.556 132.389 327.865 129.765 327.865H126.858V336.884H129.641ZM127.95 335.915V328.834H129.694C131.808 328.834 132.883 330.173 132.883 332.357C132.883 334.559 131.808 335.915 129.571 335.915H127.95Z" fill="#939BA1"/>
</g>
</g>
<rect width="310.023" height="52.9105" transform="translate(6.21143 349.295)" fill="white"/>
<g clip-path="url(#clip6)">
<path d="M35.9735 392.329C45.1052 392.329 52.5081 384.927 52.5081 375.795C52.5081 366.663 45.1052 359.26 35.9735 359.26C26.8417 359.26 19.439 366.663 19.439 375.795C19.439 384.927 26.8417 392.329 35.9735 392.329Z" fill="black"/>
<path d="M29.1116 377.306L35.9889 386.995V381.369L29.1116 377.306Z" fill="white"/>
<path opacity="0.6" d="M35.989 381.369V386.995L42.8691 377.306L35.989 381.369Z" fill="white"/>
<path opacity="0.3" d="M42.8633 376.003L35.9889 372.875L35.9888 380.066L42.8633 376.003Z" fill="white"/>
<path opacity="0.6" d="M29.1116 376.003L35.989 372.875L35.9887 380.066L29.1116 376.003Z" fill="white"/>
<path opacity="0.6" d="M35.9888 364.592L42.8633 376.003L35.9891 372.875L35.9888 364.592Z" fill="white"/>
<path d="M35.9893 364.592V372.875L29.1118 376.003L35.9893 364.592Z" fill="white"/>
<g clip-path="url(#clip7)">
<g clip-path="url(#clip8)">
<path d="M66.907 370.795H68.3294L72.2531 362.983V361.776H66.2905V362.943H70.8439V363.009L66.907 370.795ZM73.1196 370.879C73.5996 370.879 74.0003 370.487 74.0003 369.998C74.0003 369.518 73.5996 369.122 73.1196 369.122C72.6351 369.122 72.2388 369.518 72.2388 369.998C72.2388 370.487 72.6351 370.879 73.1196 370.879ZM75.557 369.033H79.833V370.795H81.1321V369.033H82.3256V367.88H81.1321V361.776H79.4543L75.557 367.932V369.033ZM79.8419 367.88H76.9838V367.809L79.7714 363.397H79.8419V367.88ZM84.1641 370.795H85.5865L89.5102 362.983V361.776H83.5476V362.943H88.1011V363.009L84.1641 370.795ZM94.4468 370.795H100.154V369.624H95.8076V366.862H99.8062V365.695H95.8076V362.947H100.101V361.776H94.4468V370.795ZM101.474 362.947H104.284V370.795H105.64V362.947H108.454V361.776H101.474V362.947ZM109.996 370.795H111.357V366.862H115.853V370.795H117.219V361.776H115.853V365.695H111.357V361.776H109.996V370.795Z" fill="black"/>
</g>
<path d="M69.8399 380.776H68.7477L66.493 382.273V383.383L68.6949 381.921H68.7477V389.795H69.8399V380.776ZM72.7155 389.795H73.8605L77.8767 381.798V380.776H72.099V381.745H76.7493V381.815L72.7155 389.795ZM82.3597 389.918C84.108 389.918 85.4071 388.822 85.4071 387.346C85.4071 386.201 84.7289 385.369 83.5927 385.18V385.109C84.5043 384.832 85.0724 384.083 85.0724 383.066C85.0724 381.789 84.0639 380.653 82.3949 380.653C80.836 380.653 79.5413 381.613 79.4885 383.031H80.5453C80.585 382.132 81.4393 381.604 82.3773 381.604C83.3725 381.604 84.0155 382.207 84.0155 383.119C84.0155 384.07 83.2713 384.687 82.2012 384.687H81.4789V385.655H82.2012C83.5707 385.655 84.3326 386.351 84.3326 387.346C84.3326 388.302 83.5003 388.949 82.3421 388.949C81.2984 388.949 80.4705 388.412 80.4044 387.54H79.2947C79.3607 388.958 80.6114 389.918 82.3597 389.918ZM90.3789 380.776H89.2868L87.032 382.273V383.383L89.2339 381.921H89.2868V389.795H90.3789V380.776ZM93.7477 389.865C94.1837 389.865 94.5404 389.509 94.5404 389.073C94.5404 388.637 94.1837 388.28 93.7477 388.28C93.3118 388.28 92.9551 388.637 92.9551 389.073C92.9551 389.509 93.3118 389.865 93.7477 389.865ZM98.5775 380.776H97.4854L95.2307 382.273V383.383L97.4326 381.921H97.4854V389.795H98.5775V380.776ZM100.96 387.945H105.205V389.795H106.244V387.945H107.477V386.977H106.244V380.776H104.923L100.96 387.047V387.945ZM105.205 386.977H102.14V386.906L105.135 382.168H105.205V386.977ZM118.693 380.776V386.748C118.693 388.157 117.565 388.932 116.279 388.932C114.994 388.932 113.866 388.157 113.866 386.748V380.776H112.774V386.748C112.774 388.773 114.377 389.953 116.279 389.953C118.182 389.953 119.785 388.773 119.785 386.748V380.776H118.693ZM126.898 383.031H127.955C127.906 381.67 126.651 380.653 124.907 380.653C123.181 380.653 121.825 381.657 121.825 383.172C121.825 384.387 122.706 385.109 124.115 385.514L125.225 385.832C126.176 386.096 127.021 386.43 127.021 387.329C127.021 388.315 126.07 388.967 124.819 388.967C123.745 388.967 122.794 388.491 122.706 387.47H121.578C121.684 388.949 122.882 389.953 124.819 389.953C126.898 389.953 128.078 388.808 128.078 387.346C128.078 385.655 126.475 385.109 125.542 384.863L124.626 384.616C123.956 384.44 122.882 384.088 122.882 383.119C122.882 382.256 123.674 381.622 124.872 381.622C125.964 381.622 126.792 382.141 126.898 383.031ZM132.657 389.795C135.405 389.795 136.955 388.086 136.955 385.268C136.955 382.467 135.405 380.776 132.78 380.776H129.874V389.795H132.657ZM130.966 388.826V381.745H132.71C134.824 381.745 135.898 383.084 135.898 385.268C135.898 387.47 134.824 388.826 132.586 388.826H130.966Z" fill="#939BA1"/>
</g>
</g>
<rect width="310.023" height="52.9105" transform="translate(6.21143 402.206)" fill="white"/>
</g>
<path d="M88.6271 268.749C88.3188 266.82 86.8084 265.692 84.9016 265.692C82.5676 265.692 80.8457 267.441 80.8457 270.325C80.8457 273.209 82.5588 274.958 84.9016 274.958C86.8832 274.958 88.3321 273.716 88.6271 271.932L87.2531 271.928C87.0197 273.082 86.0509 273.716 84.9104 273.716C83.3646 273.716 82.1977 272.531 82.1977 270.325C82.1977 268.136 83.3602 266.934 84.9148 266.934C86.0641 266.934 87.0286 267.582 87.2531 268.749H88.6271ZM92.9989 274.971C94.9057 274.971 96.152 273.575 96.152 271.483C96.152 269.378 94.9057 267.982 92.9989 267.982C91.0921 267.982 89.8458 269.378 89.8458 271.483C89.8458 273.575 91.0921 274.971 92.9989 274.971ZM93.0033 273.866C91.7571 273.866 91.1758 272.778 91.1758 271.479C91.1758 270.184 91.7571 269.083 93.0033 269.083C94.2408 269.083 94.8221 270.184 94.8221 271.479C94.8221 272.778 94.2408 273.866 93.0033 273.866ZM98.9384 265.816H97.6217V274.834H98.9384V265.816ZM102.027 265.816H100.71V274.834H102.027V265.816ZM106.713 274.971C108.188 274.971 109.232 274.244 109.532 273.143L108.285 272.919C108.048 273.557 107.475 273.883 106.726 273.883C105.599 273.883 104.842 273.152 104.806 271.849H109.615V271.382C109.615 268.938 108.153 267.982 106.621 267.982C104.736 267.982 103.494 269.418 103.494 271.496C103.494 273.597 104.718 274.971 106.713 274.971ZM104.811 270.862C104.864 269.902 105.559 269.07 106.63 269.07C107.651 269.07 108.321 269.827 108.325 270.862H104.811ZM113.925 274.971C115.524 274.971 116.559 274.011 116.704 272.694H115.423C115.255 273.425 114.687 273.857 113.934 273.857C112.82 273.857 112.102 272.928 112.102 271.452C112.102 270.004 112.833 269.092 113.934 269.092C114.771 269.092 115.282 269.62 115.423 270.255H116.704C116.563 268.889 115.449 267.982 113.912 267.982C112.005 267.982 110.772 269.418 110.772 271.483C110.772 273.522 111.961 274.971 113.925 274.971ZM121.27 268.07H119.883V266.45H118.566V268.07H117.575V269.127H118.566V273.121C118.561 274.35 119.499 274.945 120.539 274.923C120.957 274.918 121.239 274.839 121.393 274.782L121.155 273.694C121.067 273.712 120.904 273.751 120.693 273.751C120.266 273.751 119.883 273.61 119.883 272.848V269.127H121.27V268.07ZM122.726 274.834H124.043V268.07H122.726V274.834ZM123.391 267.027C123.845 267.027 124.224 266.674 124.224 266.243C124.224 265.811 123.845 265.455 123.391 265.455C122.933 265.455 122.559 265.811 122.559 266.243C122.559 266.674 122.933 267.027 123.391 267.027ZM125.92 274.834H127.206V273.782H127.316C127.554 274.214 128.038 274.967 129.271 274.967C130.91 274.967 132.099 273.654 132.099 271.466C132.099 269.273 130.892 267.982 129.258 267.982C128.003 267.982 127.549 268.749 127.316 269.167H127.237V265.816H125.92V274.834ZM127.21 271.452C127.21 270.039 127.827 269.101 128.976 269.101C130.17 269.101 130.769 270.109 130.769 271.452C130.769 272.809 130.152 273.844 128.976 273.844C127.845 273.844 127.21 272.875 127.21 271.452ZM134.894 265.816H133.577V274.834H134.894V265.816ZM139.58 274.971C141.056 274.971 142.099 274.244 142.399 273.143L141.153 272.919C140.915 273.557 140.342 273.883 139.594 273.883C138.466 273.883 137.709 273.152 137.674 271.849H142.483V271.382C142.483 268.938 141.021 267.982 139.488 267.982C137.603 267.982 136.361 269.418 136.361 271.496C136.361 273.597 137.586 274.971 139.58 274.971ZM137.678 270.862C137.731 269.902 138.427 269.07 139.497 269.07C140.518 269.07 141.188 269.827 141.192 270.862H137.678ZM149.012 269.722C148.739 268.669 147.916 267.982 146.454 267.982C144.926 267.982 143.842 268.788 143.842 269.986C143.842 270.946 144.423 271.585 145.692 271.866L146.837 272.117C147.488 272.263 147.792 272.553 147.792 272.976C147.792 273.5 147.233 273.91 146.37 273.91C145.582 273.91 145.075 273.571 144.917 272.906L143.644 273.099C143.864 274.297 144.859 274.971 146.379 274.971C148.013 274.971 149.144 274.103 149.144 272.879C149.144 271.924 148.537 271.334 147.295 271.047L146.22 270.801C145.476 270.625 145.155 270.373 145.159 269.916C145.155 269.396 145.718 269.026 146.467 269.026C147.286 269.026 147.665 269.48 147.819 269.933L149.012 269.722Z" fill="#939BA1"/>
</g>
<path d="M21.265 274.834L22.0929 272.448H25.6158L26.4393 274.834H27.8838L24.6382 265.816H23.0661L19.8205 274.834H21.265ZM22.4892 271.303L23.8191 267.454H23.8896L25.2195 271.303H22.4892ZM34.1007 269.722C33.8277 268.669 33.0042 267.982 31.5422 267.982C30.0141 267.982 28.9308 268.788 28.9308 269.986C28.9308 270.946 29.512 271.585 30.7803 271.866L31.9253 272.117C32.577 272.263 32.8809 272.553 32.8809 272.976C32.8809 273.5 32.3216 273.91 31.4585 273.91C30.6702 273.91 30.1638 273.571 30.0053 272.906L28.7326 273.099C28.9528 274.297 29.948 274.971 31.4673 274.971C33.1011 274.971 34.2328 274.103 34.2328 272.879C34.2328 271.924 33.6251 271.334 32.3833 271.047L31.3088 270.801C30.5645 270.625 30.2431 270.373 30.2475 269.916C30.2431 269.396 30.8067 269.026 31.5554 269.026C32.3745 269.026 32.7532 269.48 32.9073 269.933L34.1007 269.722ZM40.7493 269.722C40.4762 268.669 39.6527 267.982 38.1907 267.982C36.6626 267.982 35.5793 268.788 35.5793 269.986C35.5793 270.946 36.1606 271.585 37.4289 271.866L38.5738 272.117C39.2256 272.263 39.5294 272.553 39.5294 272.976C39.5294 273.5 38.9702 273.91 38.107 273.91C37.3188 273.91 36.8123 273.571 36.6538 272.906L35.3811 273.099C35.6013 274.297 36.5966 274.971 38.1158 274.971C39.7496 274.971 40.8814 274.103 40.8814 272.879C40.8814 271.924 40.2737 271.334 39.0318 271.047L37.9573 270.801C37.2131 270.625 36.8916 270.373 36.896 269.916C36.8916 269.396 37.4553 269.026 38.2039 269.026C39.023 269.026 39.4017 269.48 39.5559 269.933L40.7493 269.722ZM45.2444 274.971C46.7196 274.971 47.7633 274.244 48.0628 273.143L46.8165 272.919C46.5787 273.557 46.0062 273.883 45.2576 273.883C44.1302 273.883 43.3728 273.152 43.3376 271.849H48.1464V271.382C48.1464 268.938 46.6844 267.982 45.1519 267.982C43.2671 267.982 42.0253 269.418 42.0253 271.496C42.0253 273.597 43.2495 274.971 45.2444 274.971ZM43.342 270.862C43.3948 269.902 44.0906 269.07 45.1607 269.07C46.1824 269.07 46.8517 269.827 46.8561 270.862H43.342ZM52.7649 268.07H51.3777V266.45H50.061V268.07H49.0701V269.127H50.061V273.121C50.0566 274.35 50.9946 274.945 52.0338 274.923C52.4522 274.918 52.734 274.839 52.8882 274.782L52.6504 273.694C52.5623 273.712 52.3993 273.751 52.188 273.751C51.7608 273.751 51.3777 273.61 51.3777 272.848V269.127H52.7649V268.07ZM59.1811 269.722C58.9081 268.669 58.0846 267.982 56.6225 267.982C55.0944 267.982 54.0111 268.788 54.0111 269.986C54.0111 270.946 54.5924 271.585 55.8607 271.866L57.0057 272.117C57.6574 272.263 57.9613 272.553 57.9613 272.976C57.9613 273.5 57.402 273.91 56.5389 273.91C55.7506 273.91 55.2442 273.571 55.0856 272.906L53.8129 273.099C54.0331 274.297 55.0284 274.971 56.5477 274.971C58.1814 274.971 59.3132 274.103 59.3132 272.879C59.3132 271.924 58.7055 271.334 57.4636 271.047L56.3891 270.801C55.6449 270.625 55.3234 270.373 55.3278 269.916C55.3234 269.396 55.8871 269.026 56.6357 269.026C57.4548 269.026 57.8336 269.48 57.9877 269.933L59.1811 269.722Z" fill="black"/>
<path d="M29.3599 288.53C29.3599 287.845 29.9151 287.29 30.6 287.29H47.9612C48.6461 287.29 49.2013 287.845 49.2013 288.53V288.53C49.2013 289.215 48.6461 289.77 47.9612 289.77H30.6C29.9151 289.77 29.3599 289.215 29.3599 288.53V288.53Z" fill="#4360DF"/>
<rect x="322" y="408" width="322" height="227" rx="3.43103" transform="rotate(-180 322 408)" fill="url(#paint0_linear)"/>
<g filter="url(#filter0_d)">
<rect x="19.4392" y="121.118" width="128.969" height="119.875" rx="6" fill="#4360DF"/>
</g>
<path d="M33.6491 136.02H32.3236L30.0733 137.491V138.794L32.2311 137.385H32.2839V145.039H33.6491V136.02ZM39.2286 145.188C41.3116 145.188 42.5314 143.488 42.5314 140.534C42.5314 137.601 41.294 135.896 39.2286 135.896C37.1589 135.896 35.9258 137.596 35.9214 140.534C35.9214 143.484 37.1413 145.184 39.2286 145.188ZM39.2286 144.013C38.0088 144.013 37.2734 142.788 37.2734 140.534C37.2778 138.288 38.0132 137.05 39.2286 137.05C40.4397 137.05 41.1795 138.288 41.1795 140.534C41.1795 142.788 40.4441 144.013 39.2286 144.013ZM44.1553 145.039H45.5777L49.5014 137.226V136.02H43.5388V137.187H48.0922V137.253L44.1553 145.039ZM54.4545 136.02H53.129L50.8787 137.491V138.794L53.0365 137.385H53.0894V145.039H54.4545V136.02ZM57.7794 145.122C58.2594 145.122 58.6601 144.73 58.6601 144.241C58.6601 143.761 58.2594 143.365 57.7794 143.365C57.2949 143.365 56.8986 143.761 56.8986 144.241C56.8986 144.73 57.2949 145.122 57.7794 145.122ZM62.8469 136.02H61.5214L59.2711 137.491V138.794L61.4289 137.385H61.4818V145.039H62.8469V136.02ZM68.4265 145.162C70.2672 145.162 71.6192 144.061 71.6148 142.564C71.6192 141.423 70.9278 140.604 69.73 140.419V140.349C70.6724 140.106 71.2845 139.367 71.2801 138.354C71.2845 137.028 70.1968 135.896 68.4617 135.896C66.8059 135.896 65.476 136.896 65.4319 138.363H66.7487C66.7795 137.535 67.5589 137.033 68.4441 137.033C69.3645 137.033 69.9678 137.592 69.9634 138.424C69.9678 139.296 69.2676 139.869 68.2679 139.869H67.5061V140.978H68.2679C69.5186 140.978 70.2408 141.612 70.2408 142.52C70.2408 143.396 69.479 143.99 68.4177 143.99C67.44 143.99 66.6782 143.488 66.6253 142.687H65.2426C65.2998 144.158 66.6033 145.162 68.4265 145.162Z" fill="white"/>
<path d="M82.8336 136.02V141.965C82.8336 143.229 81.8251 143.938 80.6097 143.938C79.4031 143.938 78.3902 143.229 78.3902 141.965V136.02H77.0295V141.987C77.0295 144.021 78.6148 145.188 80.6097 145.188C82.6046 145.188 84.1943 144.021 84.1943 141.987V136.02H82.8336ZM91.0917 138.389H92.404C92.3644 136.945 91.0873 135.896 89.2553 135.896C87.4454 135.896 86.0582 136.931 86.0582 138.486C86.0582 139.741 86.9566 140.476 88.4054 140.868L89.4711 141.159C90.4355 141.414 91.1797 141.731 91.1797 142.533C91.1797 143.414 90.3386 143.995 89.1805 143.995C88.1324 143.995 87.2604 143.528 87.1812 142.546H85.816C85.9041 144.18 87.1679 145.188 89.1893 145.188C91.3075 145.188 92.5273 144.074 92.5273 142.546C92.5273 140.921 91.0785 140.291 89.9335 140.01L89.0527 139.781C88.3481 139.6 87.4102 139.27 87.4146 138.407C87.4146 137.64 88.1148 137.072 89.2245 137.072C90.2594 137.072 90.9948 137.557 91.0917 138.389ZM97.073 145.039C99.821 145.039 101.411 143.334 101.411 140.516C101.411 137.711 99.821 136.02 97.1655 136.02H94.1534V145.039H97.073ZM95.5141 143.85V137.209H97.0819C99.0547 137.209 100.072 138.389 100.072 140.516C100.072 142.652 99.0547 143.85 96.9982 143.85H95.5141Z" fill="white" fill-opacity="0.4"/>
<path d="M35.2697 205.354H36.582C36.5424 203.909 35.2653 202.861 33.4333 202.861C31.6234 202.861 30.2362 203.896 30.2362 205.451C30.2362 206.706 31.1346 207.441 32.5834 207.833L33.6491 208.124C34.6135 208.379 35.3577 208.696 35.3577 209.498C35.3577 210.378 34.5166 210.96 33.3585 210.96C32.3104 210.96 31.4384 210.493 31.3592 209.511H29.994C30.0821 211.145 31.3459 212.153 33.3673 212.153C35.4855 212.153 36.7053 211.039 36.7053 209.511C36.7053 207.886 35.2565 207.256 34.1115 206.974L33.2307 206.745C32.5261 206.565 31.5882 206.235 31.5926 205.371C31.5926 204.605 32.2927 204.037 33.4025 204.037C34.4374 204.037 35.1728 204.521 35.2697 205.354ZM41.3832 205.239H39.996V203.619H38.6793V205.239H37.6884V206.296H38.6793V210.29C38.6749 211.519 39.6129 212.114 40.6521 212.091C41.0705 212.087 41.3523 212.008 41.5065 211.951L41.2687 210.863C41.1806 210.88 41.0176 210.92 40.8063 210.92C40.3791 210.92 39.996 210.779 39.996 210.017V206.296H41.3832V205.239ZM44.8082 212.153C45.9267 212.153 46.5564 211.585 46.8075 211.079H46.8603V212.003H48.1462V207.512C48.1462 205.543 46.5961 205.151 45.5216 205.151C44.2973 205.151 43.17 205.644 42.7296 206.877L43.967 207.159C44.1608 206.679 44.654 206.217 45.5392 206.217C46.3891 206.217 46.8251 206.662 46.8251 207.428V207.459C46.8251 207.939 46.3318 207.93 45.1164 208.071C43.8349 208.221 42.5226 208.555 42.5226 210.092C42.5226 211.422 43.5223 212.153 44.8082 212.153ZM45.0944 211.096C44.3502 211.096 43.8129 210.762 43.8129 210.11C43.8129 209.405 44.4382 209.154 45.2001 209.053C45.6273 208.996 46.6401 208.881 46.8295 208.692V209.564C46.8295 210.365 46.1909 211.096 45.0944 211.096ZM53.0574 205.239H51.6703V203.619H50.3536V205.239H49.3627V206.296H50.3536V210.29C50.3492 211.519 51.2871 212.114 52.3264 212.091C52.7448 212.087 53.0266 212.008 53.1808 211.951L52.943 210.863C52.8549 210.88 52.6919 210.92 52.4806 210.92C52.0534 210.92 51.6703 210.779 51.6703 210.017V206.296H53.0574V205.239ZM58.7988 209.198C58.8032 210.348 57.9489 210.894 57.2091 210.894C56.3944 210.894 55.8307 210.304 55.8307 209.383V205.239H54.514V209.542C54.514 211.22 55.4344 212.091 56.7335 212.091C57.7507 212.091 58.4421 211.554 58.7548 210.832H58.8252V212.003H60.1199V205.239H58.7988V209.198ZM66.9578 206.891C66.6848 205.838 65.8613 205.151 64.3993 205.151C62.8712 205.151 61.7878 205.957 61.7878 207.155C61.7878 208.115 62.3691 208.753 63.6374 209.035L64.7824 209.286C65.4341 209.432 65.738 209.722 65.738 210.145C65.738 210.669 65.1787 211.079 64.3156 211.079C63.5273 211.079 63.0209 210.74 62.8624 210.075L61.5897 210.268C61.8099 211.466 62.8051 212.14 64.3244 212.14C65.9582 212.14 67.0899 211.272 67.0899 210.048C67.0899 209.093 66.4822 208.502 65.2404 208.216L64.1659 207.97C63.4216 207.793 63.1002 207.542 63.1046 207.084C63.1002 206.565 63.6638 206.195 64.4125 206.195C65.2316 206.195 65.6103 206.648 65.7644 207.102L66.9578 206.891ZM73.788 212.153C74.9066 212.153 75.5363 211.585 75.7873 211.079H75.8402V212.003H77.126V207.512C77.126 205.543 75.5759 205.151 74.5014 205.151C73.2772 205.151 72.1498 205.644 71.7095 206.877L72.9469 207.159C73.1407 206.679 73.6339 206.217 74.519 206.217C75.369 206.217 75.8049 206.662 75.8049 207.428V207.459C75.8049 207.939 75.3117 207.93 74.0963 208.071C72.8148 208.221 71.5025 208.555 71.5025 210.092C71.5025 211.422 72.5021 212.153 73.788 212.153ZM74.0743 211.096C73.33 211.096 72.7928 210.762 72.7928 210.11C72.7928 209.405 73.4181 209.154 74.1799 209.053C74.6071 208.996 75.62 208.881 75.8093 208.692V209.564C75.8093 210.365 75.1708 211.096 74.0743 211.096ZM81.729 212.14C83.3276 212.14 84.3625 211.18 84.5078 209.863H83.2263C83.059 210.594 82.4909 211.026 81.7379 211.026C80.6237 211.026 79.9059 210.097 79.9059 208.621C79.9059 207.173 80.6369 206.261 81.7379 206.261C82.5746 206.261 83.0854 206.789 83.2263 207.424H84.5078C84.3669 206.058 83.2527 205.151 81.7158 205.151C79.809 205.151 78.576 206.587 78.576 208.652C78.576 210.691 79.765 212.14 81.729 212.14ZM88.7651 212.14C90.3637 212.14 91.3985 211.18 91.5439 209.863H90.2624C90.095 210.594 89.527 211.026 88.7739 211.026C87.6598 211.026 86.942 210.097 86.942 208.621C86.942 207.173 87.673 206.261 88.7739 206.261C89.6106 206.261 90.1215 206.789 90.2624 207.424H91.5439C91.4029 206.058 90.2888 205.151 88.7519 205.151C86.8451 205.151 85.612 206.587 85.612 208.652C85.612 210.691 86.801 212.14 88.7651 212.14ZM95.8012 212.14C97.708 212.14 98.9542 210.744 98.9542 208.652C98.9542 206.547 97.708 205.151 95.8012 205.151C93.8944 205.151 92.6481 206.547 92.6481 208.652C92.6481 210.744 93.8944 212.14 95.8012 212.14ZM95.8056 211.035C94.5593 211.035 93.978 209.947 93.978 208.648C93.978 207.353 94.5593 206.252 95.8056 206.252C97.043 206.252 97.6243 207.353 97.6243 208.648C97.6243 209.947 97.043 211.035 95.8056 211.035ZM104.709 209.198C104.713 210.348 103.859 210.894 103.119 210.894C102.304 210.894 101.741 210.304 101.741 209.383V205.239H100.424V209.542C100.424 211.22 101.344 212.091 102.643 212.091C103.661 212.091 104.352 211.554 104.665 210.832H104.735V212.003H106.03V205.239H104.709V209.198ZM109.116 207.987C109.116 206.908 109.776 206.292 110.692 206.292C111.586 206.292 112.128 206.877 112.128 207.86V212.003H113.445V207.701C113.445 206.028 112.524 205.151 111.142 205.151C110.124 205.151 109.459 205.622 109.147 206.34H109.063V205.239H107.799V212.003H109.116V207.987ZM118.368 205.239H116.981V203.619H115.664V205.239H114.673V206.296H115.664V210.29C115.66 211.519 116.598 212.114 117.637 212.091C118.055 212.087 118.337 212.008 118.491 211.951L118.254 210.863C118.166 210.88 118.003 210.92 117.791 210.92C117.364 210.92 116.981 210.779 116.981 210.017V206.296H118.368V205.239Z" fill="white"/>
<path d="M135.181 136.619C135.181 136.961 135.461 137.234 135.799 137.29C137.559 137.584 138.901 139.115 138.901 140.959C138.901 143.014 137.236 144.68 135.181 144.68H128.567C126.513 144.68 124.847 143.014 124.847 140.959C124.847 139.115 126.189 137.584 127.95 137.29C128.288 137.234 128.567 136.961 128.567 136.619C128.567 136.277 128.288 135.995 127.948 136.037C125.501 136.342 123.607 138.429 123.607 140.959C123.607 143.699 125.828 145.92 128.567 145.92H135.181C137.921 145.92 140.141 143.699 140.141 140.959C140.141 138.429 138.247 136.342 135.8 136.037C135.46 135.995 135.181 136.277 135.181 136.619Z" fill="white"/>
<path d="M132.494 132.707C132.494 132.338 132.94 132.154 133.2 132.414L134.743 133.957C134.985 134.199 135.377 134.199 135.62 133.957C135.862 133.715 135.862 133.322 135.62 133.08L132.313 129.773C132.071 129.531 131.678 129.531 131.436 129.773L128.129 133.08C127.887 133.322 127.887 133.715 128.129 133.957C128.371 134.199 128.764 134.199 129.006 133.957L130.549 132.414C130.809 132.154 131.254 132.338 131.254 132.707V140.959C131.254 141.302 131.532 141.579 131.874 141.579C132.217 141.579 132.494 141.302 132.494 140.959V132.707Z" fill="white"/>
<path d="M33.3761 230.315C35.3666 230.315 36.5115 228.629 36.5115 225.682C36.5115 222.758 35.3489 221.05 33.3761 221.05C31.4032 221.05 30.2406 222.758 30.2406 225.682C30.2406 228.629 31.3856 230.315 33.3761 230.315ZM33.3761 229.346C32.9093 229.346 32.5085 229.179 32.1915 228.858L35.0054 223.155C35.2961 223.776 35.4546 224.626 35.4546 225.682C35.4546 228.03 34.6884 229.346 33.3761 229.346ZM31.7379 228.188C31.4516 227.576 31.2975 226.735 31.2975 225.682C31.2975 223.34 32.0726 222.001 33.3761 222.001C33.8341 222.001 34.2304 222.168 34.5475 222.485L31.7379 228.188ZM39.1152 223.428H37.9174L40.0664 226.81L37.9174 230.192H39.1152L40.7358 227.567L42.3564 230.192H43.5542L41.3699 226.81L43.5542 223.428H42.3564L40.7358 226.193L39.1152 223.428ZM48.1021 230.315C49.9033 230.315 51.1583 229.263 51.1671 227.796C51.1583 226.656 50.3965 225.687 49.4233 225.506V225.453C50.2688 225.233 50.8237 224.405 50.8325 223.445C50.8237 222.071 49.6699 221.05 48.1021 221.05C46.5168 221.05 45.363 222.071 45.3718 223.445C45.363 224.405 45.9179 225.233 46.781 225.453V225.506C45.7902 225.687 45.0283 226.656 45.0372 227.796C45.0283 229.263 46.2834 230.315 48.1021 230.315ZM48.1021 229.346C46.8647 229.346 46.1029 228.712 46.1117 227.743C46.1029 226.726 46.944 226 48.1021 226C49.2427 226 50.0838 226.726 50.0926 227.743C50.0838 228.712 49.322 229.346 48.1021 229.346ZM48.1021 225.066C47.1157 225.066 46.4199 224.449 46.4287 223.516C46.4199 222.6 47.0893 222.001 48.1021 222.001C49.0974 222.001 49.7668 222.6 49.7756 223.516C49.7668 224.449 49.071 225.066 48.1021 225.066ZM53.2072 230.192H54.2112V229.153H54.3345C54.5635 229.523 55.0039 230.333 56.3074 230.333C57.9984 230.333 59.1786 228.976 59.1786 226.827C59.1786 224.696 57.9984 223.34 56.2898 223.34C54.9687 223.34 54.5635 224.15 54.3345 224.502H54.2465V221.173H53.2072V230.192ZM54.2288 226.81C54.2288 225.295 54.8982 224.273 56.1665 224.273C57.4876 224.273 58.1394 225.383 58.1394 226.81C58.1394 228.254 57.47 229.399 56.1665 229.399C54.9158 229.399 54.2288 228.342 54.2288 226.81ZM60.9093 230.192H61.9134V229.153H62.0367C62.2657 229.523 62.706 230.333 64.0095 230.333C65.7006 230.333 66.8808 228.976 66.8808 226.827C66.8808 224.696 65.7006 223.34 63.9919 223.34C62.6708 223.34 62.2657 224.15 62.0367 224.502H61.9486V221.173H60.9093V230.192ZM61.931 226.81C61.931 225.295 62.6003 224.273 63.8686 224.273C65.1897 224.273 65.8415 225.383 65.8415 226.81C65.8415 228.254 65.1721 229.399 63.8686 229.399C62.618 229.399 61.931 228.342 61.931 226.81ZM71.5003 230.315C73.2177 230.315 74.4772 229.047 74.4772 227.321C74.4772 225.572 73.2618 224.291 71.606 224.291C70.9983 224.291 70.4082 224.507 70.0382 224.802H69.9854L70.3025 222.142H74.0721V221.173H69.3865L68.8404 225.612L69.8621 225.735C70.2364 225.467 70.875 225.273 71.4298 225.277C72.5792 225.286 73.4203 226.158 73.4203 227.338C73.4203 228.496 72.61 229.346 71.5003 229.346C70.5755 229.346 69.8401 228.752 69.7564 227.937H68.6995C68.7656 229.311 69.9502 230.315 71.5003 230.315ZM77.2571 230.262C77.693 230.262 78.0497 229.906 78.0497 229.47C78.0497 229.034 77.693 228.677 77.2571 228.677C76.8211 228.677 76.4644 229.034 76.4644 229.47C76.4644 229.906 76.8211 230.262 77.2571 230.262ZM80.6391 230.262C81.0751 230.262 81.4318 229.906 81.4318 229.47C81.4318 229.034 81.0751 228.677 80.6391 228.677C80.2032 228.677 79.8465 229.034 79.8465 229.47C79.8465 229.906 80.2032 230.262 80.6391 230.262ZM84.0212 230.262C84.4572 230.262 84.8139 229.906 84.8139 229.47C84.8139 229.034 84.4572 228.677 84.0212 228.677C83.5852 228.677 83.2285 229.034 83.2285 229.47C83.2285 229.906 83.5852 230.262 84.0212 230.262ZM89.6789 221.032C87.8469 221.015 86.6667 222.388 86.6667 224.062C86.6667 225.806 87.9526 227.056 89.5027 227.056C90.4363 227.056 91.229 226.598 91.7222 225.859H91.7927C91.7927 228.078 90.9295 229.346 89.538 229.346C88.5868 229.346 88.0055 228.747 87.8117 227.92H86.7372C86.9486 229.346 88.0231 230.315 89.538 230.315C91.5637 230.315 92.8143 228.518 92.8143 225.313C92.8143 221.983 91.1585 221.05 89.6789 221.032ZM89.6789 222.001C90.8062 222.001 91.6341 222.97 91.6341 224.044C91.6341 225.119 90.7534 226.088 89.6437 226.088C88.5339 226.088 87.7236 225.189 87.7236 224.062C87.7236 222.917 88.5691 222.001 89.6789 222.001ZM97.5495 230.333C98.9234 230.333 99.9275 229.646 100.245 228.624L99.2405 228.342C98.9763 229.047 98.3641 229.399 97.5495 229.399C96.3296 229.399 95.4885 228.611 95.4401 227.162H100.35V226.722C100.35 224.203 98.853 223.34 97.4438 223.34C95.6118 223.34 94.3964 224.784 94.3964 226.863C94.3964 228.941 95.5942 230.333 97.5495 230.333ZM95.4401 226.264C95.5105 225.211 96.2548 224.273 97.4438 224.273C98.5711 224.273 99.2933 225.119 99.2933 226.264H95.4401ZM102.178 230.192H107.867V229.223H103.675V229.153L105.701 226.986C107.251 225.326 107.709 224.551 107.709 223.551C107.709 222.159 106.582 221.05 104.996 221.05C103.415 221.05 102.213 222.124 102.213 223.71H103.252C103.252 222.684 103.917 222.001 104.961 222.001C105.939 222.001 106.687 222.6 106.687 223.551C106.687 224.383 106.198 225 105.155 226.14L102.178 229.399V230.192ZM112.955 221.032C111.123 221.015 109.943 222.388 109.943 224.062C109.943 225.806 111.229 227.056 112.779 227.056C113.712 227.056 114.505 226.598 114.998 225.859H115.069C115.069 228.078 114.205 229.346 112.814 229.346C111.863 229.346 111.281 228.747 111.088 227.92H110.013C110.225 229.346 111.299 230.315 112.814 230.315C114.84 230.315 116.09 228.518 116.09 225.313C116.09 221.983 114.434 221.05 112.955 221.032ZM112.955 222.001C114.082 222.001 114.91 222.97 114.91 224.044C114.91 225.119 114.029 226.088 112.92 226.088C111.81 226.088 111 225.189 111 224.062C111 222.917 111.845 222.001 112.955 222.001Z" fill="white" fill-opacity="0.7"/>
<g filter="url(#filter1_d)">
<rect x="161.636" y="121.118" width="128.969" height="119.875" rx="6" fill="#2D55C0"/>
</g>
<path d="M172.424 145.039H178.361V143.872H174.3V143.806L176.093 141.93C177.744 140.261 178.215 139.463 178.215 138.455C178.215 137.006 177.035 135.896 175.335 135.896C173.649 135.896 172.416 136.989 172.416 138.636H173.715C173.71 137.667 174.336 137.033 175.309 137.033C176.225 137.033 176.921 137.596 176.921 138.495C176.921 139.292 176.445 139.864 175.476 140.89L172.424 144.052V145.039ZM180.334 145.039H181.756L185.68 137.226V136.02H179.717V137.187H184.27V137.253L180.334 145.039ZM190.166 145.162C192.051 145.179 193.301 143.823 193.297 142.092C193.301 140.366 192.046 139.129 190.483 139.129C189.532 139.129 188.708 139.587 188.246 140.349H188.18C188.184 138.279 188.959 137.068 190.28 137.068C191.148 137.068 191.694 137.592 191.879 138.363H193.222C193.015 136.914 191.892 135.874 190.28 135.874C188.184 135.874 186.876 137.676 186.876 140.833C186.876 144.153 188.563 145.149 190.166 145.162ZM190.162 144.017C189.113 144.017 188.347 143.136 188.347 142.123C188.352 141.115 189.153 140.234 190.192 140.234C191.223 140.234 191.98 141.066 191.976 142.11C191.98 143.176 191.192 144.017 190.162 144.017ZM195.362 145.122C195.842 145.122 196.243 144.73 196.243 144.241C196.243 143.761 195.842 143.365 195.362 143.365C194.878 143.365 194.482 143.761 194.482 144.241C194.482 144.73 194.878 145.122 195.362 145.122ZM198.293 145.039H199.715L203.639 137.226V136.02H197.677V137.187H202.23V137.253L198.293 145.039ZM204.255 143.277H208.531V145.039H209.83V143.277H211.023V142.123H209.83V136.02H208.152L204.255 142.176V143.277ZM208.539 142.123H205.681V142.053L208.469 137.64H208.539V142.123Z" fill="white"/>
<path d="M222.55 136.02V141.965C222.55 143.229 221.542 143.938 220.326 143.938C219.12 143.938 218.107 143.229 218.107 141.965V136.02H216.746V141.987C216.746 144.021 218.332 145.188 220.326 145.188C222.321 145.188 223.911 144.021 223.911 141.987V136.02H222.55ZM230.808 138.389H232.121C232.081 136.945 230.804 135.896 228.972 135.896C227.162 135.896 225.775 136.931 225.775 138.486C225.775 139.741 226.673 140.476 228.122 140.868L229.188 141.159C230.152 141.414 230.897 141.731 230.897 142.533C230.897 143.414 230.055 143.995 228.897 143.995C227.849 143.995 226.977 143.528 226.898 142.546H225.533C225.621 144.18 226.885 145.188 228.906 145.188C231.024 145.188 232.244 144.074 232.244 142.546C232.244 140.921 230.795 140.291 229.65 140.01L228.77 139.781C228.065 139.6 227.127 139.27 227.131 138.407C227.131 137.64 227.832 137.072 228.941 137.072C229.976 137.072 230.712 137.557 230.808 138.389ZM236.79 145.039C239.538 145.039 241.128 143.334 241.128 140.516C241.128 137.711 239.538 136.02 236.882 136.02H233.87V145.039H236.79ZM235.231 143.85V137.209H236.799C238.772 137.209 239.789 138.389 239.789 140.516C239.789 142.652 238.772 143.85 236.715 143.85H235.231Z" fill="white" fill-opacity="0.4"/>
<path d="M177.511 206.891C177.238 205.838 176.414 205.151 174.952 205.151C173.424 205.151 172.341 205.957 172.341 207.155C172.341 208.115 172.922 208.753 174.19 209.035L175.335 209.286C175.987 209.432 176.291 209.722 176.291 210.145C176.291 210.669 175.732 211.079 174.868 211.079C174.08 211.079 173.574 210.74 173.415 210.075L172.143 210.268C172.363 211.466 173.358 212.14 174.877 212.14C176.511 212.14 177.643 211.272 177.643 210.048C177.643 209.093 177.035 208.502 175.793 208.216L174.719 207.97C173.975 207.793 173.653 207.542 173.657 207.084C173.653 206.565 174.217 206.195 174.965 206.195C175.784 206.195 176.163 206.648 176.317 207.102L177.511 206.891ZM182.248 205.239H180.861V203.619H179.544V205.239H178.553V206.296H179.544V210.29C179.54 211.519 180.478 212.114 181.517 212.091C181.935 212.087 182.217 212.008 182.371 211.951L182.134 210.863C182.045 210.88 181.883 210.92 181.671 210.92C181.244 210.92 180.861 210.779 180.861 210.017V206.296H182.248V205.239ZM185.673 212.153C186.792 212.153 187.421 211.585 187.672 211.079H187.725V212.003H189.011V207.512C189.011 205.543 187.461 205.151 186.386 205.151C185.162 205.151 184.035 205.644 183.594 206.877L184.832 207.159C185.026 206.679 185.519 206.217 186.404 206.217C187.254 206.217 187.69 206.662 187.69 207.428V207.459C187.69 207.939 187.197 207.93 185.981 208.071C184.7 208.221 183.388 208.555 183.388 210.092C183.388 211.422 184.387 212.153 185.673 212.153ZM185.959 211.096C185.215 211.096 184.678 210.762 184.678 210.11C184.678 209.405 185.303 209.154 186.065 209.053C186.492 208.996 187.505 208.881 187.694 208.692V209.564C187.694 210.365 187.056 211.096 185.959 211.096ZM190.871 212.003H192.156V210.951H192.267C192.504 211.382 192.989 212.136 194.222 212.136C195.86 212.136 197.049 210.823 197.049 208.635C197.049 206.442 195.842 205.151 194.209 205.151C192.954 205.151 192.5 205.917 192.267 206.336H192.187V202.985H190.871V212.003ZM192.161 208.621C192.161 207.208 192.777 206.27 193.927 206.27C195.12 206.27 195.719 207.278 195.719 208.621C195.719 209.978 195.103 211.013 193.927 211.013C192.795 211.013 192.161 210.044 192.161 208.621ZM199.844 202.985H198.528V212.003H199.844V202.985ZM204.531 212.14C206.006 212.14 207.05 211.413 207.349 210.312L206.103 210.088C205.865 210.726 205.293 211.052 204.544 211.052C203.417 211.052 202.659 210.321 202.624 209.018H207.433V208.551C207.433 206.107 205.971 205.151 204.438 205.151C202.554 205.151 201.312 206.587 201.312 208.665C201.312 210.766 202.536 212.14 204.531 212.14ZM202.629 208.031C202.681 207.071 203.377 206.239 204.447 206.239C205.469 206.239 206.138 206.996 206.143 208.031H202.629ZM211.743 212.14C213.342 212.14 214.377 211.18 214.522 209.863H213.24C213.073 210.594 212.505 211.026 211.752 211.026C210.638 211.026 209.92 210.097 209.92 208.621C209.92 207.173 210.651 206.261 211.752 206.261C212.589 206.261 213.099 206.789 213.24 207.424H214.522C214.381 206.058 213.267 205.151 211.73 205.151C209.823 205.151 208.59 206.587 208.59 208.652C208.59 210.691 209.779 212.14 211.743 212.14ZM218.779 212.14C220.686 212.14 221.932 210.744 221.932 208.652C221.932 206.547 220.686 205.151 218.779 205.151C216.872 205.151 215.626 206.547 215.626 208.652C215.626 210.744 216.872 212.14 218.779 212.14ZM218.784 211.035C217.537 211.035 216.956 209.947 216.956 208.648C216.956 207.353 217.537 206.252 218.784 206.252C220.021 206.252 220.602 207.353 220.602 208.648C220.602 209.947 220.021 211.035 218.784 211.035ZM223.402 212.003H224.719V205.239H223.402V212.003ZM224.067 204.196C224.521 204.196 224.899 203.843 224.899 203.412C224.899 202.98 224.521 202.623 224.067 202.623C223.609 202.623 223.235 202.98 223.235 203.412C223.235 203.843 223.609 204.196 224.067 204.196ZM227.807 207.987C227.807 206.908 228.467 206.292 229.383 206.292C230.277 206.292 230.819 206.877 230.819 207.86V212.003H232.136V207.701C232.136 206.028 231.215 205.151 229.833 205.151C228.815 205.151 228.15 205.622 227.838 206.34H227.754V205.239H226.49V212.003H227.807V207.987ZM238.97 206.891C238.697 205.838 237.874 205.151 236.412 205.151C234.884 205.151 233.8 205.957 233.8 207.155C233.8 208.115 234.382 208.753 235.65 209.035L236.795 209.286C237.447 209.432 237.75 209.722 237.75 210.145C237.75 210.669 237.191 211.079 236.328 211.079C235.54 211.079 235.033 210.74 234.875 210.075L233.602 210.268C233.822 211.466 234.818 212.14 236.337 212.14C237.971 212.14 239.102 211.272 239.102 210.048C239.102 209.093 238.495 208.502 237.253 208.216L236.178 207.97C235.434 207.793 235.113 207.542 235.117 207.084C235.113 206.565 235.676 206.195 236.425 206.195C237.244 206.195 237.623 206.648 237.777 207.102L238.97 206.891Z" fill="white"/>
<path d="M277.378 136.619C277.378 136.961 277.658 137.234 277.996 137.29C279.756 137.584 281.098 139.115 281.098 140.959C281.098 143.014 279.433 144.68 277.378 144.68H270.764C268.71 144.68 267.044 143.014 267.044 140.959C267.044 139.115 268.386 137.584 270.147 137.29C270.485 137.234 270.764 136.961 270.764 136.619C270.764 136.277 270.485 135.995 270.146 136.037C267.698 136.342 265.804 138.429 265.804 140.959C265.804 143.699 268.025 145.92 270.764 145.92H277.378C280.118 145.92 282.339 143.699 282.339 140.959C282.339 138.429 280.444 136.342 277.997 136.037C277.657 135.995 277.378 136.277 277.378 136.619Z" fill="white"/>
<path d="M274.691 132.707C274.691 132.338 275.137 132.154 275.397 132.414L276.94 133.957C277.182 134.199 277.574 134.199 277.817 133.957C278.059 133.715 278.059 133.322 277.817 133.08L274.51 129.773C274.268 129.531 273.875 129.531 273.633 129.773L270.326 133.08C270.084 133.322 270.084 133.715 270.326 133.957C270.568 134.199 270.961 134.199 271.203 133.957L272.746 132.414C273.006 132.154 273.451 132.338 273.451 132.707V140.959C273.451 141.302 273.729 141.579 274.071 141.579C274.414 141.579 274.691 141.302 274.691 140.959V132.707Z" fill="white"/>
<path d="M175.573 230.315C177.564 230.315 178.709 228.629 178.709 225.682C178.709 222.758 177.546 221.05 175.573 221.05C173.6 221.05 172.438 222.758 172.438 225.682C172.438 228.629 173.583 230.315 175.573 230.315ZM175.573 229.346C175.106 229.346 174.706 229.179 174.388 228.858L177.202 223.155C177.493 223.776 177.652 224.626 177.652 225.682C177.652 228.03 176.885 229.346 175.573 229.346ZM173.935 228.188C173.649 227.576 173.495 226.735 173.495 225.682C173.495 223.34 174.27 222.001 175.573 222.001C176.031 222.001 176.427 222.168 176.744 222.485L173.935 228.188ZM181.312 223.428H180.114L182.263 226.81L180.114 230.192H181.312L182.933 227.567L184.553 230.192H185.751L183.567 226.81L185.751 223.428H184.553L182.933 226.193L181.312 223.428ZM187.04 228.342H191.286V230.192H192.325V228.342H193.558V227.374H192.325V221.173H191.004L187.04 227.444V228.342ZM191.286 227.374H188.221V227.303L191.215 222.565H191.286V227.374ZM198.099 230.333C199.473 230.333 200.477 229.646 200.794 228.624L199.79 228.342C199.526 229.047 198.914 229.399 198.099 229.399C196.879 229.399 196.038 228.611 195.99 227.162H200.9V226.722C200.9 224.203 199.403 223.34 197.994 223.34C196.162 223.34 194.946 224.784 194.946 226.863C194.946 228.941 196.144 230.333 198.099 230.333ZM195.99 226.264C196.06 225.211 196.805 224.273 197.994 224.273C199.121 224.273 199.843 225.119 199.843 226.264H195.99ZM205.511 230.315C207.228 230.315 208.488 229.047 208.488 227.321C208.488 225.572 207.272 224.291 205.616 224.291C205.009 224.291 204.419 224.507 204.049 224.802H203.996L204.313 222.142H208.083V221.173H203.397L202.851 225.612L203.873 225.735C204.247 225.467 204.885 225.273 205.44 225.277C206.59 225.286 207.431 226.158 207.431 227.338C207.431 228.496 206.621 229.346 205.511 229.346C204.586 229.346 203.851 228.752 203.767 227.937H202.71C202.776 229.311 203.961 230.315 205.511 230.315ZM214.791 221.173H213.698L211.444 222.67V223.78L213.646 222.318H213.698V230.192H214.791V221.173ZM219.297 230.262C219.733 230.262 220.089 229.906 220.089 229.47C220.089 229.034 219.733 228.677 219.297 228.677C218.861 228.677 218.504 229.034 218.504 229.47C218.504 229.906 218.861 230.262 219.297 230.262ZM222.679 230.262C223.115 230.262 223.471 229.906 223.471 229.47C223.471 229.034 223.115 228.677 222.679 228.677C222.243 228.677 221.886 229.034 221.886 229.47C221.886 229.906 222.243 230.262 222.679 230.262ZM226.061 230.262C226.497 230.262 226.853 229.906 226.853 229.47C226.853 229.034 226.497 228.677 226.061 228.677C225.625 228.677 225.268 229.034 225.268 229.47C225.268 229.906 225.625 230.262 226.061 230.262ZM231.736 223.428H230.221V222.741C230.221 222.071 230.503 221.719 231.19 221.719C231.489 221.719 231.666 221.79 231.771 221.825L232.071 220.926C231.912 220.856 231.595 220.75 231.084 220.75C230.116 220.75 229.182 221.332 229.182 222.494V223.428H228.09V224.309H229.182V230.192H230.221V224.309H231.736V223.428ZM236.187 221.032C234.355 221.015 233.175 222.388 233.175 224.062C233.175 225.806 234.461 227.056 236.011 227.056C236.945 227.056 237.737 226.598 238.23 225.859H238.301C238.301 228.078 237.438 229.346 236.046 229.346C235.095 229.346 234.514 228.747 234.32 227.92H233.245C233.457 229.346 234.531 230.315 236.046 230.315C238.072 230.315 239.323 228.518 239.323 225.313C239.323 221.983 237.667 221.05 236.187 221.032ZM236.187 222.001C237.315 222.001 238.142 222.97 238.142 224.044C238.142 225.119 237.262 226.088 236.152 226.088C235.042 226.088 234.232 225.189 234.232 224.062C234.232 222.917 235.077 222.001 236.187 222.001ZM243.212 230.35C244.392 230.35 245.009 229.716 245.22 229.276H245.273V230.192H246.312V225.735C246.312 223.586 244.674 223.34 243.811 223.34C242.789 223.34 241.627 223.692 241.098 224.925L242.085 225.277C242.314 224.784 242.856 224.256 243.846 224.256C244.802 224.256 245.273 224.762 245.273 225.63V225.665C245.273 226.167 244.762 226.123 243.529 226.281C242.274 226.444 240.905 226.722 240.905 228.272C240.905 229.593 241.926 230.35 243.212 230.35ZM243.371 229.417C242.543 229.417 241.944 229.047 241.944 228.325C241.944 227.532 242.666 227.285 243.476 227.18C243.917 227.127 245.097 227.004 245.273 226.792V227.743C245.273 228.589 244.604 229.417 243.371 229.417ZM252.49 221.173H251.398L249.143 222.67V223.78L251.345 222.318H251.398V230.192H252.49V221.173Z" fill="white" fill-opacity="0.7"/>
<rect x="303.833" y="121.118" width="128.969" height="119.875" rx="6" fill="#887AF9"/>
<path d="M317.104 145.404C318.919 145.404 320.213 144.122 320.209 142.365C320.213 140.621 318.998 139.353 317.355 139.353C316.686 139.353 316.065 139.608 315.713 139.952H315.66L315.946 137.428H319.773V136.261H314.814L314.308 140.806L315.554 140.991C315.893 140.687 316.501 140.48 317.047 140.48C318.117 140.489 318.892 141.29 318.892 142.391C318.892 143.475 318.139 144.259 317.104 144.259C316.232 144.259 315.541 143.704 315.47 142.929H314.149C314.202 144.364 315.448 145.404 317.104 145.404ZM324.957 145.43C327.04 145.43 328.26 143.73 328.26 140.775C328.26 137.842 327.023 136.138 324.957 136.138C322.887 136.138 321.654 137.838 321.65 140.775C321.65 143.726 322.87 145.426 324.957 145.43ZM324.957 144.254C323.737 144.254 323.002 143.03 323.002 140.775C323.006 138.529 323.742 137.292 324.957 137.292C326.168 137.292 326.908 138.529 326.908 140.775C326.908 143.03 326.173 144.254 324.957 144.254ZM332.962 145.43C335.045 145.43 336.265 143.73 336.265 140.775C336.265 137.842 335.027 136.138 332.962 136.138C330.892 136.138 329.659 137.838 329.655 140.775C329.655 143.726 330.875 145.426 332.962 145.43ZM332.962 144.254C331.742 144.254 331.007 143.03 331.007 140.775C331.011 138.529 331.747 137.292 332.962 137.292C334.173 137.292 334.913 138.529 334.913 140.775C334.913 143.03 334.177 144.254 332.962 144.254ZM338.712 145.364C339.192 145.364 339.593 144.972 339.593 144.483C339.593 144.003 339.192 143.607 338.712 143.607C338.228 143.607 337.831 144.003 337.831 144.483C337.831 144.972 338.228 145.364 338.712 145.364ZM343.982 145.43C346.065 145.43 347.285 143.73 347.285 140.775C347.285 137.842 346.048 136.138 343.982 136.138C341.913 136.138 340.68 137.838 340.675 140.775C340.675 143.726 341.895 145.426 343.982 145.43ZM343.982 144.254C342.763 144.254 342.027 143.03 342.027 140.775C342.032 138.529 342.767 137.292 343.982 137.292C345.193 137.292 345.933 138.529 345.933 140.775C345.933 143.03 345.198 144.254 343.982 144.254ZM351.987 145.43C354.07 145.43 355.29 143.73 355.29 140.775C355.29 137.842 354.053 136.138 351.987 136.138C349.918 136.138 348.684 137.838 348.68 140.775C348.68 143.726 349.9 145.426 351.987 145.43ZM351.987 144.254C350.767 144.254 350.032 143.03 350.032 140.775C350.036 138.529 350.772 137.292 351.987 137.292C353.198 137.292 353.938 138.529 353.938 140.775C353.938 143.03 353.203 144.254 351.987 144.254Z" fill="white"/>
<path d="M367.083 136.02V141.965C367.083 143.229 366.074 143.938 364.859 143.938C363.652 143.938 362.639 143.229 362.639 141.965V136.02H361.278V141.987C361.278 144.021 362.864 145.188 364.859 145.188C366.854 145.188 368.443 144.021 368.443 141.987V136.02H367.083ZM375.341 138.389H376.653C376.613 136.945 375.336 135.896 373.504 135.896C371.694 135.896 370.307 136.931 370.307 138.486C370.307 139.741 371.206 140.476 372.654 140.868L373.72 141.159C374.685 141.414 375.429 141.731 375.429 142.533C375.429 143.414 374.588 143.995 373.429 143.995C372.381 143.995 371.509 143.528 371.43 142.546H370.065C370.153 144.18 371.417 145.188 373.438 145.188C375.556 145.188 376.776 144.074 376.776 142.546C376.776 140.921 375.327 140.291 374.183 140.01L373.302 139.781C372.597 139.6 371.659 139.27 371.664 138.407C371.664 137.64 372.364 137.072 373.474 137.072C374.508 137.072 375.244 137.557 375.341 138.389ZM381.322 145.039C384.07 145.039 385.66 143.334 385.66 140.516C385.66 137.711 384.07 136.02 381.415 136.02H378.402V145.039H381.322ZM379.763 143.85V137.209H381.331C383.304 137.209 384.321 138.389 384.321 140.516C384.321 142.652 383.304 143.85 381.247 143.85H379.763Z" fill="white" fill-opacity="0.4"/>
<path d="M314.745 212.003H316.031V210.951H316.141C316.379 211.382 316.863 212.136 318.096 212.136C319.734 212.136 320.923 210.823 320.923 208.635C320.923 206.442 319.717 205.151 318.083 205.151C316.828 205.151 316.374 205.917 316.141 206.336H316.062V202.985H314.745V212.003ZM316.035 208.621C316.035 207.208 316.652 206.27 317.801 206.27C318.995 206.27 319.593 207.278 319.593 208.621C319.593 209.978 318.977 211.013 317.801 211.013C316.669 211.013 316.035 210.044 316.035 208.621ZM326.687 209.198C326.691 210.348 325.837 210.894 325.097 210.894C324.282 210.894 323.719 210.304 323.719 209.383V205.239H322.402V209.542C322.402 211.22 323.322 212.091 324.621 212.091C325.639 212.091 326.33 211.554 326.643 210.832H326.713V212.003H328.008V205.239H326.687V209.198ZM329.777 212.003H331.094V207.873C331.094 206.988 331.776 206.349 332.71 206.349C332.983 206.349 333.291 206.397 333.397 206.428V205.169C333.265 205.151 333.005 205.138 332.838 205.138C332.045 205.138 331.367 205.587 331.12 206.314H331.05V205.239H329.777V212.003ZM335.853 207.987C335.853 206.908 336.514 206.292 337.43 206.292C338.324 206.292 338.865 206.877 338.865 207.86V212.003H340.182V207.701C340.182 206.028 339.262 205.151 337.879 205.151C336.862 205.151 336.197 205.622 335.884 206.34H335.8V205.239H334.536V212.003H335.853V207.987ZM344.863 212.14C346.338 212.14 347.382 211.413 347.682 210.312L346.435 210.088C346.198 210.726 345.625 211.052 344.876 211.052C343.749 211.052 342.992 210.321 342.956 209.018H347.765V208.551C347.765 206.107 346.303 205.151 344.771 205.151C342.886 205.151 341.644 206.587 341.644 208.665C341.644 210.766 342.868 212.14 344.863 212.14ZM342.961 208.031C343.014 207.071 343.709 206.239 344.78 206.239C345.801 206.239 346.471 206.996 346.475 208.031H342.961ZM349.226 212.003H350.543V207.873C350.543 206.988 351.226 206.349 352.159 206.349C352.432 206.349 352.74 206.397 352.846 206.428V205.169C352.714 205.151 352.454 205.138 352.287 205.138C351.494 205.138 350.816 205.587 350.569 206.314H350.499V205.239H349.226V212.003Z" fill="white"/>
<path d="M419.575 136.619C419.575 136.961 419.855 137.234 420.193 137.29C421.954 137.584 423.296 139.115 423.296 140.959C423.296 143.014 421.63 144.68 419.575 144.68H412.962C410.907 144.68 409.241 143.014 409.241 140.959C409.241 139.115 410.583 137.584 412.344 137.29C412.682 137.234 412.962 136.961 412.962 136.619C412.962 136.277 412.683 135.995 412.343 136.037C409.895 136.342 408.001 138.429 408.001 140.959C408.001 143.699 410.222 145.92 412.962 145.92H419.575C422.315 145.92 424.536 143.699 424.536 140.959C424.536 138.429 422.642 136.342 420.194 136.037C419.854 135.995 419.575 136.277 419.575 136.619Z" fill="white"/>
<path d="M416.889 132.707C416.889 132.338 417.334 132.154 417.594 132.414L419.137 133.957C419.379 134.199 419.772 134.199 420.014 133.957C420.256 133.715 420.256 133.322 420.014 133.08L416.707 129.773C416.465 129.531 416.072 129.531 415.83 129.773L412.523 133.08C412.281 133.322 412.281 133.715 412.523 133.957C412.765 134.199 413.158 134.199 413.4 133.957L414.943 132.414C415.203 132.154 415.648 132.338 415.648 132.707V140.959C415.648 141.302 415.926 141.579 416.268 141.579C416.611 141.579 416.889 141.302 416.889 140.959V132.707Z" fill="white"/>
<path d="M317.77 230.315C319.761 230.315 320.906 228.629 320.906 225.682C320.906 222.758 319.743 221.05 317.77 221.05C315.797 221.05 314.635 222.758 314.635 225.682C314.635 228.629 315.78 230.315 317.77 230.315ZM317.77 229.346C317.304 229.346 316.903 229.179 316.586 228.858L319.4 223.155C319.69 223.776 319.849 224.626 319.849 225.682C319.849 228.03 319.083 229.346 317.77 229.346ZM316.132 228.188C315.846 227.576 315.692 226.735 315.692 225.682C315.692 223.34 316.467 222.001 317.77 222.001C318.228 222.001 318.625 222.168 318.942 222.485L316.132 228.188ZM323.51 223.428H322.312L324.461 226.81L322.312 230.192H323.51L325.13 227.567L326.751 230.192H327.948L325.764 226.81L327.948 223.428H326.751L325.13 226.193L323.51 223.428ZM330.171 230.192H331.316L335.332 222.195V221.173H329.555V222.142H334.205V222.212L330.171 230.192ZM340.208 230.333C341.706 230.333 342.692 229.417 342.868 228.219H341.829C341.635 228.959 341.019 229.399 340.208 229.399C338.975 229.399 338.183 228.378 338.183 226.81C338.183 225.277 338.993 224.273 340.208 224.273C341.124 224.273 341.671 224.837 341.829 225.453H342.868C342.692 224.185 341.618 223.34 340.191 223.34C338.359 223.34 337.143 224.784 337.143 226.845C337.143 228.871 338.306 230.333 340.208 230.333ZM347.453 230.315C349.443 230.315 350.588 228.629 350.588 225.682C350.588 222.758 349.425 221.05 347.453 221.05C345.48 221.05 344.317 222.758 344.317 225.682C344.317 228.629 345.462 230.315 347.453 230.315ZM347.453 229.346C346.986 229.346 346.585 229.179 346.268 228.858L349.082 223.155C349.373 223.776 349.531 224.626 349.531 225.682C349.531 228.03 348.765 229.346 347.453 229.346ZM345.814 228.188C345.528 227.576 345.374 226.735 345.374 225.682C345.374 223.34 346.149 222.001 347.453 222.001C347.911 222.001 348.307 222.168 348.624 222.485L345.814 228.188ZM355.429 223.428H353.914V222.741C353.914 222.071 354.196 221.719 354.883 221.719C355.182 221.719 355.358 221.79 355.464 221.825L355.764 220.926C355.605 220.856 355.288 220.75 354.777 220.75C353.808 220.75 352.875 221.332 352.875 222.494V223.428H351.783V224.309H352.875V230.192H353.914V224.309H355.429V223.428ZM357.643 230.262C358.079 230.262 358.436 229.906 358.436 229.47C358.436 229.034 358.079 228.677 357.643 228.677C357.207 228.677 356.85 229.034 356.85 229.47C356.85 229.906 357.207 230.262 357.643 230.262ZM361.058 230.262C361.494 230.262 361.851 229.906 361.851 229.47C361.851 229.034 361.494 228.677 361.058 228.677C360.622 228.677 360.265 229.034 360.265 229.47C360.265 229.906 360.622 230.262 361.058 230.262ZM364.473 230.262C364.909 230.262 365.266 229.906 365.266 229.47C365.266 229.034 364.909 228.677 364.473 228.677C364.037 228.677 363.68 229.034 363.68 229.47C363.68 229.906 364.037 230.262 364.473 230.262ZM370.196 230.315C371.997 230.315 373.252 229.263 373.261 227.796C373.252 226.656 372.49 225.687 371.517 225.506V225.453C372.362 225.233 372.917 224.405 372.926 223.445C372.917 222.071 371.763 221.05 370.196 221.05C368.61 221.05 367.457 222.071 367.465 223.445C367.457 224.405 368.011 225.233 368.875 225.453V225.506C367.884 225.687 367.122 226.656 367.131 227.796C367.122 229.263 368.377 230.315 370.196 230.315ZM370.196 229.346C368.958 229.346 368.196 228.712 368.205 227.743C368.196 226.726 369.038 226 370.196 226C371.336 226 372.177 226.726 372.186 227.743C372.177 228.712 371.416 229.346 370.196 229.346ZM370.196 225.066C369.209 225.066 368.513 224.449 368.522 223.516C368.513 222.6 369.183 222.001 370.196 222.001C371.191 222.001 371.86 222.6 371.869 223.516C371.86 224.449 371.165 225.066 370.196 225.066ZM377.15 230.35C378.33 230.35 378.947 229.716 379.158 229.276H379.211V230.192H380.251V225.735C380.251 223.586 378.612 223.34 377.749 223.34C376.728 223.34 375.565 223.692 375.036 224.925L376.023 225.277C376.252 224.784 376.794 224.256 377.784 224.256C378.74 224.256 379.211 224.762 379.211 225.63V225.665C379.211 226.167 378.7 226.123 377.467 226.281C376.212 226.444 374.843 226.722 374.843 228.272C374.843 229.593 375.864 230.35 377.15 230.35ZM377.309 229.417C376.481 229.417 375.882 229.047 375.882 228.325C375.882 227.532 376.604 227.285 377.415 227.18C377.855 227.127 379.035 227.004 379.211 226.792V227.743C379.211 228.589 378.542 229.417 377.309 229.417ZM386.428 221.173H385.336L383.081 222.67V223.78L385.283 222.318H385.336V230.192H386.428V221.173ZM393.171 221.032C391.339 221.015 390.159 222.388 390.159 224.062C390.159 225.806 391.445 227.056 392.995 227.056C393.929 227.056 394.721 226.598 395.214 225.859H395.285C395.285 228.078 394.422 229.346 393.03 229.346C392.079 229.346 391.498 228.747 391.304 227.92H390.229C390.441 229.346 391.515 230.315 393.03 230.315C395.056 230.315 396.307 228.518 396.307 225.313C396.307 221.983 394.651 221.05 393.171 221.032ZM393.171 222.001C394.298 222.001 395.126 222.97 395.126 224.044C395.126 225.119 394.246 226.088 393.136 226.088C392.026 226.088 391.216 225.189 391.216 224.062C391.216 222.917 392.061 222.001 393.171 222.001Z" fill="white" fill-opacity="0.7"/>
<g filter="url(#filter2_d)">
<rect x="446.031" y="121.118" width="128.969" height="119.875" rx="6" fill="#BA5B9A"/>
</g>
<path d="M456.819 145.039H462.755V143.872H458.695V143.806L460.487 141.93C462.138 140.261 462.61 139.463 462.61 138.455C462.61 137.006 461.429 135.896 459.73 135.896C458.043 135.896 456.81 136.989 456.81 138.636H458.109C458.105 137.667 458.73 137.033 459.703 137.033C460.619 137.033 461.315 137.596 461.315 138.495C461.315 139.292 460.839 139.864 459.87 140.89L456.819 144.052V145.039ZM464.424 145.039H470.36V143.872H466.3V143.806L468.092 141.93C469.744 140.261 470.215 139.463 470.215 138.455C470.215 137.006 469.035 135.896 467.335 135.896C465.648 135.896 464.415 136.989 464.415 138.636H465.714C465.71 137.667 466.335 137.033 467.308 137.033C468.224 137.033 468.92 137.596 468.92 138.495C468.92 139.292 468.445 139.864 467.476 140.89L464.424 144.052V145.039ZM475.169 145.188C477.252 145.188 478.472 143.488 478.472 140.534C478.472 137.601 477.234 135.896 475.169 135.896C473.099 135.896 471.866 137.596 471.862 140.534C471.862 143.484 473.082 145.184 475.169 145.188ZM475.169 144.013C473.949 144.013 473.214 142.788 473.214 140.534C473.218 138.288 473.954 137.05 475.169 137.05C476.38 137.05 477.12 138.288 477.12 140.534C477.12 142.788 476.384 144.013 475.169 144.013ZM480.919 145.122C481.399 145.122 481.8 144.73 481.8 144.241C481.8 143.761 481.399 143.365 480.919 143.365C480.435 143.365 480.038 143.761 480.038 144.241C480.038 144.73 480.435 145.122 480.919 145.122ZM485.987 136.02H484.661L482.411 137.491V138.794L484.569 137.385H484.622V145.039H485.987V136.02ZM491.848 136.02H490.523L488.272 137.491V138.794L490.43 137.385H490.483V145.039H491.848V136.02Z" fill="white"/>
<path d="M506.945 136.02V141.965C506.945 143.229 505.936 143.938 504.721 143.938C503.514 143.938 502.501 143.229 502.501 141.965V136.02H501.141V141.987C501.141 144.021 502.726 145.188 504.721 145.188C506.716 145.188 508.305 144.021 508.305 141.987V136.02H506.945ZM515.203 138.389H516.515C516.475 136.945 515.198 135.896 513.366 135.896C511.556 135.896 510.169 136.931 510.169 138.486C510.169 139.741 511.068 140.476 512.516 140.868L513.582 141.159C514.547 141.414 515.291 141.731 515.291 142.533C515.291 143.414 514.45 143.995 513.292 143.995C512.243 143.995 511.372 143.528 511.292 142.546H509.927C510.015 144.18 511.279 145.188 513.3 145.188C515.419 145.188 516.638 144.074 516.638 142.546C516.638 140.921 515.19 140.291 514.045 140.01L513.164 139.781C512.459 139.6 511.521 139.27 511.526 138.407C511.526 137.64 512.226 137.072 513.336 137.072C514.37 137.072 515.106 137.557 515.203 138.389ZM521.184 145.039C523.932 145.039 525.522 143.334 525.522 140.516C525.522 137.711 523.932 136.02 521.277 136.02H518.264V145.039H521.184ZM519.625 143.85V137.209H521.193C523.166 137.209 524.183 138.389 524.183 140.516C524.183 142.652 523.166 143.85 521.109 143.85H519.625Z" fill="white" fill-opacity="0.4"/>
<path d="M461.905 206.891C461.632 205.838 460.808 205.151 459.346 205.151C457.818 205.151 456.735 205.957 456.735 207.155C456.735 208.115 457.316 208.753 458.585 209.035L459.73 209.286C460.381 209.432 460.685 209.722 460.685 210.145C460.685 210.669 460.126 211.079 459.263 211.079C458.475 211.079 457.968 210.74 457.81 210.075L456.537 210.268C456.757 211.466 457.752 212.14 459.272 212.14C460.905 212.14 462.037 211.272 462.037 210.048C462.037 209.093 461.429 208.502 460.188 208.216L459.113 207.97C458.369 207.793 458.047 207.542 458.052 207.084C458.047 206.565 458.611 206.195 459.36 206.195C460.179 206.195 460.557 206.648 460.712 207.102L461.905 206.891ZM465.453 212.153C466.572 212.153 467.202 211.585 467.453 211.079H467.505V212.003H468.791V207.512C468.791 205.543 467.241 205.151 466.167 205.151C464.942 205.151 463.815 205.644 463.375 206.877L464.612 207.159C464.806 206.679 465.299 206.217 466.184 206.217C467.034 206.217 467.47 206.662 467.47 207.428V207.459C467.47 207.939 466.977 207.93 465.762 208.071C464.48 208.221 463.168 208.555 463.168 210.092C463.168 211.422 464.167 212.153 465.453 212.153ZM465.74 211.096C464.995 211.096 464.458 210.762 464.458 210.11C464.458 209.405 465.083 209.154 465.845 209.053C466.272 208.996 467.285 208.881 467.475 208.692V209.564C467.475 210.365 466.836 211.096 465.74 211.096ZM476.089 205.239H474.676L472.967 210.444H472.897L471.184 205.239H469.77L472.227 212.003H473.637L476.089 205.239ZM477.327 212.003H478.644V205.239H477.327V212.003ZM477.992 204.196C478.445 204.196 478.824 203.843 478.824 203.412C478.824 202.98 478.445 202.623 477.992 202.623C477.534 202.623 477.16 202.98 477.16 203.412C477.16 203.843 477.534 204.196 477.992 204.196ZM481.732 207.987C481.732 206.908 482.392 206.292 483.308 206.292C484.202 206.292 484.744 206.877 484.744 207.86V212.003H486.061V207.701C486.061 206.028 485.14 205.151 483.757 205.151C482.74 205.151 482.075 205.622 481.763 206.34H481.679V205.239H480.415V212.003H481.732V207.987ZM490.662 214.668C492.384 214.668 493.714 213.879 493.714 212.153V205.239H492.424V206.336H492.327C492.094 205.917 491.627 205.151 490.367 205.151C488.734 205.151 487.531 206.442 487.531 208.595C487.531 210.753 488.76 211.902 490.359 211.902C491.6 211.902 492.08 211.202 492.318 210.77H492.402V212.1C492.402 213.144 491.675 213.606 490.676 213.606C489.579 213.606 489.152 213.056 488.919 212.682L487.787 213.148C488.144 213.963 489.046 214.668 490.662 214.668ZM490.649 210.81C489.473 210.81 488.861 209.907 488.861 208.577C488.861 207.278 489.46 206.27 490.649 206.27C491.799 206.27 492.415 207.208 492.415 208.577C492.415 209.973 491.785 210.81 490.649 210.81ZM500.549 206.891C500.276 205.838 499.452 205.151 497.99 205.151C496.462 205.151 495.379 205.957 495.379 207.155C495.379 208.115 495.96 208.753 497.228 209.035L498.373 209.286C499.025 209.432 499.329 209.722 499.329 210.145C499.329 210.669 498.77 211.079 497.907 211.079C497.118 211.079 496.612 210.74 496.453 210.075L495.181 210.268C495.401 211.466 496.396 212.14 497.915 212.14C499.549 212.14 500.681 211.272 500.681 210.048C500.681 209.093 500.073 208.502 498.831 208.216L497.757 207.97C497.013 207.793 496.691 207.542 496.696 207.084C496.691 206.565 497.255 206.195 498.004 206.195C498.823 206.195 499.201 206.648 499.355 207.102L500.549 206.891Z" fill="white"/>
<path d="M561.772 136.619C561.772 136.961 562.052 137.234 562.39 137.29C564.151 137.584 565.493 139.115 565.493 140.959C565.493 143.014 563.827 144.68 561.772 144.68H555.159C553.104 144.68 551.438 143.014 551.438 140.959C551.438 139.115 552.78 137.584 554.541 137.29C554.879 137.234 555.159 136.961 555.159 136.619C555.159 136.277 554.88 135.995 554.54 136.037C552.092 136.342 550.198 138.429 550.198 140.959C550.198 143.699 552.419 145.92 555.159 145.92H561.772C564.512 145.92 566.733 143.699 566.733 140.959C566.733 138.429 564.839 136.342 562.391 136.037C562.051 135.995 561.772 136.277 561.772 136.619Z" fill="white"/>
<path d="M559.086 132.707C559.086 132.338 559.531 132.154 559.791 132.414L561.334 133.957C561.576 134.199 561.969 134.199 562.211 133.957C562.453 133.715 562.453 133.322 562.211 133.08L558.904 129.773C558.662 129.531 558.269 129.531 558.027 129.773L554.72 133.08C554.478 133.322 554.478 133.715 554.72 133.957C554.962 134.199 555.355 134.199 555.597 133.957L557.14 132.414C557.4 132.154 557.845 132.338 557.845 132.707V140.959C557.845 141.302 558.123 141.579 558.466 141.579C558.808 141.579 559.086 141.302 559.086 140.959V132.707Z" fill="white"/>
<path d="M459.967 230.315C461.958 230.315 463.103 228.629 463.103 225.682C463.103 222.758 461.94 221.05 459.967 221.05C457.995 221.05 456.832 222.758 456.832 225.682C456.832 228.629 457.977 230.315 459.967 230.315ZM459.967 229.346C459.501 229.346 459.1 229.179 458.783 228.858L461.597 223.155C461.887 223.776 462.046 224.626 462.046 225.682C462.046 228.03 461.28 229.346 459.967 229.346ZM458.329 228.188C458.043 227.576 457.889 226.735 457.889 225.682C457.889 223.34 458.664 222.001 459.967 222.001C460.425 222.001 460.822 222.168 461.139 222.485L458.329 228.188ZM465.707 223.428H464.509L466.658 226.81L464.509 230.192H465.707L467.327 227.567L468.948 230.192H470.146L467.961 226.81L470.146 223.428H468.948L467.327 226.193L465.707 223.428ZM474.729 230.315C476.477 230.315 477.776 229.219 477.776 227.743C477.776 226.598 477.098 225.766 475.962 225.577V225.506C476.873 225.229 477.441 224.48 477.441 223.463C477.441 222.186 476.433 221.05 474.764 221.05C473.205 221.05 471.91 222.01 471.857 223.428H472.914C472.954 222.529 473.808 222.001 474.746 222.001C475.742 222.001 476.384 222.604 476.384 223.516C476.384 224.467 475.64 225.084 474.57 225.084H473.848V226.052H474.57C475.94 226.052 476.702 226.748 476.702 227.743C476.702 228.699 475.869 229.346 474.711 229.346C473.667 229.346 472.839 228.809 472.773 227.937H471.664C471.73 229.355 472.98 230.315 474.729 230.315ZM481.648 230.35C482.828 230.35 483.445 229.716 483.656 229.276H483.709V230.192H484.748V225.735C484.748 223.586 483.11 223.34 482.247 223.34C481.225 223.34 480.063 223.692 479.534 224.925L480.521 225.277C480.75 224.784 481.291 224.256 482.282 224.256C483.238 224.256 483.709 224.762 483.709 225.63V225.665C483.709 226.167 483.198 226.123 481.965 226.281C480.71 226.444 479.34 226.722 479.34 228.272C479.34 229.593 480.362 230.35 481.648 230.35ZM481.807 229.417C480.979 229.417 480.38 229.047 480.38 228.325C480.38 227.532 481.102 227.285 481.912 227.18C482.353 227.127 483.533 227.004 483.709 226.792V227.743C483.709 228.589 483.04 229.417 481.807 229.417ZM489.675 230.315C491.392 230.315 492.652 229.047 492.652 227.321C492.652 225.572 491.436 224.291 489.781 224.291C489.173 224.291 488.583 224.507 488.213 224.802H488.16L488.477 222.142H492.247V221.173H487.561L487.015 225.612L488.037 225.735C488.411 225.467 489.05 225.273 489.604 225.277C490.754 225.286 491.595 226.158 491.595 227.338C491.595 228.496 490.785 229.346 489.675 229.346C488.75 229.346 488.015 228.752 487.931 227.937H486.874C486.94 229.311 488.125 230.315 489.675 230.315ZM497.739 230.315C499.54 230.315 500.795 229.263 500.804 227.796C500.795 226.656 500.034 225.687 499.06 225.506V225.453C499.906 225.233 500.461 224.405 500.47 223.445C500.461 222.071 499.307 221.05 497.739 221.05C496.154 221.05 495 222.071 495.009 223.445C495 224.405 495.555 225.233 496.418 225.453V225.506C495.427 225.687 494.665 226.656 494.674 227.796C494.665 229.263 495.921 230.315 497.739 230.315ZM497.739 229.346C496.502 229.346 495.74 228.712 495.749 227.743C495.74 226.726 496.581 226 497.739 226C498.88 226 499.721 226.726 499.73 227.743C499.721 228.712 498.959 229.346 497.739 229.346ZM497.739 225.066C496.753 225.066 496.057 224.449 496.066 223.516C496.057 222.6 496.726 222.001 497.739 222.001C498.735 222.001 499.404 222.6 499.413 223.516C499.404 224.449 498.708 225.066 497.739 225.066ZM503.461 230.262C503.897 230.262 504.254 229.906 504.254 229.47C504.254 229.034 503.897 228.677 503.461 228.677C503.025 228.677 502.668 229.034 502.668 229.47C502.668 229.906 503.025 230.262 503.461 230.262ZM506.843 230.262C507.279 230.262 507.636 229.906 507.636 229.47C507.636 229.034 507.279 228.677 506.843 228.677C506.407 228.677 506.05 229.034 506.05 229.47C506.05 229.906 506.407 230.262 506.843 230.262ZM510.225 230.262C510.661 230.262 511.018 229.906 511.018 229.47C511.018 229.034 510.661 228.677 510.225 228.677C509.789 228.677 509.432 229.034 509.432 229.47C509.432 229.906 509.789 230.262 510.225 230.262ZM515.9 223.428H514.385V222.741C514.385 222.071 514.667 221.719 515.354 221.719C515.654 221.719 515.83 221.79 515.936 221.825L516.235 220.926C516.076 220.856 515.759 220.75 515.249 220.75C514.28 220.75 513.346 221.332 513.346 222.494V223.428H512.254V224.309H513.346V230.192H514.385V224.309H515.9V223.428ZM519.154 230.35C520.334 230.35 520.95 229.716 521.162 229.276H521.214V230.192H522.254V225.735C522.254 223.586 520.616 223.34 519.752 223.34C518.731 223.34 517.568 223.692 517.04 224.925L518.026 225.277C518.255 224.784 518.797 224.256 519.788 224.256C520.743 224.256 521.214 224.762 521.214 225.63V225.665C521.214 226.167 520.704 226.123 519.471 226.281C518.216 226.444 516.846 226.722 516.846 228.272C516.846 229.593 517.868 230.35 519.154 230.35ZM519.312 229.417C518.484 229.417 517.885 229.047 517.885 228.325C517.885 227.532 518.607 227.285 519.418 227.18C519.858 227.127 521.038 227.004 521.214 226.792V227.743C521.214 228.589 520.545 229.417 519.312 229.417ZM527.18 230.315C528.898 230.315 530.157 229.047 530.157 227.321C530.157 225.572 528.942 224.291 527.286 224.291C526.678 224.291 526.088 224.507 525.718 224.802H525.666L525.983 222.142H529.752V221.173H525.067L524.521 225.612L525.542 225.735C525.917 225.467 526.555 225.273 527.11 225.277C528.259 225.286 529.1 226.158 529.1 227.338C529.1 228.496 528.29 229.346 527.18 229.346C526.256 229.346 525.52 228.752 525.437 227.937H524.38C524.446 229.311 525.63 230.315 527.18 230.315ZM535.28 230.315C537.028 230.315 538.327 229.219 538.327 227.743C538.327 226.598 537.649 225.766 536.513 225.577V225.506C537.425 225.229 537.993 224.48 537.993 223.463C537.993 222.186 536.984 221.05 535.315 221.05C533.756 221.05 532.462 222.01 532.409 223.428H533.466C533.505 222.529 534.36 222.001 535.298 222.001C536.293 222.001 536.936 222.604 536.936 223.516C536.936 224.467 536.192 225.084 535.121 225.084H534.399V226.052H535.121C536.491 226.052 537.253 226.748 537.253 227.743C537.253 228.699 536.421 229.346 535.262 229.346C534.219 229.346 533.391 228.809 533.325 227.937H532.215C532.281 229.355 533.532 230.315 535.28 230.315Z" fill="white" fill-opacity="0.7"/>
<defs>
<filter id="filter0_d" x="6.21157" y="109.543" width="155.425" height="146.331" filterUnits="userSpaceOnUse" color-interpolation-filters="sRGB">
<feFlood flood-opacity="0" result="BackgroundImageFix"/>
<feColorMatrix in="SourceAlpha" type="matrix" values="0 0 0 0 0 0 0 0 0 0 0 0 0 0 0 0 0 0 127 0"/>
<feOffset dy="1.65345"/>
<feGaussianBlur stdDeviation="6.61382"/>
<feColorMatrix type="matrix" values="0 0 0 0 0 0 0 0 0 0.0333333 0 0 0 0 0.1 0 0 0 0.12 0"/>
<feBlend mode="normal" in2="BackgroundImageFix" result="effect1_dropShadow"/>
<feBlend mode="normal" in="SourceGraphic" in2="effect1_dropShadow" result="shape"/>
</filter>
<filter id="filter1_d" x="148.409" y="109.543" width="155.425" height="146.331" filterUnits="userSpaceOnUse" color-interpolation-filters="sRGB">
<feFlood flood-opacity="0" result="BackgroundImageFix"/>
<feColorMatrix in="SourceAlpha" type="matrix" values="0 0 0 0 0 0 0 0 0 0 0 0 0 0 0 0 0 0 127 0"/>
<feOffset dy="1.65345"/>
<feGaussianBlur stdDeviation="6.61382"/>
<feColorMatrix type="matrix" values="0 0 0 0 0 0 0 0 0 0.0333333 0 0 0 0 0.1 0 0 0 0.12 0"/>
<feBlend mode="normal" in2="BackgroundImageFix" result="effect1_dropShadow"/>
<feBlend mode="normal" in="SourceGraphic" in2="effect1_dropShadow" result="shape"/>
</filter>
<filter id="filter2_d" x="432.803" y="109.543" width="155.425" height="146.331" filterUnits="userSpaceOnUse" color-interpolation-filters="sRGB">
<feFlood flood-opacity="0" result="BackgroundImageFix"/>
<feColorMatrix in="SourceAlpha" type="matrix" values="0 0 0 0 0 0 0 0 0 0 0 0 0 0 0 0 0 0 127 0"/>
<feOffset dy="1.65345"/>
<feGaussianBlur stdDeviation="6.61382"/>
<feColorMatrix type="matrix" values="0 0 0 0 0 0 0 0 0 0.0333333 0 0 0 0 0.1 0 0 0 0.12 0"/>
<feBlend mode="normal" in2="BackgroundImageFix" result="effect1_dropShadow"/>
<feBlend mode="normal" in="SourceGraphic" in2="effect1_dropShadow" result="shape"/>
</filter>
<linearGradient id="paint0_linear" x1="483" y1="371.5" x2="483" y2="587.5" gradientUnits="userSpaceOnUse">
<stop stop-color="#090909"/>
<stop offset="1" stop-color="#090909" stop-opacity="0"/>
</linearGradient>
<clipPath id="clip0">
<rect x="6" width="311" height="408" rx="11.6748" fill="white"/>
</clipPath>
<clipPath id="clip1">
<rect width="310.023" height="152.118" fill="white" transform="translate(6.21143 -31)"/>
</clipPath>
<clipPath id="clip2">
<rect width="310.023" height="171.959" fill="white" transform="translate(6.21143 289.771)"/>
</clipPath>
<clipPath id="clip3">
<rect width="129.351" height="38" fill="white" transform="translate(19.439 303.884)"/>
</clipPath>
<clipPath id="clip4">
<rect width="69" height="38" fill="white" transform="translate(65.7356 303.884)"/>
</clipPath>
<clipPath id="clip5">
<rect width="47" height="19" fill="white" transform="translate(65.7356 303.884)"/>
</clipPath>
<clipPath id="clip6">
<rect width="132.351" height="38" fill="white" transform="translate(19.439 356.795)"/>
</clipPath>
<clipPath id="clip7">
<rect width="72" height="38" fill="white" transform="translate(65.7356 356.795)"/>
</clipPath>
<clipPath id="clip8">
<rect width="53" height="19" fill="white" transform="translate(65.7356 356.795)"/>
</clipPath>
</defs>
</svg>
