<svg class="text-black rounded w-10 h-10 bg-gray-light fill-current" width="26" height="26" viewBox="0 0 26 26" fill="none" xmlns="http://www.w3.org/2000/svg">
    <g opacity="0.5" class="hover:opacity-100">
    <rect width="26" height="26" rx="2" fill="white"></rect>
    <g id="surface1" transform="translate(2, 2)">
        <path style=" stroke:none;fill-rule:nonzero;fill:rgb(0%,0%,0%);fill-opacity:1;" d="M 10.972656 0 C 4.914062 0 0 4.914062 0 10.972656 C 0 17.03125 4.914062 21.945312 10.972656 21.945312 C 17.03125 21.945312 21.945312 17.03125 21.945312 10.972656 C 21.945312 4.914062 17.03125 0 10.972656 0 Z M 9.726562 17.234375 C 6.519531 17.234375 3.238281 15.679688 3.238281 13.125 C 3.238281 11.785156 4.085938 10.238281 5.542969 8.78125 C 7.492188 6.832031 9.765625 5.945312 10.617188 6.800781 C 10.996094 7.179688 11.03125 7.828125 10.789062 8.609375 C 10.664062 9 11.160156 8.785156 11.160156 8.785156 C 12.734375 8.125 14.105469 8.085938 14.609375 8.804688 C 14.875 9.1875 14.851562 9.722656 14.605469 10.34375 C 14.488281 10.628906 14.640625 10.675781 14.855469 10.738281 C 15.746094 11.015625 16.730469 11.679688 16.730469 12.851562 C 16.730469 14.792969 13.933594 17.234375 9.726562 17.234375 Z M 15.535156 9.105469 C 15.640625 8.78125 15.574219 8.417969 15.332031 8.148438 C 15.089844 7.882812 14.734375 7.78125 14.40625 7.851562 C 14.128906 7.910156 13.859375 7.734375 13.800781 7.457031 C 13.742188 7.183594 13.917969 6.910156 14.191406 6.851562 C 14.867188 6.710938 15.597656 6.917969 16.089844 7.464844 C 16.585938 8.015625 16.71875 8.761719 16.507812 9.417969 C 16.417969 9.683594 16.132812 9.832031 15.863281 9.746094 C 15.597656 9.660156 15.449219 9.371094 15.535156 9.105469 Z M 18.507812 10.0625 C 18.507812 10.0625 18.507812 10.066406 18.507812 10.066406 C 18.40625 10.375 18.070312 10.546875 17.761719 10.445312 C 17.449219 10.34375 17.277344 10.011719 17.378906 9.699219 C 17.6875 8.742188 17.492188 7.652344 16.769531 6.851562 C 16.046875 6.050781 14.984375 5.746094 14 5.957031 C 13.679688 6.023438 13.367188 5.820312 13.296875 5.5 C 13.230469 5.179688 13.433594 4.867188 13.753906 4.796875 C 15.136719 4.503906 16.632812 4.933594 17.648438 6.058594 C 18.664062 7.183594 18.941406 8.71875 18.507812 10.0625 Z M 18.507812 10.0625 "/>
        <path style=" stroke:none;fill-rule:nonzero;fill:rgb(0%,0%,0%);fill-opacity:1;" d="M 9.753906 12.890625 C 9.601562 12.832031 9.410156 12.902344 9.320312 13.054688 C 9.234375 13.203125 9.28125 13.375 9.433594 13.4375 C 9.589844 13.5 9.789062 13.429688 9.878906 13.273438 C 9.960938 13.121094 9.90625 12.949219 9.753906 12.890625 Z M 9.753906 12.890625 "/>
        <path style=" stroke:none;fill-rule:nonzero;fill:rgb(0%,0%,0%);fill-opacity:1;" d="M 9.132812 10.230469 C 6.574219 10.484375 4.632812 12.054688 4.800781 13.734375 C 4.964844 15.414062 7.175781 16.570312 9.734375 16.320312 C 12.296875 16.066406 14.238281 14.5 14.070312 12.816406 C 13.90625 11.136719 11.695312 9.980469 9.132812 10.230469 Z M 11.378906 14.195312 C 10.859375 15.378906 9.355469 16.007812 8.078125 15.597656 C 6.847656 15.199219 6.328125 13.984375 6.867188 12.890625 C 7.394531 11.816406 8.773438 11.207031 9.992188 11.527344 C 11.253906 11.851562 11.894531 13.042969 11.378906 14.195312 Z M 11.378906 14.195312 "/>
        <path style=" stroke:none;fill-rule:nonzero;fill:rgb(0%,0%,0%);fill-opacity:1;" d="M 8.777344 13.296875 C 8.378906 13.128906 7.867188 13.300781 7.621094 13.683594 C 7.375 14.070312 7.492188 14.527344 7.882812 14.707031 C 8.285156 14.890625 8.8125 14.71875 9.0625 14.320312 C 9.304688 13.921875 9.175781 13.46875 8.777344 13.296875 Z M 8.777344 13.296875 "/>
    </g>
    </g>
</svg>