<svg class="text-black rounded w-10 h-10 bg-gray-light fill-current" width="26" height="26" viewBox="0 0 26 26" fill="none" xmlns="http://www.w3.org/2000/svg">
    <g opacity="0.5" class="hover:opacity-100">
    <rect width="26" height="26" rx="2" fill="white"></rect>
    <path style="fill: black" fill-rule="evenodd" clip-rule="evenodd" d="M11.142 15.665L11.141 10.608L16.005 13.145L11.142 15.665ZM21.82 9.731C21.82 9.731 21.644 8.491 21.105 7.945C20.42 7.228 19.653 7.225 19.301 7.182C16.782 7 13.004 7 13.004 7H12.996C12.996 7 9.218 7 6.699 7.182C6.347 7.224 5.58 7.228 4.895 7.945C4.355 8.491 4.18 9.731 4.18 9.731C4.18 9.731 4 11.189 4 12.645V14.009C4 15.466 4.18 16.922 4.18 16.922C4.18 16.922 4.356 18.162 4.895 18.709C5.58 19.426 6.479 19.403 6.88 19.479C8.32 19.617 13 19.659 13 19.659C13 19.659 16.782 19.654 19.301 19.472C19.653 19.43 20.421 19.426 21.105 18.709C21.645 18.163 21.82 16.922 21.82 16.922C21.82 16.922 22 15.466 22 14.009V12.644C22 11.187 21.82 9.73 21.82 9.73V9.731Z" />
    </g>
</svg>